<?xml version="1.0" encoding="UTF-8" standalone="no"?>
<!DOCTYPE svg PUBLIC "-//W3C//DTD SVG 1.1//EN"
 "http://www.w3.org/Graphics/SVG/1.1/DTD/svg11.dtd">
<!-- Generated by graphviz version 2.30.1 (20180420.1509)
 -->
<!-- Title: hdeps Pages: 1 -->
<svg width="2397pt" height="1208pt"
 viewBox="0.00 0.00 2397.27 1208.00" xmlns="http://www.w3.org/2000/svg" xmlns:xlink="http://www.w3.org/1999/xlink">
<g id="graph0" class="graph" transform="scale(1 1) rotate(0) translate(4 1204)">
<title>hdeps</title>
<polygon fill="white" stroke="white" points="-4,5 -4,-1204 2394.27,-1204 2394.27,5 -4,5"/>
<!-- console__h -->
<g id="node1" class="node"><title>console__h</title>
<ellipse fill="none" stroke="black" cx="171.269" cy="-988" rx="44.2946" ry="18"/>
<text text-anchor="middle" x="171.269" y="-984.3" font-family="Times,serif" font-size="14.00">console.h</text>
</g>
<!-- debug__h -->
<g id="node2" class="node"><title>debug__h</title>
<ellipse fill="none" stroke="black" cx="544.269" cy="-1182" rx="38.4949" ry="18"/>
<text text-anchor="middle" x="544.269" y="-1178.3" font-family="Times,serif" font-size="14.00">debug.h</text>
</g>
<!-- ipc__h -->
<g id="node3" class="node"><title>ipc__h</title>
<ellipse fill="none" stroke="black" cx="2039.27" cy="-18" rx="28.3955" ry="18"/>
<text text-anchor="middle" x="2039.27" y="-14.3" font-family="Times,serif" font-size="14.00">ipc.h</text>
</g>
<!-- object__h -->
<g id="node4" class="node"><title>object__h</title>
<ellipse fill="none" stroke="black" cx="2125.27" cy="-18" rx="38.4949" ry="18"/>
<text text-anchor="middle" x="2125.27" y="-14.3" font-family="Times,serif" font-size="14.00">object.h</text>
</g>
<!-- pfalloc__h -->
<g id="node5" class="node"><title>pfalloc__h</title>
<ellipse fill="none" stroke="black" cx="1675.27" cy="-18" rx="42.3701" ry="18"/>
<text text-anchor="middle" x="1675.27" y="-14.3" font-family="Times,serif" font-size="14.00">pfalloc.h</text>
</g>
<!-- process__h -->
<g id="node6" class="node"><title>process__h</title>
<ellipse fill="none" stroke="black" cx="2226.27" cy="-18" rx="44.2946" ry="18"/>
<text text-anchor="middle" x="2226.27" y="-14.3" font-family="Times,serif" font-size="14.00">process.h</text>
</g>
<!-- syscall__h -->
<g id="node7" class="node"><title>syscall__h</title>
<ellipse fill="none" stroke="black" cx="1731.27" cy="-212" rx="41.394" ry="18"/>
<text text-anchor="middle" x="1731.27" y="-208.3" font-family="Times,serif" font-size="14.00">syscall.h</text>
</g>
<!-- types__h -->
<g id="node8" class="node"><title>types__h</title>
<ellipse fill="none" stroke="black" cx="1978.27" cy="-212" rx="36.096" ry="18"/>
<text text-anchor="middle" x="1978.27" y="-208.3" font-family="Times,serif" font-size="14.00">types.h</text>
</g>
<!-- types__h&#45;&gt;ipc__h -->
<g id="edge3" class="edge"><title>types__h&#45;&gt;ipc__h</title>
<path fill="none" stroke="black" d="M1983.68,-193.961C1994.36,-160.359 2018.19,-85.346 2030.9,-45.3304"/>
<polygon fill="black" stroke="black" points="2034.26,-46.3168 2033.95,-35.7264 2027.59,-44.1972 2034.26,-46.3168"/>
</g>
<!-- types__h&#45;&gt;object__h -->
<g id="edge4" class="edge"><title>types__h&#45;&gt;object__h</title>
<path fill="none" stroke="black" d="M1990.55,-194.96C2016.33,-161.29 2076.21,-83.0727 2106.71,-43.2436"/>
<polygon fill="black" stroke="black" points="2109.62,-45.1967 2112.92,-35.1289 2104.06,-40.9413 2109.62,-45.1967"/>
</g>
<!-- types__h&#45;&gt;pfalloc__h -->
<g id="edge6" class="edge"><title>types__h&#45;&gt;pfalloc__h</title>
<path fill="none" stroke="black" d="M1956.48,-197.192C1903.58,-163.673 1768.22,-77.8969 1706.63,-38.8702"/>
<polygon fill="black" stroke="black" points="1708.41,-35.8593 1698.09,-33.4632 1704.67,-41.7721 1708.41,-35.8593"/>
</g>
<!-- types__h&#45;&gt;process__h -->
<g id="edge7" class="edge"><title>types__h&#45;&gt;process__h</title>
<path fill="none" stroke="black" d="M1996.91,-196.569C2040.13,-163.111 2147.35,-80.0966 2198.4,-40.5763"/>
<polygon fill="black" stroke="black" points="2200.62,-43.2858 2206.38,-34.3964 2196.33,-37.7507 2200.62,-43.2858"/>
</g>
<!-- vm_alloc__h -->
<g id="node9" class="node"><title>vm_alloc__h</title>
<ellipse fill="none" stroke="black" cx="2339.27" cy="-18" rx="50.5427" ry="18"/>
<text text-anchor="middle" x="2339.27" y="-14.3" font-family="Times,serif" font-size="14.00">vm_alloc.h</text>
</g>
<!-- types__h&#45;&gt;vm_alloc__h -->
<g id="edge15" class="edge"><title>types__h&#45;&gt;vm_alloc__h</title>
<path fill="none" stroke="black" d="M2002.23,-198.254C2064.15,-165.323 2229.73,-77.2588 2303.24,-38.1595"/>
<polygon fill="black" stroke="black" points="2304.97,-41.2054 2312.16,-33.4195 2301.68,-35.0252 2304.97,-41.2054"/>
</g>
<!-- elf__h -->
<g id="node12" class="node"><title>elf__h</title>
<ellipse fill="none" stroke="black" cx="1791.27" cy="-18" rx="27" ry="18"/>
<text text-anchor="middle" x="1791.27" y="-14.3" font-family="Times,serif" font-size="14.00">elf.h</text>
</g>
<!-- types__h&#45;&gt;elf__h -->
<g id="edge17" class="edge"><title>types__h&#45;&gt;elf__h</title>
<path fill="none" stroke="black" d="M1963.28,-195.612C1930.13,-161.575 1850.51,-79.8245 1812.35,-40.6476"/>
<polygon fill="black" stroke="black" points="1814.78,-38.1284 1805.3,-33.4066 1809.77,-43.0124 1814.78,-38.1284"/>
</g>
<!-- thread__h -->
<g id="node17" class="node"><title>thread__h</title>
<ellipse fill="none" stroke="black" cx="1876.27" cy="-18" rx="39.4691" ry="18"/>
<text text-anchor="middle" x="1876.27" y="-14.3" font-family="Times,serif" font-size="14.00">thread.h</text>
</g>
<!-- types__h&#45;&gt;thread__h -->
<g id="edge19" class="edge"><title>types__h&#45;&gt;thread__h</title>
<path fill="none" stroke="black" d="M1969.4,-194.297C1951.54,-160.681 1911.15,-84.6625 1889.91,-44.6814"/>
<polygon fill="black" stroke="black" points="1892.98,-42.9901 1885.19,-35.801 1886.79,-46.2742 1892.98,-42.9901"/>
</g>
<!-- util__h -->
<g id="node18" class="node"><title>util__h</title>
<ellipse fill="none" stroke="black" cx="1963.27" cy="-18" rx="29.3722" ry="18"/>
<text text-anchor="middle" x="1963.27" y="-14.3" font-family="Times,serif" font-size="14.00">util.h</text>
</g>
<!-- types__h&#45;&gt;util__h -->
<g id="edge20" class="edge"><title>types__h&#45;&gt;util__h</title>
<path fill="none" stroke="black" d="M1976.94,-193.961C1974.33,-160.586 1968.53,-86.3566 1965.39,-46.1452"/>
<polygon fill="black" stroke="black" points="1968.87,-45.6975 1964.6,-36.0005 1961.89,-46.2428 1968.87,-45.6975"/>
</g>
<!-- hal__thread__h -->
<g id="node21" class="node"><title>hal__thread__h</title>
<ellipse fill="none" stroke="black" cx="608.269" cy="-18" rx="52.4675" ry="18"/>
<text text-anchor="middle" x="608.269" y="-14.3" font-family="Times,serif" font-size="14.00">hal/thread.h</text>
</g>
<!-- types__h&#45;&gt;hal__thread__h -->
<g id="edge24" class="edge"><title>types__h&#45;&gt;hal__thread__h</title>
<path fill="none" stroke="black" d="M1945.65,-203.889C1930.13,-200.637 1911.29,-196.877 1894.27,-194 1423.01,-114.334 849.815,-46.5429 667.14,-25.6416"/>
<polygon fill="black" stroke="black" points="667.534,-22.1639 657.202,-24.5066 666.74,-29.1187 667.534,-22.1639"/>
</g>
<!-- ascii__h -->
<g id="node10" class="node"><title>ascii__h</title>
<ellipse fill="none" stroke="black" cx="939.269" cy="-1182" rx="33.1991" ry="18"/>
<text text-anchor="middle" x="939.269" y="-1178.3" font-family="Times,serif" font-size="14.00">ascii.h</text>
</g>
<!-- core__h -->
<g id="node11" class="node"><title>core__h</title>
<ellipse fill="none" stroke="black" cx="1032.27" cy="-1182" rx="32.2457" ry="18"/>
<text text-anchor="middle" x="1032.27" y="-1178.3" font-family="Times,serif" font-size="14.00">core.h</text>
</g>
<!-- kbd__h -->
<g id="node13" class="node"><title>kbd__h</title>
<ellipse fill="none" stroke="black" cx="1117.27" cy="-1182" rx="30.3206" ry="18"/>
<text text-anchor="middle" x="1117.27" y="-1178.3" font-family="Times,serif" font-size="14.00">kbd.h</text>
</g>
<!-- panic__h -->
<g id="node14" class="node"><title>panic__h</title>
<ellipse fill="none" stroke="black" cx="1204.27" cy="-1182" rx="36.096" ry="18"/>
<text text-anchor="middle" x="1204.27" y="-1178.3" font-family="Times,serif" font-size="14.00">panic.h</text>
</g>
<!-- printk__h -->
<g id="node15" class="node"><title>printk__h</title>
<ellipse fill="none" stroke="black" cx="1298.27" cy="-1182" rx="38.0212" ry="18"/>
<text text-anchor="middle" x="1298.27" y="-1178.3" font-family="Times,serif" font-size="14.00">printk.h</text>
</g>
<!-- slab__h -->
<g id="node16" class="node"><title>slab__h</title>
<ellipse fill="none" stroke="black" cx="526.269" cy="-600" rx="31.2735" ry="18"/>
<text text-anchor="middle" x="526.269" y="-596.3" font-family="Times,serif" font-size="14.00">slab.h</text>
</g>
<!-- hal__bootmem__h -->
<g id="node19" class="node"><title>hal__bootmem__h</title>
<ellipse fill="none" stroke="black" cx="1455.27" cy="-212" rx="64.4914" ry="18"/>
<text text-anchor="middle" x="1455.27" y="-208.3" font-family="Times,serif" font-size="14.00">hal/bootmem.h</text>
</g>
<!-- hal__hal__h -->
<g id="node20" class="node"><title>hal__hal__h</title>
<ellipse fill="none" stroke="black" cx="1397.27" cy="-1182" rx="41.394" ry="18"/>
<text text-anchor="middle" x="1397.27" y="-1178.3" font-family="Times,serif" font-size="14.00">hal/hal.h</text>
</g>
<!-- hal__vm_pae__h -->
<g id="node22" class="node"><title>hal__vm_pae__h</title>
<ellipse fill="none" stroke="black" cx="449.269" cy="-212" rx="59.2173" ry="18"/>
<text text-anchor="middle" x="449.269" y="-208.3" font-family="Times,serif" font-size="14.00">hal/vm_pae.h</text>
</g>
<!-- hal__vm_private__h -->
<g id="node39" class="node"><title>hal__vm_private__h</title>
<ellipse fill="none" stroke="black" cx="80.2685" cy="-18" rx="71.2405" ry="18"/>
<text text-anchor="middle" x="80.2685" y="-14.3" font-family="Times,serif" font-size="14.00">hal/vm_private.h</text>
</g>
<!-- hal__vm_pae__h&#45;&gt;hal__vm_private__h -->
<g id="edge50" class="edge"><title>hal__vm_pae__h&#45;&gt;hal__vm_private__h</title>
<path fill="none" stroke="black" d="M420.621,-196.094C354.935,-161.916 193.415,-77.873 118.98,-39.1425"/>
<polygon fill="black" stroke="black" points="120.408,-35.9401 109.921,-34.4291 117.177,-42.1498 120.408,-35.9401"/>
</g>
<!-- hal__descriptors__h -->
<g id="node23" class="node"><title>hal__descriptors__h</title>
<ellipse fill="none" stroke="black" cx="740.269" cy="-212" rx="69.3156" ry="18"/>
<text text-anchor="middle" x="740.269" y="-208.3" font-family="Times,serif" font-size="14.00">hal/descriptors.h</text>
</g>
<!-- hal__interrupt__h -->
<g id="node24" class="node"><title>hal__interrupt__h</title>
<ellipse fill="none" stroke="black" cx="201.269" cy="-212" rx="61.1419" ry="18"/>
<text text-anchor="middle" x="201.269" y="-208.3" font-family="Times,serif" font-size="14.00">hal/interrupt.h</text>
</g>
<!-- hal__io__h -->
<g id="node25" class="node"><title>hal__io__h</title>
<ellipse fill="none" stroke="black" cx="1494.27" cy="-1182" rx="37.5442" ry="18"/>
<text text-anchor="middle" x="1494.27" y="-1178.3" font-family="Times,serif" font-size="14.00">hal/io.h</text>
</g>
<!-- hal__pfaddr__h -->
<g id="node26" class="node"><title>hal__pfaddr__h</title>
<ellipse fill="none" stroke="black" cx="212.269" cy="-406" rx="53.4184" ry="18"/>
<text text-anchor="middle" x="212.269" y="-402.3" font-family="Times,serif" font-size="14.00">hal/pfaddr.h</text>
</g>
<!-- hal__vm__h -->
<g id="node29" class="node"><title>hal__vm__h</title>
<ellipse fill="none" stroke="black" cx="80.2685" cy="-212" rx="42.3701" ry="18"/>
<text text-anchor="middle" x="80.2685" y="-208.3" font-family="Times,serif" font-size="14.00">hal/vm.h</text>
</g>
<!-- hal__pfaddr__h&#45;&gt;hal__vm__h -->
<g id="edge35" class="edge"><title>hal__pfaddr__h&#45;&gt;hal__vm__h</title>
<path fill="none" stroke="black" d="M200.785,-388.297C177.518,-354.454 124.705,-277.636 97.3719,-237.878"/>
<polygon fill="black" stroke="black" points="100.181,-235.785 91.6312,-229.528 94.4124,-239.751 100.181,-235.785"/>
</g>
<!-- hal__startup__h -->
<g id="node27" class="node"><title>hal__startup__h</title>
<ellipse fill="none" stroke="black" cx="1604.27" cy="-1182" rx="54.3924" ry="18"/>
<text text-anchor="middle" x="1604.27" y="-1178.3" font-family="Times,serif" font-size="14.00">hal/startup.h</text>
</g>
<!-- hal__types__h -->
<g id="node28" class="node"><title>hal__types__h</title>
<ellipse fill="none" stroke="black" cx="1108.27" cy="-406" rx="49.0941" ry="18"/>
<text text-anchor="middle" x="1108.27" y="-402.3" font-family="Times,serif" font-size="14.00">hal/types.h</text>
</g>
<!-- hal__types__h&#45;&gt;syscall__h -->
<g id="edge9" class="edge"><title>hal__types__h&#45;&gt;syscall__h</title>
<path fill="none" stroke="black" d="M1144.91,-393.706C1253.51,-360.237 1573.25,-261.7 1688.9,-226.056"/>
<polygon fill="black" stroke="black" points="1689.96,-229.393 1698.49,-223.103 1687.9,-222.703 1689.96,-229.393"/>
</g>
<!-- hal__types__h&#45;&gt;types__h -->
<g id="edge14" class="edge"><title>hal__types__h&#45;&gt;types__h</title>
<path fill="none" stroke="black" d="M1149.35,-395.933C1295.23,-363.739 1787.45,-255.112 1935.68,-222.399"/>
<polygon fill="black" stroke="black" points="1936.74,-225.75 1945.75,-220.177 1935.23,-218.914 1936.74,-225.75"/>
</g>
<!-- hal__types__h&#45;&gt;hal__bootmem__h -->
<g id="edge21" class="edge"><title>hal__types__h&#45;&gt;hal__bootmem__h</title>
<path fill="none" stroke="black" d="M1134.35,-390.569C1195.44,-356.766 1347.95,-272.38 1418.46,-233.368"/>
<polygon fill="black" stroke="black" points="1420.39,-236.3 1427.44,-228.396 1417,-230.175 1420.39,-236.3"/>
</g>
<!-- hal__types__h&#45;&gt;hal__descriptors__h -->
<g id="edge26" class="edge"><title>hal__types__h&#45;&gt;hal__descriptors__h</title>
<path fill="none" stroke="black" d="M1081.21,-390.882C1016.66,-357.205 853.49,-272.072 778.741,-233.073"/>
<polygon fill="black" stroke="black" points="780.135,-229.852 769.65,-228.329 776.897,-236.058 780.135,-229.852"/>
</g>
<!-- hal__types__h&#45;&gt;hal__interrupt__h -->
<g id="edge28" class="edge"><title>hal__types__h&#45;&gt;hal__interrupt__h</title>
<path fill="none" stroke="black" d="M1071.57,-393.932C1064.21,-391.853 1056.52,-389.777 1049.27,-388 706.583,-303.976 615.654,-306.759 271.269,-230 266.359,-228.906 261.265,-227.736 256.164,-226.541"/>
<polygon fill="black" stroke="black" points="256.934,-223.126 246.396,-224.225 255.319,-229.938 256.934,-223.126"/>
</g>
<!-- hal__types__h&#45;&gt;hal__vm__h -->
<g id="edge36" class="edge"><title>hal__types__h&#45;&gt;hal__vm__h</title>
<path fill="none" stroke="black" d="M1071.92,-393.849C1064.47,-391.753 1056.65,-389.692 1049.27,-388 645.75,-295.436 532.794,-330.859 131.269,-230 127.908,-229.156 124.45,-228.199 120.992,-227.18"/>
<polygon fill="black" stroke="black" points="121.923,-223.804 111.335,-224.185 119.849,-230.49 121.923,-223.804"/>
</g>
<!-- hal__x86__h -->
<g id="node30" class="node"><title>hal__x86__h</title>
<ellipse fill="none" stroke="black" cx="608.269" cy="-212" rx="44.2946" ry="18"/>
<text text-anchor="middle" x="608.269" y="-208.3" font-family="Times,serif" font-size="14.00">hal/x86.h</text>
</g>
<!-- hal__types__h&#45;&gt;hal__x86__h -->
<g id="edge38" class="edge"><title>hal__types__h&#45;&gt;hal__x86__h</title>
<path fill="none" stroke="black" d="M1075.46,-392.402C987.243,-358.526 745.103,-265.544 648.67,-228.514"/>
<polygon fill="black" stroke="black" points="649.853,-225.219 639.263,-224.902 647.343,-231.754 649.853,-225.219"/>
</g>
<!-- hal__cpu__h -->
<g id="node31" class="node"><title>hal__cpu__h</title>
<ellipse fill="none" stroke="black" cx="986.269" cy="-212" rx="43.319" ry="18"/>
<text text-anchor="middle" x="986.269" y="-208.3" font-family="Times,serif" font-size="14.00">hal/cpu.h</text>
</g>
<!-- hal__types__h&#45;&gt;hal__cpu__h -->
<g id="edge39" class="edge"><title>hal__types__h&#45;&gt;hal__cpu__h</title>
<path fill="none" stroke="black" d="M1097.66,-388.297C1076.2,-354.525 1027.54,-277.958 1002.24,-238.129"/>
<polygon fill="black" stroke="black" points="1005.09,-236.091 996.77,-229.528 999.179,-239.845 1005.09,-236.091"/>
</g>
<!-- hal__e820__h -->
<g id="node32" class="node"><title>hal__e820__h</title>
<ellipse fill="none" stroke="black" cx="876.269" cy="-212" rx="48.1437" ry="18"/>
<text text-anchor="middle" x="876.269" y="-208.3" font-family="Times,serif" font-size="14.00">hal/e820.h</text>
</g>
<!-- hal__types__h&#45;&gt;hal__e820__h -->
<g id="edge41" class="edge"><title>hal__types__h&#45;&gt;hal__e820__h</title>
<path fill="none" stroke="black" d="M1089.28,-389.288C1048.14,-355.239 950.652,-274.559 903.178,-235.27"/>
<polygon fill="black" stroke="black" points="905.126,-232.339 895.191,-228.66 900.663,-237.732 905.126,-232.339"/>
</g>
<!-- hal__frame_pointer__h -->
<g id="node33" class="node"><title>hal__frame_pointer__h</title>
<ellipse fill="none" stroke="black" cx="1129.27" cy="-212" rx="81.3646" ry="18"/>
<text text-anchor="middle" x="1129.27" y="-208.3" font-family="Times,serif" font-size="14.00">hal/frame_pointer.h</text>
</g>
<!-- hal__types__h&#45;&gt;hal__frame_pointer__h -->
<g id="edge42" class="edge"><title>hal__types__h&#45;&gt;hal__frame_pointer__h</title>
<path fill="none" stroke="black" d="M1110.13,-387.961C1113.78,-354.586 1121.9,-280.357 1126.3,-240.145"/>
<polygon fill="black" stroke="black" points="1129.8,-240.322 1127.41,-230.001 1122.84,-239.561 1129.8,-240.322"/>
</g>
<!-- hal__boot__h -->
<g id="node35" class="node"><title>hal__boot__h</title>
<ellipse fill="none" stroke="black" cx="326.269" cy="-212" rx="46.2191" ry="18"/>
<text text-anchor="middle" x="326.269" y="-208.3" font-family="Times,serif" font-size="14.00">hal/boot.h</text>
</g>
<!-- hal__types__h&#45;&gt;hal__boot__h -->
<g id="edge44" class="edge"><title>hal__types__h&#45;&gt;hal__boot__h</title>
<path fill="none" stroke="black" d="M1071.21,-394.025C1063.95,-391.96 1056.38,-389.865 1049.27,-388 754.161,-310.632 675.618,-310.203 381.269,-230 377.734,-229.037 374.084,-228.001 370.424,-226.933"/>
<polygon fill="black" stroke="black" points="371.368,-223.562 360.785,-224.059 369.368,-230.271 371.368,-223.562"/>
</g>
<!-- hal__cpu_data__h -->
<g id="node36" class="node"><title>hal__cpu_data__h</title>
<ellipse fill="none" stroke="black" cx="1052.27" cy="-18" rx="62.0922" ry="18"/>
<text text-anchor="middle" x="1052.27" y="-14.3" font-family="Times,serif" font-size="14.00">hal/cpu_data.h</text>
</g>
<!-- hal__types__h&#45;&gt;hal__cpu_data__h -->
<g id="edge45" class="edge"><title>hal__types__h&#45;&gt;hal__cpu_data__h</title>
<path fill="none" stroke="black" d="M1143.23,-393.33C1220.8,-365.404 1396.39,-289.867 1342.27,-194 1291.85,-104.682 1175.51,-55.8371 1106.49,-33.7766"/>
<polygon fill="black" stroke="black" points="1107.25,-30.3479 1096.66,-30.7145 1105.16,-37.0309 1107.25,-30.3479"/>
</g>
<!-- hal__kernel__h -->
<g id="node37" class="node"><title>hal__kernel__h</title>
<ellipse fill="none" stroke="black" cx="1281.27" cy="-212" rx="52.4675" ry="18"/>
<text text-anchor="middle" x="1281.27" y="-208.3" font-family="Times,serif" font-size="14.00">hal/kernel.h</text>
</g>
<!-- hal__types__h&#45;&gt;hal__kernel__h -->
<g id="edge47" class="edge"><title>hal__types__h&#45;&gt;hal__kernel__h</title>
<path fill="none" stroke="black" d="M1123.02,-388.63C1153.6,-354.694 1224.01,-276.542 1259.7,-236.938"/>
<polygon fill="black" stroke="black" points="1262.46,-239.1 1266.56,-229.328 1257.26,-234.415 1262.46,-239.1"/>
</g>
<!-- hal__vm__h&#45;&gt;hal__vm_private__h -->
<g id="edge49" class="edge"><title>hal__vm__h&#45;&gt;hal__vm_private__h</title>
<path fill="none" stroke="black" d="M80.2685,-193.961C80.2685,-160.586 80.2685,-86.3566 80.2685,-46.1452"/>
<polygon fill="black" stroke="black" points="83.7686,-46.0005 80.2685,-36.0005 76.7686,-46.0006 83.7686,-46.0005"/>
</g>
<!-- hal__x86__h&#45;&gt;hal__thread__h -->
<g id="edge23" class="edge"><title>hal__x86__h&#45;&gt;hal__thread__h</title>
<path fill="none" stroke="black" d="M608.269,-193.961C608.269,-160.586 608.269,-86.3566 608.269,-46.1452"/>
<polygon fill="black" stroke="black" points="611.769,-46.0005 608.269,-36.0005 604.769,-46.0006 611.769,-46.0005"/>
</g>
<!-- hal__x86__h&#45;&gt;hal__cpu_data__h -->
<g id="edge46" class="edge"><title>hal__x86__h&#45;&gt;hal__cpu_data__h</title>
<path fill="none" stroke="black" d="M637.401,-198.402C713.812,-165.359 920.266,-76.082 1009.84,-37.3462"/>
<polygon fill="black" stroke="black" points="1011.37,-40.5001 1019.16,-33.3184 1008.59,-34.0751 1011.37,-40.5001"/>
</g>
<!-- hal__trap__h -->
<g id="node34" class="node"><title>hal__trap__h</title>
<ellipse fill="none" stroke="black" cx="1721.27" cy="-1182" rx="44.2946" ry="18"/>
<text text-anchor="middle" x="1721.27" y="-1178.3" font-family="Times,serif" font-size="14.00">hal/trap.h</text>
</g>
<!-- hal__vga__h -->
<g id="node38" class="node"><title>hal__vga__h</title>
<ellipse fill="none" stroke="black" cx="143.269" cy="-1182" rx="43.319" ry="18"/>
<text text-anchor="middle" x="143.269" y="-1178.3" font-family="Times,serif" font-size="14.00">hal/vga.h</text>
</g>
<!-- hal__vga__h&#45;&gt;console__h -->
<g id="edge2" class="edge"><title>hal__vga__h&#45;&gt;console__h</title>
<path fill="none" stroke="black" d="M145.753,-1163.96C150.621,-1130.59 161.446,-1056.36 167.31,-1016.15"/>
<polygon fill="black" stroke="black" points="170.809,-1016.4 168.789,-1006 163.883,-1015.39 170.809,-1016.4"/>
</g>
<!-- hal__asm__boot__h -->
<g id="node40" class="node"><title>hal__asm__boot__h</title>
<ellipse fill="none" stroke="black" cx="354.269" cy="-794" rx="63.5411" ry="18"/>
<text text-anchor="middle" x="354.269" y="-790.3" font-family="Times,serif" font-size="14.00">hal/asm/boot.h</text>
</g>
<!-- hal__asm__boot__h&#45;&gt;hal__boot__h -->
<g id="edge43" class="edge"><title>hal__asm__boot__h&#45;&gt;hal__boot__h</title>
<path fill="none" stroke="black" d="M360.816,-775.838C381.36,-719.629 441.262,-536.171 408.269,-388 395.67,-331.422 362.733,-271.51 342.644,-238.53"/>
<polygon fill="black" stroke="black" points="345.584,-236.63 337.347,-229.967 339.631,-240.313 345.584,-236.63"/>
</g>
<!-- hal__asm__descriptors__h -->
<g id="node41" class="node"><title>hal__asm__descriptors__h</title>
<ellipse fill="none" stroke="black" cx="711.269" cy="-600" rx="86.1637" ry="18"/>
<text text-anchor="middle" x="711.269" y="-596.3" font-family="Times,serif" font-size="14.00">hal/asm/descriptors.h</text>
</g>
<!-- hal__asm__descriptors__h&#45;&gt;hal__descriptors__h -->
<g id="edge25" class="edge"><title>hal__asm__descriptors__h&#45;&gt;hal__descriptors__h</title>
<path fill="none" stroke="black" d="M712.552,-581.916C717.118,-521.145 732.598,-315.103 738.213,-240.366"/>
<polygon fill="black" stroke="black" points="741.708,-240.559 738.967,-230.325 734.727,-240.034 741.708,-240.559"/>
</g>
<!-- hal__asm__descriptors__h&#45;&gt;hal__types__h -->
<g id="edge32" class="edge"><title>hal__asm__descriptors__h&#45;&gt;hal__types__h</title>
<path fill="none" stroke="black" d="M743.757,-583.288C816.569,-548.074 992.513,-462.982 1070.25,-425.386"/>
<polygon fill="black" stroke="black" points="1072.19,-428.335 1079.67,-420.83 1069.15,-422.033 1072.19,-428.335"/>
</g>
<!-- hal__asm__e820__h -->
<g id="node42" class="node"><title>hal__asm__e820__h</title>
<ellipse fill="none" stroke="black" cx="865.269" cy="-406" rx="64.4914" ry="18"/>
<text text-anchor="middle" x="865.269" y="-402.3" font-family="Times,serif" font-size="14.00">hal/asm/e820.h</text>
</g>
<!-- hal__asm__e820__h&#45;&gt;hal__e820__h -->
<g id="edge40" class="edge"><title>hal__asm__e820__h&#45;&gt;hal__e820__h</title>
<path fill="none" stroke="black" d="M866.245,-387.961C868.157,-354.586 872.41,-280.357 874.713,-240.145"/>
<polygon fill="black" stroke="black" points="878.217,-240.184 875.295,-230.001 871.228,-239.784 878.217,-240.184"/>
</g>
<!-- hal__asm__irq__h -->
<g id="node43" class="node"><title>hal__asm__irq__h</title>
<ellipse fill="none" stroke="black" cx="342.269" cy="-406" rx="57.2688" ry="18"/>
<text text-anchor="middle" x="342.269" y="-402.3" font-family="Times,serif" font-size="14.00">hal/asm/irq.h</text>
</g>
<!-- hal__asm__irq__h&#45;&gt;hal__interrupt__h -->
<g id="edge27" class="edge"><title>hal__asm__irq__h&#45;&gt;hal__interrupt__h</title>
<path fill="none" stroke="black" d="M330.002,-388.297C305.159,-354.468 248.782,-277.699 219.574,-237.927"/>
<polygon fill="black" stroke="black" points="222.347,-235.789 213.607,-229.801 216.705,-239.933 222.347,-235.789"/>
</g>
<!-- hal__asm__thread__h -->
<g id="node44" class="node"><title>hal__asm__thread__h</title>
<ellipse fill="none" stroke="black" cx="704.269" cy="-794" rx="69.3156" ry="18"/>
<text text-anchor="middle" x="704.269" y="-790.3" font-family="Times,serif" font-size="14.00">hal/asm/thread.h</text>
</g>
<!-- hal__asm__thread__h&#45;&gt;hal__thread__h -->
<g id="edge22" class="edge"><title>hal__asm__thread__h&#45;&gt;hal__thread__h</title>
<path fill="none" stroke="black" d="M693.381,-775.888C674.527,-745.415 635.933,-679.191 616.269,-618 562.861,-451.808 568.865,-404.032 555.269,-230 554.022,-214.049 552.924,-209.827 555.269,-194 563.277,-139.929 584.489,-79.4252 597.521,-45.6036"/>
<polygon fill="black" stroke="black" points="600.894,-46.5884 601.279,-36.0005 594.375,-44.0375 600.894,-46.5884"/>
</g>
<!-- hal__asm__vm__h -->
<g id="node45" class="node"><title>hal__asm__vm__h</title>
<ellipse fill="none" stroke="black" cx="80.2685" cy="-406" rx="59.1941" ry="18"/>
<text text-anchor="middle" x="80.2685" y="-402.3" font-family="Times,serif" font-size="14.00">hal/asm/vm.h</text>
</g>
<!-- hal__asm__vm__h&#45;&gt;hal__vm__h -->
<g id="edge33" class="edge"><title>hal__asm__vm__h&#45;&gt;hal__vm__h</title>
<path fill="none" stroke="black" d="M80.2685,-387.961C80.2685,-354.586 80.2685,-280.357 80.2685,-240.145"/>
<polygon fill="black" stroke="black" points="83.7686,-240 80.2685,-230.001 76.7686,-240.001 83.7686,-240"/>
</g>
<!-- hal__asm__x86__h -->
<g id="node46" class="node"><title>hal__asm__x86__h</title>
<ellipse fill="none" stroke="black" cx="229.269" cy="-600" rx="61.1419" ry="18"/>
<text text-anchor="middle" x="229.269" y="-596.3" font-family="Times,serif" font-size="14.00">hal/asm/x86.h</text>
</g>
<!-- hal__asm__x86__h&#45;&gt;hal__x86__h -->
<g id="edge37" class="edge"><title>hal__asm__x86__h&#45;&gt;hal__x86__h</title>
<path fill="none" stroke="black" d="M246.511,-582.565C278.68,-551.809 349.875,-483.303 408.269,-424 474.061,-357.183 549.694,-276.219 586.233,-236.832"/>
<polygon fill="black" stroke="black" points="589.189,-238.792 593.419,-229.079 584.055,-234.034 589.189,-238.792"/>
</g>
<!-- hal__asm__x86__h&#45;&gt;hal__asm__vm__h -->
<g id="edge53" class="edge"><title>hal__asm__x86__h&#45;&gt;hal__asm__vm__h</title>
<path fill="none" stroke="black" d="M216.306,-582.297C190.053,-548.468 130.477,-471.699 99.6126,-431.927"/>
<polygon fill="black" stroke="black" points="102.203,-429.555 93.3068,-423.801 96.6726,-433.847 102.203,-429.555"/>
</g>
<!-- jinue__console__h -->
<g id="node47" class="node"><title>jinue__console__h</title>
<polygon fill="none" stroke="black" points="360.519,-1006 262.019,-1006 262.019,-970 360.519,-970 360.519,-1006"/>
<text text-anchor="middle" x="311.269" y="-984.3" font-family="Times,serif" font-size="14.00">jinue/console.h</text>
</g>
<!-- jinue__elf__h -->
<g id="node48" class="node"><title>jinue__elf__h</title>
<polygon fill="none" stroke="black" points="1780.27,-424 1708.27,-424 1708.27,-388 1780.27,-388 1780.27,-424"/>
<text text-anchor="middle" x="1744.27" y="-402.3" font-family="Times,serif" font-size="14.00">jinue/elf.h</text>
</g>
<!-- jinue__errno__h -->
<g id="node49" class="node"><title>jinue__errno__h</title>
<polygon fill="none" stroke="black" points="1925.27,-1006 1839.27,-1006 1839.27,-970 1925.27,-970 1925.27,-1006"/>
<text text-anchor="middle" x="1882.27" y="-984.3" font-family="Times,serif" font-size="14.00">jinue/errno.h</text>
</g>
<!-- jinue__ipc__h -->
<g id="node50" class="node"><title>jinue__ipc__h</title>
<polygon fill="none" stroke="black" points="2133.27,-230 2059.27,-230 2059.27,-194 2133.27,-194 2133.27,-230"/>
<text text-anchor="middle" x="2096.27" y="-208.3" font-family="Times,serif" font-size="14.00">jinue/ipc.h</text>
</g>
<!-- jinue__list__h -->
<g id="node51" class="node"><title>jinue__list__h</title>
<polygon fill="none" stroke="black" points="2331.27,-230 2257.27,-230 2257.27,-194 2331.27,-194 2331.27,-230"/>
<text text-anchor="middle" x="2294.27" y="-208.3" font-family="Times,serif" font-size="14.00">jinue/list.h</text>
</g>
<!-- jinue__pfaddr__h -->
<g id="node52" class="node"><title>jinue__pfaddr__h</title>
<polygon fill="none" stroke="black" points="1040.52,-424 948.019,-424 948.019,-388 1040.52,-388 1040.52,-424"/>
<text text-anchor="middle" x="994.269" y="-402.3" font-family="Times,serif" font-size="14.00">jinue/pfaddr.h</text>
</g>
<!-- jinue__pfalloc__h -->
<g id="node53" class="node"><title>jinue__pfalloc__h</title>
<polygon fill="none" stroke="black" points="1632.52,-230 1538.02,-230 1538.02,-194 1632.52,-194 1632.52,-230"/>
<text text-anchor="middle" x="1585.27" y="-208.3" font-family="Times,serif" font-size="14.00">jinue/pfalloc.h</text>
</g>
<!-- jinue__syscall__h -->
<g id="node54" class="node"><title>jinue__syscall__h</title>
<polygon fill="none" stroke="black" points="1885.52,-230 1791.02,-230 1791.02,-194 1885.52,-194 1885.52,-230"/>
<text text-anchor="middle" x="1838.27" y="-208.3" font-family="Times,serif" font-size="14.00">jinue/syscall.h</text>
</g>
<!-- jinue__types__h -->
<g id="node55" class="node"><title>jinue__types__h</title>
<polygon fill="none" stroke="black" points="1688.27,-812 1602.27,-812 1602.27,-776 1688.27,-776 1688.27,-812"/>
<text text-anchor="middle" x="1645.27" y="-790.3" font-family="Times,serif" font-size="14.00">jinue/types.h</text>
</g>
<!-- jinue__vm__h -->
<g id="node56" class="node"><title>jinue__vm__h</title>
<polygon fill="none" stroke="black" points="891.269,-618 815.269,-618 815.269,-582 891.269,-582 891.269,-618"/>
<text text-anchor="middle" x="853.269" y="-596.3" font-family="Times,serif" font-size="14.00">jinue/vm.h</text>
</g>
<!-- jinue__common__console__h -->
<g id="node57" class="node"><title>jinue__common__console__h</title>
<polygon fill="none" stroke="black" points="417.665,-1174.54 417.665,-1189.46 355.339,-1200 267.198,-1200 204.872,-1189.46 204.872,-1174.54 267.198,-1164 355.339,-1164 417.665,-1174.54"/>
<text text-anchor="middle" x="311.269" y="-1178.3" font-family="Times,serif" font-size="14.00">jinue&#45;common/console.h</text>
</g>
<!-- jinue__common__console__h&#45;&gt;console__h -->
<g id="edge1" class="edge"><title>jinue__common__console__h&#45;&gt;console__h</title>
<path fill="none" stroke="black" d="M298.844,-1163.96C274.021,-1129.92 218.202,-1053.37 189.33,-1013.77"/>
<polygon fill="black" stroke="black" points="191.986,-1011.47 183.266,-1005.45 186.33,-1015.6 191.986,-1011.47"/>
</g>
<!-- jinue__common__console__h&#45;&gt;jinue__console__h -->
<g id="edge54" class="edge"><title>jinue__common__console__h&#45;&gt;jinue__console__h</title>
<path fill="none" stroke="black" d="M311.269,-1163.96C311.269,-1130.59 311.269,-1056.36 311.269,-1016.15"/>
<polygon fill="black" stroke="black" points="314.769,-1016 311.269,-1006 307.769,-1016 314.769,-1016"/>
</g>
<!-- jinue__common__elf__h -->
<g id="node58" class="node"><title>jinue__common__elf__h</title>
<polygon fill="none" stroke="black" points="1723.67,-592.544 1723.67,-607.456 1672.47,-618 1600.06,-618 1548.86,-607.456 1548.86,-592.544 1600.06,-582 1672.47,-582 1723.67,-592.544"/>
<text text-anchor="middle" x="1636.27" y="-596.3" font-family="Times,serif" font-size="14.00">jinue&#45;common/elf.h</text>
</g>
<!-- jinue__common__elf__h&#45;&gt;elf__h -->
<g id="edge16" class="edge"><title>jinue__common__elf__h&#45;&gt;elf__h</title>
<path fill="none" stroke="black" d="M1655.49,-581.921C1708.28,-533.4 1854.26,-387.993 1894.27,-230 1913.05,-155.847 1848.95,-77.0318 1813.39,-40.2326"/>
<polygon fill="black" stroke="black" points="1815.79,-37.6856 1806.27,-33.0345 1810.82,-42.6068 1815.79,-37.6856"/>
</g>
<!-- jinue__common__elf__h&#45;&gt;hal__types__h -->
<g id="edge30" class="edge"><title>jinue__common__elf__h&#45;&gt;hal__types__h</title>
<path fill="none" stroke="black" d="M1593.06,-583.288C1493.79,-547.188 1250.36,-458.668 1151.28,-422.639"/>
<polygon fill="black" stroke="black" points="1152.46,-419.347 1141.87,-419.218 1150.07,-425.925 1152.46,-419.347"/>
</g>
<!-- jinue__common__elf__h&#45;&gt;jinue__elf__h -->
<g id="edge55" class="edge"><title>jinue__common__elf__h&#45;&gt;jinue__elf__h</title>
<path fill="none" stroke="black" d="M1645.85,-581.961C1664.83,-548.23 1707.27,-472.769 1729.72,-432.871"/>
<polygon fill="black" stroke="black" points="1732.85,-434.432 1734.71,-424.001 1726.75,-431 1732.85,-434.432"/>
</g>
<!-- jinue__common__errno__h -->
<g id="node59" class="node"><title>jinue__common__errno__h</title>
<polygon fill="none" stroke="black" points="1980.5,-1174.54 1980.5,-1189.46 1922.96,-1200 1841.58,-1200 1784.04,-1189.46 1784.04,-1174.54 1841.58,-1164 1922.96,-1164 1980.5,-1174.54"/>
<text text-anchor="middle" x="1882.27" y="-1178.3" font-family="Times,serif" font-size="14.00">jinue&#45;common/errno.h</text>
</g>
<!-- jinue__common__errno__h&#45;&gt;jinue__errno__h -->
<g id="edge56" class="edge"><title>jinue__common__errno__h&#45;&gt;jinue__errno__h</title>
<path fill="none" stroke="black" d="M1882.27,-1163.96C1882.27,-1130.59 1882.27,-1056.36 1882.27,-1016.15"/>
<polygon fill="black" stroke="black" points="1885.77,-1016 1882.27,-1006 1878.77,-1016 1885.77,-1016"/>
</g>
<!-- jinue__common__ipc__h -->
<g id="node60" class="node"><title>jinue__common__ipc__h</title>
<polygon fill="none" stroke="black" points="2186.34,-398.544 2186.34,-413.456 2133.58,-424 2058.96,-424 2006.2,-413.456 2006.2,-398.544 2058.96,-388 2133.58,-388 2186.34,-398.544"/>
<text text-anchor="middle" x="2096.27" y="-402.3" font-family="Times,serif" font-size="14.00">jinue&#45;common/ipc.h</text>
</g>
<!-- jinue__common__ipc__h&#45;&gt;types__h -->
<g id="edge10" class="edge"><title>jinue__common__ipc__h&#45;&gt;types__h</title>
<path fill="none" stroke="black" d="M2085.8,-387.961C2064.92,-353.989 2018.02,-277.687 1993.65,-238.02"/>
<polygon fill="black" stroke="black" points="1996.6,-236.141 1988.38,-229.454 1990.64,-239.806 1996.6,-236.141"/>
</g>
<!-- jinue__common__ipc__h&#45;&gt;jinue__ipc__h -->
<g id="edge57" class="edge"><title>jinue__common__ipc__h&#45;&gt;jinue__ipc__h</title>
<path fill="none" stroke="black" d="M2096.27,-387.961C2096.27,-354.586 2096.27,-280.357 2096.27,-240.145"/>
<polygon fill="black" stroke="black" points="2099.77,-240 2096.27,-230.001 2092.77,-240.001 2099.77,-240"/>
</g>
<!-- jinue__common__list__h -->
<g id="node61" class="node"><title>jinue__common__list__h</title>
<polygon fill="none" stroke="black" points="2384.34,-398.544 2384.34,-413.456 2331.58,-424 2256.96,-424 2204.2,-413.456 2204.2,-398.544 2256.96,-388 2331.58,-388 2384.34,-398.544"/>
<text text-anchor="middle" x="2294.27" y="-402.3" font-family="Times,serif" font-size="14.00">jinue&#45;common/list.h</text>
</g>
<!-- jinue__common__list__h&#45;&gt;types__h -->
<g id="edge11" class="edge"><title>jinue__common__list__h&#45;&gt;types__h</title>
<path fill="none" stroke="black" d="M2266.23,-387.961C2207.18,-352.083 2070.42,-268.993 2009.05,-231.704"/>
<polygon fill="black" stroke="black" points="2010.58,-228.537 2000.22,-226.336 2006.95,-234.519 2010.58,-228.537"/>
</g>
<!-- jinue__common__list__h&#45;&gt;jinue__list__h -->
<g id="edge58" class="edge"><title>jinue__common__list__h&#45;&gt;jinue__list__h</title>
<path fill="none" stroke="black" d="M2294.27,-387.961C2294.27,-354.586 2294.27,-280.357 2294.27,-240.145"/>
<polygon fill="black" stroke="black" points="2297.77,-240 2294.27,-230.001 2290.77,-240.001 2297.77,-240"/>
</g>
<!-- jinue__common__pfaddr__h -->
<g id="node62" class="node"><title>jinue__common__pfaddr__h</title>
<polygon fill="none" stroke="black" points="1114.83,-592.544 1114.83,-607.456 1054.75,-618 969.785,-618 909.704,-607.456 909.704,-592.544 969.785,-582 1054.75,-582 1114.83,-592.544"/>
<text text-anchor="middle" x="1012.27" y="-596.3" font-family="Times,serif" font-size="14.00">jinue&#45;common/pfaddr.h</text>
</g>
<!-- jinue__common__pfaddr__h&#45;&gt;hal__pfaddr__h -->
<g id="edge29" class="edge"><title>jinue__common__pfaddr__h&#45;&gt;hal__pfaddr__h</title>
<path fill="none" stroke="black" d="M950.966,-585.108C824.401,-556.281 525.118,-487.358 275.269,-424 270.952,-422.905 266.475,-421.746 261.989,-420.568"/>
<polygon fill="black" stroke="black" points="262.777,-417.155 252.213,-417.975 260.982,-423.922 262.777,-417.155"/>
</g>
<!-- jinue__common__pfaddr__h&#45;&gt;hal__types__h -->
<g id="edge31" class="edge"><title>jinue__common__pfaddr__h&#45;&gt;hal__types__h</title>
<path fill="none" stroke="black" d="M1020.79,-581.961C1037.62,-548.301 1075.22,-473.087 1095.21,-433.124"/>
<polygon fill="black" stroke="black" points="1098.43,-434.51 1099.77,-424.001 1092.17,-431.38 1098.43,-434.51"/>
</g>
<!-- jinue__common__pfaddr__h&#45;&gt;jinue__pfaddr__h -->
<g id="edge59" class="edge"><title>jinue__common__pfaddr__h&#45;&gt;jinue__pfaddr__h</title>
<path fill="none" stroke="black" d="M1010.67,-581.961C1007.54,-548.586 1000.58,-474.357 996.813,-434.145"/>
<polygon fill="black" stroke="black" points="1000.28,-433.63 995.862,-424.001 993.311,-434.284 1000.28,-433.63"/>
</g>
<!-- jinue__common__pfalloc__h -->
<g id="node63" class="node"><title>jinue__common__pfalloc__h</title>
<polygon fill="none" stroke="black" points="1689.5,-398.544 1689.5,-413.456 1628.44,-424 1542.09,-424 1481.04,-413.456 1481.04,-398.544 1542.09,-388 1628.44,-388 1689.5,-398.544"/>
<text text-anchor="middle" x="1585.27" y="-402.3" font-family="Times,serif" font-size="14.00">jinue&#45;common/pfalloc.h</text>
</g>
<!-- jinue__common__pfaddr__h&#45;&gt;jinue__common__pfalloc__h -->
<g id="edge68" class="edge"><title>jinue__common__pfaddr__h&#45;&gt;jinue__common__pfalloc__h</title>
<path fill="none" stroke="black" d="M1060.63,-582.796C1165.63,-547.613 1414.1,-464.354 1527.29,-426.427"/>
<polygon fill="black" stroke="black" points="1528.47,-429.725 1536.84,-423.229 1526.24,-423.087 1528.47,-429.725"/>
</g>
<!-- jinue__common__pfalloc__h&#45;&gt;pfalloc__h -->
<g id="edge5" class="edge"><title>jinue__common__pfalloc__h&#45;&gt;pfalloc__h</title>
<path fill="none" stroke="black" d="M1591.7,-387.856C1603.15,-356.792 1627.17,-288.947 1641.27,-230 1656.84,-164.879 1667.35,-86.7228 1672.2,-46.2661"/>
<polygon fill="black" stroke="black" points="1675.7,-46.4681 1673.39,-36.1282 1668.75,-45.6518 1675.7,-46.4681"/>
</g>
<!-- jinue__common__pfalloc__h&#45;&gt;jinue__pfalloc__h -->
<g id="edge60" class="edge"><title>jinue__common__pfalloc__h&#45;&gt;jinue__pfalloc__h</title>
<path fill="none" stroke="black" d="M1585.27,-387.961C1585.27,-354.586 1585.27,-280.357 1585.27,-240.145"/>
<polygon fill="black" stroke="black" points="1588.77,-240 1585.27,-230.001 1581.77,-240.001 1588.77,-240"/>
</g>
<!-- jinue__common__pfalloc__h&#45;&gt;jinue__syscall__h -->
<g id="edge61" class="edge"><title>jinue__common__pfalloc__h&#45;&gt;jinue__syscall__h</title>
<path fill="none" stroke="black" d="M1607.72,-387.961C1653.2,-353.447 1756.25,-275.244 1807.76,-236.152"/>
<polygon fill="black" stroke="black" points="1810.02,-238.834 1815.87,-230.001 1805.79,-233.258 1810.02,-238.834"/>
</g>
<!-- jinue__common__syscall__h -->
<g id="node64" class="node"><title>jinue__common__syscall__h</title>
<polygon fill="none" stroke="black" points="1950.44,-592.544 1950.44,-607.456 1889.42,-618 1803.12,-618 1742.09,-607.456 1742.09,-592.544 1803.12,-582 1889.42,-582 1950.44,-592.544"/>
<text text-anchor="middle" x="1846.27" y="-596.3" font-family="Times,serif" font-size="14.00">jinue&#45;common/syscall.h</text>
</g>
<!-- jinue__common__syscall__h&#45;&gt;syscall__h -->
<g id="edge8" class="edge"><title>jinue__common__syscall__h&#45;&gt;syscall__h</title>
<path fill="none" stroke="black" d="M1842.01,-581.951C1832.94,-545.948 1810.78,-459.589 1789.27,-388 1773.41,-335.22 1752.64,-274.27 1740.75,-240.019"/>
<polygon fill="black" stroke="black" points="1743.95,-238.576 1737.36,-230.284 1737.34,-240.879 1743.95,-238.576"/>
</g>
<!-- jinue__common__syscall__h&#45;&gt;types__h -->
<g id="edge12" class="edge"><title>jinue__common__syscall__h&#45;&gt;types__h</title>
<path fill="none" stroke="black" d="M1852.11,-581.916C1872.98,-520.881 1943.97,-313.311 1969.24,-239.4"/>
<polygon fill="black" stroke="black" points="1972.57,-240.481 1972.49,-229.887 1965.95,-238.216 1972.57,-240.481"/>
</g>
<!-- jinue__common__syscall__h&#45;&gt;jinue__syscall__h -->
<g id="edge62" class="edge"><title>jinue__common__syscall__h&#45;&gt;jinue__syscall__h</title>
<path fill="none" stroke="black" d="M1848.92,-581.772C1854.12,-545.784 1864.78,-459.999 1860.27,-388 1856.99,-335.604 1848.23,-274.899 1842.81,-240.514"/>
<polygon fill="black" stroke="black" points="1846.21,-239.64 1841.18,-230.319 1839.3,-240.747 1846.21,-239.64"/>
</g>
<!-- jinue__common__syscall__h&#45;&gt;jinue__common__ipc__h -->
<g id="edge66" class="edge"><title>jinue__common__syscall__h&#45;&gt;jinue__common__ipc__h</title>
<path fill="none" stroke="black" d="M1868.45,-581.961C1913.39,-547.447 2015.22,-469.244 2066.12,-430.152"/>
<polygon fill="black" stroke="black" points="2068.33,-432.867 2074.13,-424.001 2064.07,-427.316 2068.33,-432.867"/>
</g>
<!-- jinue__common__types__h -->
<g id="node65" class="node"><title>jinue__common__types__h</title>
<polygon fill="none" stroke="black" points="1743.5,-980.544 1743.5,-995.456 1685.96,-1006 1604.58,-1006 1547.04,-995.456 1547.04,-980.544 1604.58,-970 1685.96,-970 1743.5,-980.544"/>
<text text-anchor="middle" x="1645.27" y="-984.3" font-family="Times,serif" font-size="14.00">jinue&#45;common/types.h</text>
</g>
<!-- jinue__common__types__h&#45;&gt;types__h -->
<g id="edge13" class="edge"><title>jinue__common__types__h&#45;&gt;types__h</title>
<path fill="none" stroke="black" d="M1703.89,-973.184C1778.02,-952.26 1902.78,-904.745 1959.27,-812 2018.66,-714.481 1990.18,-343.88 1980.84,-240.135"/>
<polygon fill="black" stroke="black" points="1984.33,-239.786 1979.93,-230.147 1977.36,-240.425 1984.33,-239.786"/>
</g>
<!-- jinue__common__types__h&#45;&gt;jinue__types__h -->
<g id="edge63" class="edge"><title>jinue__common__types__h&#45;&gt;jinue__types__h</title>
<path fill="none" stroke="black" d="M1645.27,-969.961C1645.27,-936.586 1645.27,-862.357 1645.27,-822.145"/>
<polygon fill="black" stroke="black" points="1648.77,-822 1645.27,-812.001 1641.77,-822.001 1648.77,-822"/>
</g>
<!-- jinue__common__vm__h -->
<g id="node66" class="node"><title>jinue__common__vm__h</title>
<polygon fill="none" stroke="black" points="616.396,-786.544 616.396,-801.456 563.601,-812 488.936,-812 436.141,-801.456 436.141,-786.544 488.936,-776 563.601,-776 616.396,-786.544"/>
<text text-anchor="middle" x="526.269" y="-790.3" font-family="Times,serif" font-size="14.00">jinue&#45;common/vm.h</text>
</g>
<!-- jinue__common__vm__h&#45;&gt;slab__h -->
<g id="edge18" class="edge"><title>jinue__common__vm__h&#45;&gt;slab__h</title>
<path fill="none" stroke="black" d="M526.269,-775.961C526.269,-742.586 526.269,-668.357 526.269,-628.145"/>
<polygon fill="black" stroke="black" points="529.769,-628 526.269,-618.001 522.769,-628.001 529.769,-628"/>
</g>
<!-- jinue__common__vm__h&#45;&gt;hal__vm__h -->
<g id="edge34" class="edge"><title>jinue__common__vm__h&#45;&gt;hal__vm__h</title>
<path fill="none" stroke="black" d="M477.919,-778.189C403.602,-753.716 259.411,-699.317 159.269,-618 75.0804,-549.638 45.9842,-526.741 11.2685,-424 -11.4993,-356.618 34.4144,-276.736 61.82,-237.392"/>
<polygon fill="black" stroke="black" points="64.7187,-239.355 67.6828,-229.183 59.0224,-235.286 64.7187,-239.355"/>
</g>
<!-- jinue__common__vm__h&#45;&gt;hal__vm_private__h -->
<g id="edge48" class="edge"><title>jinue__common__vm__h&#45;&gt;hal__vm_private__h</title>
<path fill="none" stroke="black" d="M466.591,-780.398C380.153,-759.56 219.023,-710.703 114.269,-618 -29.6594,-490.63 -10.9711,-381.934 29.2685,-194 40.6771,-140.718 59.8112,-79.9413 71.117,-45.8571"/>
<polygon fill="black" stroke="black" points="74.5029,-46.7678 74.3572,-36.174 67.8647,-44.5465 74.5029,-46.7678"/>
</g>
<!-- jinue__common__vm__h&#45;&gt;jinue__vm__h -->
<g id="edge64" class="edge"><title>jinue__common__vm__h&#45;&gt;jinue__vm__h</title>
<path fill="none" stroke="black" d="M555.288,-775.961C614.554,-741.163 749.461,-661.951 815.472,-623.192"/>
<polygon fill="black" stroke="black" points="817.463,-626.082 824.314,-618.001 813.919,-620.046 817.463,-626.082"/>
</g>
<!-- jinue__common__vm__h&#45;&gt;jinue__common__pfaddr__h -->
<g id="edge67" class="edge"><title>jinue__common__vm__h&#45;&gt;jinue__common__pfaddr__h</title>
<path fill="none" stroke="black" d="M567.705,-776.63C656.009,-741.744 862.586,-660.134 959.857,-621.706"/>
<polygon fill="black" stroke="black" points="961.188,-624.943 969.203,-618.014 958.616,-618.433 961.188,-624.943"/>
</g>
<!-- jinue__common__asm__ipc__h -->
<g id="node67" class="node"><title>jinue__common__asm__ipc__h</title>
<polygon fill="none" stroke="black" points="2222.28,-592.544 2222.28,-607.456 2159.01,-618 2069.53,-618 2006.26,-607.456 2006.26,-592.544 2069.53,-582 2159.01,-582 2222.28,-592.544"/>
<text text-anchor="middle" x="2114.27" y="-596.3" font-family="Times,serif" font-size="14.00">jinue&#45;common/asm/ipc.h</text>
</g>
<!-- jinue__common__asm__ipc__h&#45;&gt;jinue__common__ipc__h -->
<g id="edge65" class="edge"><title>jinue__common__asm__ipc__h&#45;&gt;jinue__common__ipc__h</title>
<path fill="none" stroke="black" d="M2112.67,-581.961C2109.54,-548.586 2102.58,-474.357 2098.81,-434.145"/>
<polygon fill="black" stroke="black" points="2102.28,-433.63 2097.86,-424.001 2095.31,-434.284 2102.28,-433.63"/>
</g>
<!-- jinue__common__asm__syscall__h -->
<g id="node68" class="node"><title>jinue__common__asm__syscall__h</title>
<polygon fill="none" stroke="black" points="1950.38,-786.544 1950.38,-801.456 1878.85,-812 1777.69,-812 1706.16,-801.456 1706.16,-786.544 1777.69,-776 1878.85,-776 1950.38,-786.544"/>
<text text-anchor="middle" x="1828.27" y="-790.3" font-family="Times,serif" font-size="14.00">jinue&#45;common/asm/syscall.h</text>
</g>
<!-- jinue__common__asm__syscall__h&#45;&gt;jinue__common__syscall__h -->
<g id="edge69" class="edge"><title>jinue__common__asm__syscall__h&#45;&gt;jinue__common__syscall__h</title>
<path fill="none" stroke="black" d="M1829.87,-775.961C1832.99,-742.586 1839.95,-668.357 1843.72,-628.145"/>
<polygon fill="black" stroke="black" points="1847.23,-628.284 1844.67,-618.001 1840.26,-627.63 1847.23,-628.284"/>
</g>
<!-- jinue__common__asm__types__h -->
<g id="node69" class="node"><title>jinue__common__asm__types__h</title>
<polygon fill="none" stroke="black" points="869.439,-1174.54 869.439,-1189.46 801.388,-1200 705.149,-1200 637.098,-1189.46 637.098,-1174.54 705.149,-1164 801.388,-1164 869.439,-1174.54"/>
<text text-anchor="middle" x="753.269" y="-1178.3" font-family="Times,serif" font-size="14.00">jinue&#45;common/asm/types.h</text>
</g>
<!-- jinue__common__asm__types__h&#45;&gt;jinue__common__types__h -->
<g id="edge70" class="edge"><title>jinue__common__asm__types__h&#45;&gt;jinue__common__types__h</title>
<path fill="none" stroke="black" d="M819.585,-1166.73C983.196,-1131.51 1405.03,-1040.71 1573.86,-1004.37"/>
<polygon fill="black" stroke="black" points="1574.85,-1007.74 1583.89,-1002.21 1573.37,-1000.9 1574.85,-1007.74"/>
</g>
<!-- jinue__common__asm__vm__h -->
<g id="node70" class="node"><title>jinue__common__asm__vm__h</title>
<polygon fill="none" stroke="black" points="636.331,-980.544 636.331,-995.456 572.443,-1006 482.094,-1006 418.207,-995.456 418.207,-980.544 482.094,-970 572.443,-970 636.331,-980.544"/>
<text text-anchor="middle" x="527.269" y="-984.3" font-family="Times,serif" font-size="14.00">jinue&#45;common/asm/vm.h</text>
</g>
<!-- jinue__common__asm__types__h&#45;&gt;jinue__common__asm__vm__h -->
<g id="edge72" class="edge"><title>jinue__common__asm__types__h&#45;&gt;jinue__common__asm__vm__h</title>
<path fill="none" stroke="black" d="M733.213,-1163.96C692.754,-1129.59 601.294,-1051.89 555.091,-1012.64"/>
<polygon fill="black" stroke="black" points="557.167,-1009.81 547.28,-1006 552.635,-1015.14 557.167,-1009.81"/>
</g>
<!-- jinue__common__asm__vm__h&#45;&gt;hal__asm__boot__h -->
<g id="edge51" class="edge"><title>jinue__common__asm__vm__h&#45;&gt;hal__asm__boot__h</title>
<path fill="none" stroke="black" d="M511.916,-969.961C481.189,-935.86 412.032,-859.107 376.407,-819.57"/>
<polygon fill="black" stroke="black" points="378.634,-816.813 369.34,-811.726 373.433,-821.498 378.634,-816.813"/>
</g>
<!-- jinue__common__asm__vm__h&#45;&gt;hal__asm__thread__h -->
<g id="edge52" class="edge"><title>jinue__common__asm__vm__h&#45;&gt;hal__asm__thread__h</title>
<path fill="none" stroke="black" d="M542.976,-969.961C574.413,-935.86 645.17,-859.107 681.618,-819.57"/>
<polygon fill="black" stroke="black" points="684.644,-821.451 688.849,-811.726 679.497,-816.707 684.644,-821.451"/>
</g>
<!-- jinue__common__asm__vm__h&#45;&gt;jinue__common__vm__h -->
<g id="edge71" class="edge"><title>jinue__common__asm__vm__h&#45;&gt;jinue__common__vm__h</title>
<path fill="none" stroke="black" d="M527.18,-969.961C527.006,-936.586 526.619,-862.357 526.41,-822.145"/>
<polygon fill="black" stroke="black" points="529.909,-821.982 526.357,-812.001 522.909,-822.019 529.909,-821.982"/>
</g>
</g>
</svg>
