<?xml version="1.0" encoding="UTF-8" standalone="no"?>
<!DOCTYPE svg PUBLIC "-//W3C//DTD SVG 1.1//EN"
 "http://www.w3.org/Graphics/SVG/1.1/DTD/svg11.dtd">
<!-- Generated by graphviz version 2.30.1 (20150306.0020)
 -->
<!-- Title: hdeps Pages: 1 -->
<svg width="2150pt" height="1596pt"
 viewBox="0.00 0.00 2150.42 1596.00" xmlns="http://www.w3.org/2000/svg" xmlns:xlink="http://www.w3.org/1999/xlink">
<g id="graph0" class="graph" transform="scale(1 1) rotate(0) translate(4 1592)">
<title>hdeps</title>
<polygon fill="white" stroke="white" points="-4,5 -4,-1592 2147.42,-1592 2147.42,5 -4,5"/>
<!-- printk__h -->
<g id="node1" class="node"><title>printk__h</title>
<ellipse fill="none" stroke="black" cx="187.256" cy="-1570" rx="38.0212" ry="18"/>
<text text-anchor="middle" x="187.256" y="-1566.3" font-family="Times,serif" font-size="14.00">printk.h</text>
</g>
<!-- kbd__h -->
<g id="node2" class="node"><title>kbd__h</title>
<ellipse fill="none" stroke="black" cx="274.256" cy="-1570" rx="30.3206" ry="18"/>
<text text-anchor="middle" x="274.256" y="-1566.3" font-family="Times,serif" font-size="14.00">kbd.h</text>
</g>
<!-- debug__h -->
<g id="node3" class="node"><title>debug__h</title>
<ellipse fill="none" stroke="black" cx="362.256" cy="-1570" rx="38.4949" ry="18"/>
<text text-anchor="middle" x="362.256" y="-1566.3" font-family="Times,serif" font-size="14.00">debug.h</text>
</g>
<!-- pfalloc__h -->
<g id="node4" class="node"><title>pfalloc__h</title>
<ellipse fill="none" stroke="black" cx="1384.26" cy="-988" rx="42.3701" ry="18"/>
<text text-anchor="middle" x="1384.26" y="-984.3" font-family="Times,serif" font-size="14.00">pfalloc.h</text>
</g>
<!-- vm_alloc__h -->
<g id="node5" class="node"><title>vm_alloc__h</title>
<ellipse fill="none" stroke="black" cx="827.256" cy="-794" rx="50.5427" ry="18"/>
<text text-anchor="middle" x="827.256" y="-790.3" font-family="Times,serif" font-size="14.00">vm_alloc.h</text>
</g>
<!-- hal__kernel__h -->
<g id="node30" class="node"><title>hal__kernel__h</title>
<ellipse fill="none" stroke="black" cx="1021.26" cy="-600" rx="52.4675" ry="18"/>
<text text-anchor="middle" x="1021.26" y="-596.3" font-family="Times,serif" font-size="14.00">hal/kernel.h</text>
</g>
<!-- vm_alloc__h&#45;&gt;hal__kernel__h -->
<g id="edge42" class="edge"><title>vm_alloc__h&#45;&gt;hal__kernel__h</title>
<path fill="none" stroke="black" d="M843.797,-776.63C878.158,-742.623 957.382,-664.216 997.319,-624.69"/>
<polygon fill="black" stroke="black" points="1000.11,-626.85 1004.76,-617.328 995.188,-621.875 1000.11,-626.85"/>
</g>
<!-- ascii__h -->
<g id="node6" class="node"><title>ascii__h</title>
<ellipse fill="none" stroke="black" cx="739.256" cy="-1570" rx="33.1991" ry="18"/>
<text text-anchor="middle" x="739.256" y="-1566.3" font-family="Times,serif" font-size="14.00">ascii.h</text>
</g>
<!-- core__h -->
<g id="node7" class="node"><title>core__h</title>
<ellipse fill="none" stroke="black" cx="1153.26" cy="-1570" rx="32.2457" ry="18"/>
<text text-anchor="middle" x="1153.26" y="-1566.3" font-family="Times,serif" font-size="14.00">core.h</text>
</g>
<!-- elf__h -->
<g id="node8" class="node"><title>elf__h</title>
<ellipse fill="none" stroke="black" cx="1207.26" cy="-794" rx="27" ry="18"/>
<text text-anchor="middle" x="1207.26" y="-790.3" font-family="Times,serif" font-size="14.00">elf.h</text>
</g>
<!-- syscall__h -->
<g id="node9" class="node"><title>syscall__h</title>
<ellipse fill="none" stroke="black" cx="1658.26" cy="-406" rx="41.394" ry="18"/>
<text text-anchor="middle" x="1658.26" y="-402.3" font-family="Times,serif" font-size="14.00">syscall.h</text>
</g>
<!-- util__h -->
<g id="node10" class="node"><title>util__h</title>
<ellipse fill="none" stroke="black" cx="593.256" cy="-1182" rx="29.3722" ry="18"/>
<text text-anchor="middle" x="593.256" y="-1178.3" font-family="Times,serif" font-size="14.00">util.h</text>
</g>
<!-- console__h -->
<g id="node11" class="node"><title>console__h</title>
<ellipse fill="none" stroke="black" cx="1418.26" cy="-1376" rx="44.2946" ry="18"/>
<text text-anchor="middle" x="1418.26" y="-1372.3" font-family="Times,serif" font-size="14.00">console.h</text>
</g>
<!-- panic__h -->
<g id="node12" class="node"><title>panic__h</title>
<ellipse fill="none" stroke="black" cx="1522.26" cy="-1570" rx="36.096" ry="18"/>
<text text-anchor="middle" x="1522.26" y="-1566.3" font-family="Times,serif" font-size="14.00">panic.h</text>
</g>
<!-- thread__h -->
<g id="node13" class="node"><title>thread__h</title>
<ellipse fill="none" stroke="black" cx="1547.26" cy="-212" rx="39.4691" ry="18"/>
<text text-anchor="middle" x="1547.26" y="-208.3" font-family="Times,serif" font-size="14.00">thread.h</text>
</g>
<!-- thread_decl__h -->
<g id="node14" class="node"><title>thread_decl__h</title>
<ellipse fill="none" stroke="black" cx="1773.26" cy="-600" rx="58.2422" ry="18"/>
<text text-anchor="middle" x="1773.26" y="-596.3" font-family="Times,serif" font-size="14.00">thread_decl.h</text>
</g>
<!-- thread_decl__h&#45;&gt;thread__h -->
<g id="edge13" class="edge"><title>thread_decl__h&#45;&gt;thread__h</title>
<path fill="none" stroke="black" d="M1770.63,-581.833C1764.36,-544.499 1746.15,-453.98 1708.26,-388 1672,-324.862 1609.29,-265.662 1573.78,-234.94"/>
<polygon fill="black" stroke="black" points="1575.67,-231.949 1565.79,-228.112 1571.12,-237.27 1575.67,-231.949"/>
</g>
<!-- object__h -->
<g id="node17" class="node"><title>object__h</title>
<ellipse fill="none" stroke="black" cx="2071.26" cy="-406" rx="38.4949" ry="18"/>
<text text-anchor="middle" x="2071.26" y="-402.3" font-family="Times,serif" font-size="14.00">object.h</text>
</g>
<!-- thread_decl__h&#45;&gt;object__h -->
<g id="edge26" class="edge"><title>thread_decl__h&#45;&gt;object__h</title>
<path fill="none" stroke="black" d="M1797.39,-583.45C1851.29,-548.72 1981.39,-464.897 2040.78,-426.636"/>
<polygon fill="black" stroke="black" points="2042.84,-429.475 2049.35,-421.117 2039.04,-423.591 2042.84,-429.475"/>
</g>
<!-- hal__thread__h -->
<g id="node34" class="node"><title>hal__thread__h</title>
<ellipse fill="none" stroke="black" cx="1334.26" cy="-406" rx="52.4675" ry="18"/>
<text text-anchor="middle" x="1334.26" y="-402.3" font-family="Times,serif" font-size="14.00">hal/thread.h</text>
</g>
<!-- thread_decl__h&#45;&gt;hal__thread__h -->
<g id="edge56" class="edge"><title>thread_decl__h&#45;&gt;hal__thread__h</title>
<path fill="none" stroke="black" d="M1740.98,-584.882C1662.34,-550.491 1461.02,-462.439 1374.62,-424.655"/>
<polygon fill="black" stroke="black" points="1375.97,-421.424 1365.4,-420.623 1373.16,-427.837 1375.97,-421.424"/>
</g>
<!-- slab__h -->
<g id="node15" class="node"><title>slab__h</title>
<ellipse fill="none" stroke="black" cx="312.256" cy="-988" rx="31.2735" ry="18"/>
<text text-anchor="middle" x="312.256" y="-984.3" font-family="Times,serif" font-size="14.00">slab.h</text>
</g>
<!-- ipc__h -->
<g id="node16" class="node"><title>ipc__h</title>
<ellipse fill="none" stroke="black" cx="2071.26" cy="-212" rx="28.3955" ry="18"/>
<text text-anchor="middle" x="2071.26" y="-208.3" font-family="Times,serif" font-size="14.00">ipc.h</text>
</g>
<!-- object__h&#45;&gt;ipc__h -->
<g id="edge24" class="edge"><title>object__h&#45;&gt;ipc__h</title>
<path fill="none" stroke="black" d="M2071.26,-387.961C2071.26,-354.586 2071.26,-280.357 2071.26,-240.145"/>
<polygon fill="black" stroke="black" points="2074.76,-240 2071.26,-230.001 2067.76,-240.001 2074.76,-240"/>
</g>
<!-- message__h -->
<g id="node18" class="node"><title>message__h</title>
<ellipse fill="none" stroke="black" cx="1788.26" cy="-794" rx="48.1437" ry="18"/>
<text text-anchor="middle" x="1788.26" y="-790.3" font-family="Times,serif" font-size="14.00">message.h</text>
</g>
<!-- message__h&#45;&gt;thread_decl__h -->
<g id="edge18" class="edge"><title>message__h&#45;&gt;thread_decl__h</title>
<path fill="none" stroke="black" d="M1786.93,-775.961C1784.32,-742.586 1778.52,-668.357 1775.38,-628.145"/>
<polygon fill="black" stroke="black" points="1778.85,-627.698 1774.58,-618.001 1771.87,-628.243 1778.85,-627.698"/>
</g>
<!-- object_decl__h -->
<g id="node19" class="node"><title>object_decl__h</title>
<ellipse fill="none" stroke="black" cx="2017.26" cy="-988" rx="57.2688" ry="18"/>
<text text-anchor="middle" x="2017.26" y="-984.3" font-family="Times,serif" font-size="14.00">object_decl.h</text>
</g>
<!-- object_decl__h&#45;&gt;thread_decl__h -->
<g id="edge19" class="edge"><title>object_decl__h&#45;&gt;thread_decl__h</title>
<path fill="none" stroke="black" d="M2013.19,-969.834C2003.84,-932.5 1978.41,-841.983 1937.26,-776 1898.64,-714.087 1836.04,-654.932 1800.39,-623.772"/>
<polygon fill="black" stroke="black" points="1802.64,-621.089 1792.79,-617.194 1798.06,-626.383 1802.64,-621.089"/>
</g>
<!-- object_decl__h&#45;&gt;object__h -->
<g id="edge25" class="edge"><title>object_decl__h&#45;&gt;object__h</title>
<path fill="none" stroke="black" d="M2023.79,-969.949C2035.27,-939.032 2058.64,-871.413 2067.26,-812 2087.68,-671.227 2078.32,-500.035 2073.5,-434.406"/>
<polygon fill="black" stroke="black" points="2076.96,-433.807 2072.71,-424.102 2069.98,-434.339 2076.96,-433.807"/>
</g>
<!-- process__h -->
<g id="node20" class="node"><title>process__h</title>
<ellipse fill="none" stroke="black" cx="1678.26" cy="-794" rx="44.2946" ry="18"/>
<text text-anchor="middle" x="1678.26" y="-790.3" font-family="Times,serif" font-size="14.00">process.h</text>
</g>
<!-- object_decl__h&#45;&gt;process__h -->
<g id="edge28" class="edge"><title>object_decl__h&#45;&gt;process__h</title>
<path fill="none" stroke="black" d="M1990.66,-971.934C1929.53,-937.317 1779.17,-852.156 1711.83,-814.013"/>
<polygon fill="black" stroke="black" points="1713.32,-810.836 1702.89,-808.953 1709.87,-816.927 1713.32,-810.836"/>
</g>
<!-- process__h&#45;&gt;thread_decl__h -->
<g id="edge20" class="edge"><title>process__h&#45;&gt;thread_decl__h</title>
<path fill="none" stroke="black" d="M1686.52,-776.297C1703.08,-742.836 1740.42,-667.364 1760.27,-627.238"/>
<polygon fill="black" stroke="black" points="1763.51,-628.591 1764.81,-618.076 1757.24,-625.487 1763.51,-628.591"/>
</g>
<!-- hal__frame_pointer__h -->
<g id="node21" class="node"><title>hal__frame_pointer__h</title>
<ellipse fill="none" stroke="black" cx="999.256" cy="-1182" rx="81.3646" ry="18"/>
<text text-anchor="middle" x="999.256" y="-1178.3" font-family="Times,serif" font-size="14.00">hal/frame_pointer.h</text>
</g>
<!-- hal__io__h -->
<g id="node22" class="node"><title>hal__io__h</title>
<ellipse fill="none" stroke="black" cx="1614.26" cy="-1570" rx="37.5442" ry="18"/>
<text text-anchor="middle" x="1614.26" y="-1566.3" font-family="Times,serif" font-size="14.00">hal/io.h</text>
</g>
<!-- hal__boot__h -->
<g id="node23" class="node"><title>hal__boot__h</title>
<ellipse fill="none" stroke="black" cx="79.2562" cy="-794" rx="46.2191" ry="18"/>
<text text-anchor="middle" x="79.2562" y="-790.3" font-family="Times,serif" font-size="14.00">hal/boot.h</text>
</g>
<!-- hal__bootmem__h -->
<g id="node24" class="node"><title>hal__bootmem__h</title>
<ellipse fill="none" stroke="black" cx="617.256" cy="-794" rx="64.4914" ry="18"/>
<text text-anchor="middle" x="617.256" y="-790.3" font-family="Times,serif" font-size="14.00">hal/bootmem.h</text>
</g>
<!-- hal__descriptors__h -->
<g id="node25" class="node"><title>hal__descriptors__h</title>
<ellipse fill="none" stroke="black" cx="464.256" cy="-794" rx="69.3156" ry="18"/>
<text text-anchor="middle" x="464.256" y="-790.3" font-family="Times,serif" font-size="14.00">hal/descriptors.h</text>
</g>
<!-- hal__cpu__h -->
<g id="node31" class="node"><title>hal__cpu__h</title>
<ellipse fill="none" stroke="black" cx="565.256" cy="-18" rx="43.319" ry="18"/>
<text text-anchor="middle" x="565.256" y="-14.3" font-family="Times,serif" font-size="14.00">hal/cpu.h</text>
</g>
<!-- hal__descriptors__h&#45;&gt;hal__cpu__h -->
<g id="edge45" class="edge"><title>hal__descriptors__h&#45;&gt;hal__cpu__h</title>
<path fill="none" stroke="black" d="M466.507,-775.749C479.56,-675.718 545.508,-170.334 561.675,-46.446"/>
<polygon fill="black" stroke="black" points="565.176,-46.6618 563,-36.2929 558.235,-45.7559 565.176,-46.6618"/>
</g>
<!-- hal__cpu_data__h -->
<g id="node32" class="node"><title>hal__cpu_data__h</title>
<ellipse fill="none" stroke="black" cx="651.256" cy="-212" rx="62.0922" ry="18"/>
<text text-anchor="middle" x="651.256" y="-208.3" font-family="Times,serif" font-size="14.00">hal/cpu_data.h</text>
</g>
<!-- hal__descriptors__h&#45;&gt;hal__cpu_data__h -->
<g id="edge46" class="edge"><title>hal__descriptors__h&#45;&gt;hal__cpu_data__h</title>
<path fill="none" stroke="black" d="M469.751,-775.956C496.175,-694 610.219,-340.28 642.633,-239.744"/>
<polygon fill="black" stroke="black" points="646.023,-240.637 645.761,-230.045 639.361,-238.489 646.023,-240.637"/>
</g>
<!-- hal__x86__h -->
<g id="node39" class="node"><title>hal__x86__h</title>
<ellipse fill="none" stroke="black" cx="622.256" cy="-600" rx="44.2946" ry="18"/>
<text text-anchor="middle" x="622.256" y="-596.3" font-family="Times,serif" font-size="14.00">hal/x86.h</text>
</g>
<!-- hal__descriptors__h&#45;&gt;hal__x86__h -->
<g id="edge61" class="edge"><title>hal__descriptors__h&#45;&gt;hal__x86__h</title>
<path fill="none" stroke="black" d="M478.001,-776.297C506.039,-742.226 569.918,-664.601 602.439,-625.081"/>
<polygon fill="black" stroke="black" points="605.227,-627.202 608.879,-617.256 599.822,-622.754 605.227,-627.202"/>
</g>
<!-- hal__irq__h -->
<g id="node41" class="node"><title>hal__irq__h</title>
<ellipse fill="none" stroke="black" cx="366.256" cy="-600" rx="39.9464" ry="18"/>
<text text-anchor="middle" x="366.256" y="-596.3" font-family="Times,serif" font-size="14.00">hal/irq.h</text>
</g>
<!-- hal__descriptors__h&#45;&gt;hal__irq__h -->
<g id="edge63" class="edge"><title>hal__descriptors__h&#45;&gt;hal__irq__h</title>
<path fill="none" stroke="black" d="M455.559,-775.961C438.335,-742.217 399.795,-666.708 379.436,-626.823"/>
<polygon fill="black" stroke="black" points="382.457,-625.042 374.794,-617.726 376.222,-628.224 382.457,-625.042"/>
</g>
<!-- hal__e820__h -->
<g id="node26" class="node"><title>hal__e820__h</title>
<ellipse fill="none" stroke="black" cx="79.2562" cy="-988" rx="48.1437" ry="18"/>
<text text-anchor="middle" x="79.2562" y="-984.3" font-family="Times,serif" font-size="14.00">hal/e820.h</text>
</g>
<!-- hal__e820__h&#45;&gt;hal__boot__h -->
<g id="edge32" class="edge"><title>hal__e820__h&#45;&gt;hal__boot__h</title>
<path fill="none" stroke="black" d="M79.2562,-969.961C79.2562,-936.586 79.2562,-862.357 79.2562,-822.145"/>
<polygon fill="black" stroke="black" points="82.7563,-822 79.2562,-812.001 75.7563,-822.001 82.7563,-822"/>
</g>
<!-- hal__e820__h&#45;&gt;hal__bootmem__h -->
<g id="edge35" class="edge"><title>hal__e820__h&#45;&gt;hal__bootmem__h</title>
<path fill="none" stroke="black" d="M112.911,-974.99C205.153,-942.07 462.254,-850.317 569.413,-812.074"/>
<polygon fill="black" stroke="black" points="570.759,-815.31 579.001,-808.652 568.406,-808.717 570.759,-815.31"/>
</g>
<!-- hal__vga__h -->
<g id="node27" class="node"><title>hal__vga__h</title>
<ellipse fill="none" stroke="black" cx="1713.26" cy="-1570" rx="43.319" ry="18"/>
<text text-anchor="middle" x="1713.26" y="-1566.3" font-family="Times,serif" font-size="14.00">hal/vga.h</text>
</g>
<!-- hal__vm_macros__h -->
<g id="node28" class="node"><title>hal__vm_macros__h</title>
<ellipse fill="none" stroke="black" cx="435.256" cy="-988" rx="72.192" ry="18"/>
<text text-anchor="middle" x="435.256" y="-984.3" font-family="Times,serif" font-size="14.00">hal/vm_macros.h</text>
</g>
<!-- hal__vm_x86__h -->
<g id="node29" class="node"><title>hal__vm_x86__h</title>
<ellipse fill="none" stroke="black" cx="1834.26" cy="-1570" rx="59.1941" ry="18"/>
<text text-anchor="middle" x="1834.26" y="-1566.3" font-family="Times,serif" font-size="14.00">hal/vm_x86.h</text>
</g>
<!-- hal__cpu_data__h&#45;&gt;hal__cpu__h -->
<g id="edge44" class="edge"><title>hal__cpu_data__h&#45;&gt;hal__cpu__h</title>
<path fill="none" stroke="black" d="M643.624,-193.961C628.579,-160.372 595,-85.4053 577.071,-45.3778"/>
<polygon fill="black" stroke="black" points="580.153,-43.6961 572.871,-36.0005 573.765,-46.5576 580.153,-43.6961"/>
</g>
<!-- hal__thread_ctx__h -->
<g id="node33" class="node"><title>hal__thread_ctx__h</title>
<ellipse fill="none" stroke="black" cx="1396.26" cy="-794" rx="67.3907" ry="18"/>
<text text-anchor="middle" x="1396.26" y="-790.3" font-family="Times,serif" font-size="14.00">hal/thread_ctx.h</text>
</g>
<!-- hal__thread_ctx__h&#45;&gt;thread_decl__h -->
<g id="edge17" class="edge"><title>hal__thread_ctx__h&#45;&gt;thread_decl__h</title>
<path fill="none" stroke="black" d="M1426.15,-777.774C1494.13,-743.155 1660.18,-658.589 1735.27,-620.345"/>
<polygon fill="black" stroke="black" points="1737.07,-623.357 1744.39,-615.7 1733.89,-617.119 1737.07,-623.357"/>
</g>
<!-- hal__thread_ctx__h&#45;&gt;hal__thread__h -->
<g id="edge53" class="edge"><title>hal__thread_ctx__h&#45;&gt;hal__thread__h</title>
<path fill="none" stroke="black" d="M1393.51,-775.916C1383.75,-715.145 1350.66,-509.103 1338.65,-434.366"/>
<polygon fill="black" stroke="black" points="1342.08,-433.643 1337.04,-424.325 1335.17,-434.753 1342.08,-433.643"/>
</g>
<!-- hal__thread__h&#45;&gt;thread__h -->
<g id="edge12" class="edge"><title>hal__thread__h&#45;&gt;thread__h</title>
<path fill="none" stroke="black" d="M1352.05,-388.96C1390.08,-354.682 1479.32,-274.236 1522.71,-235.126"/>
<polygon fill="black" stroke="black" points="1525.17,-237.62 1530.26,-228.325 1520.48,-232.42 1525.17,-237.62"/>
</g>
<!-- hal__thread__h&#45;&gt;hal__cpu_data__h -->
<g id="edge47" class="edge"><title>hal__thread__h&#45;&gt;hal__cpu_data__h</title>
<path fill="none" stroke="black" d="M1295.08,-393.988C1178.92,-361.332 836.219,-264.995 704.066,-227.845"/>
<polygon fill="black" stroke="black" points="704.747,-224.401 694.173,-225.065 702.853,-231.14 704.747,-224.401"/>
</g>
<!-- hal__hal__h -->
<g id="node35" class="node"><title>hal__hal__h</title>
<ellipse fill="none" stroke="black" cx="1953.26" cy="-1570" rx="41.394" ry="18"/>
<text text-anchor="middle" x="1953.26" y="-1566.3" font-family="Times,serif" font-size="14.00">hal/hal.h</text>
</g>
<!-- hal__syscall__h -->
<g id="node36" class="node"><title>hal__syscall__h</title>
<ellipse fill="none" stroke="black" cx="1575.26" cy="-600" rx="54.3924" ry="18"/>
<text text-anchor="middle" x="1575.26" y="-596.3" font-family="Times,serif" font-size="14.00">hal/syscall.h</text>
</g>
<!-- hal__syscall__h&#45;&gt;syscall__h -->
<g id="edge9" class="edge"><title>hal__syscall__h&#45;&gt;syscall__h</title>
<path fill="none" stroke="black" d="M1582.62,-581.961C1597.18,-548.288 1629.71,-473.027 1646.98,-433.076"/>
<polygon fill="black" stroke="black" points="1650.27,-434.294 1651.03,-423.726 1643.84,-431.517 1650.27,-434.294"/>
</g>
<!-- hal__interrupt__h -->
<g id="node40" class="node"><title>hal__interrupt__h</title>
<ellipse fill="none" stroke="black" cx="1537.26" cy="-406" rx="61.1419" ry="18"/>
<text text-anchor="middle" x="1537.26" y="-402.3" font-family="Times,serif" font-size="14.00">hal/interrupt.h</text>
</g>
<!-- hal__syscall__h&#45;&gt;hal__interrupt__h -->
<g id="edge62" class="edge"><title>hal__syscall__h&#45;&gt;hal__interrupt__h</title>
<path fill="none" stroke="black" d="M1571.88,-581.961C1565.26,-548.515 1550.52,-474.04 1542.58,-433.888"/>
<polygon fill="black" stroke="black" points="1546,-433.131 1540.62,-424.001 1539.13,-434.49 1546,-433.131"/>
</g>
<!-- hal__vm__h -->
<g id="node37" class="node"><title>hal__vm__h</title>
<ellipse fill="none" stroke="black" cx="1207.26" cy="-988" rx="42.3701" ry="18"/>
<text text-anchor="middle" x="1207.26" y="-984.3" font-family="Times,serif" font-size="14.00">hal/vm.h</text>
</g>
<!-- hal__vm__h&#45;&gt;vm_alloc__h -->
<g id="edge4" class="edge"><title>hal__vm__h&#45;&gt;vm_alloc__h</title>
<path fill="none" stroke="black" d="M1181.14,-973.803C1115.05,-940.41 940.998,-852.47 864.371,-813.753"/>
<polygon fill="black" stroke="black" points="865.594,-810.449 855.09,-809.064 862.437,-816.697 865.594,-810.449"/>
</g>
<!-- hal__vm__h&#45;&gt;elf__h -->
<g id="edge7" class="edge"><title>hal__vm__h&#45;&gt;elf__h</title>
<path fill="none" stroke="black" d="M1207.26,-969.961C1207.26,-936.586 1207.26,-862.357 1207.26,-822.145"/>
<polygon fill="black" stroke="black" points="1210.76,-822 1207.26,-812.001 1203.76,-822.001 1210.76,-822"/>
</g>
<!-- hal__vm__h&#45;&gt;process__h -->
<g id="edge27" class="edge"><title>hal__vm__h&#45;&gt;process__h</title>
<path fill="none" stroke="black" d="M1236.72,-974.99C1318.22,-941.767 1546.72,-848.62 1638.93,-811.03"/>
<polygon fill="black" stroke="black" points="1640.26,-814.269 1648.2,-807.253 1637.62,-807.787 1640.26,-814.269"/>
</g>
<!-- hal__vm__h&#45;&gt;hal__cpu_data__h -->
<g id="edge48" class="edge"><title>hal__vm__h&#45;&gt;hal__cpu_data__h</title>
<path fill="none" stroke="black" d="M1166.39,-983.5C1078.56,-973.669 871.352,-937.672 767.256,-812 693.023,-722.38 660.764,-345.333 653.112,-240.276"/>
<polygon fill="black" stroke="black" points="656.594,-239.894 652.391,-230.169 649.612,-240.392 656.594,-239.894"/>
</g>
<!-- hal__vm__h&#45;&gt;hal__thread_ctx__h -->
<g id="edge50" class="edge"><title>hal__vm__h&#45;&gt;hal__thread_ctx__h</title>
<path fill="none" stroke="black" d="M1223.05,-970.96C1256.23,-937.247 1333.38,-858.874 1372.54,-819.092"/>
<polygon fill="black" stroke="black" points="1375.32,-821.257 1379.84,-811.675 1370.33,-816.346 1375.32,-821.257"/>
</g>
<!-- hal__vm__h&#45;&gt;hal__thread__h -->
<g id="edge54" class="edge"><title>hal__vm__h&#45;&gt;hal__thread__h</title>
<path fill="none" stroke="black" d="M1215.48,-970.063C1230.06,-939.326 1260.37,-871.983 1276.26,-812 1313.12,-672.811 1327.97,-500.108 1332.56,-434.244"/>
<polygon fill="black" stroke="black" points="1336.05,-434.474 1333.23,-424.261 1329.06,-434.004 1336.05,-434.474"/>
</g>
<!-- hal__startup__h -->
<g id="node38" class="node"><title>hal__startup__h</title>
<ellipse fill="none" stroke="black" cx="950.256" cy="-794" rx="54.3924" ry="18"/>
<text text-anchor="middle" x="950.256" y="-790.3" font-family="Times,serif" font-size="14.00">hal/startup.h</text>
</g>
<!-- hal__startup__h&#45;&gt;hal__kernel__h -->
<g id="edge41" class="edge"><title>hal__startup__h&#45;&gt;hal__kernel__h</title>
<path fill="none" stroke="black" d="M956.557,-775.961C968.952,-742.444 996.583,-667.723 1011.41,-627.633"/>
<polygon fill="black" stroke="black" points="1014.78,-628.594 1014.97,-618.001 1008.22,-626.166 1014.78,-628.594"/>
</g>
<!-- hal__x86__h&#45;&gt;hal__thread__h -->
<g id="edge55" class="edge"><title>hal__x86__h&#45;&gt;hal__thread__h</title>
<path fill="none" stroke="black" d="M658.052,-589.347C775.524,-557.669 1149.48,-456.828 1284.79,-420.34"/>
<polygon fill="black" stroke="black" points="1285.75,-423.707 1294.49,-417.724 1283.92,-416.948 1285.75,-423.707"/>
</g>
<!-- hal__asm__kernel__h -->
<g id="node42" class="node"><title>hal__asm__kernel__h</title>
<ellipse fill="none" stroke="black" cx="1092.26" cy="-794" rx="69.3156" ry="18"/>
<text text-anchor="middle" x="1092.26" y="-790.3" font-family="Times,serif" font-size="14.00">hal/asm/kernel.h</text>
</g>
<!-- hal__asm__kernel__h&#45;&gt;hal__kernel__h -->
<g id="edge43" class="edge"><title>hal__asm__kernel__h&#45;&gt;hal__kernel__h</title>
<path fill="none" stroke="black" d="M1085.96,-775.961C1073.56,-742.444 1045.93,-667.723 1031.1,-627.633"/>
<polygon fill="black" stroke="black" points="1034.29,-626.166 1027.54,-618.001 1027.73,-628.594 1034.29,-626.166"/>
</g>
<!-- hal__asm__e820__h -->
<g id="node43" class="node"><title>hal__asm__e820__h</title>
<ellipse fill="none" stroke="black" cx="88.2562" cy="-1182" rx="64.4914" ry="18"/>
<text text-anchor="middle" x="88.2562" y="-1178.3" font-family="Times,serif" font-size="14.00">hal/asm/e820.h</text>
</g>
<!-- hal__asm__e820__h&#45;&gt;hal__e820__h -->
<g id="edge38" class="edge"><title>hal__asm__e820__h&#45;&gt;hal__e820__h</title>
<path fill="none" stroke="black" d="M87.4575,-1163.96C85.893,-1130.59 82.4135,-1056.36 80.5286,-1016.15"/>
<polygon fill="black" stroke="black" points="84.0176,-1015.83 80.0531,-1006 77.0253,-1016.15 84.0176,-1015.83"/>
</g>
<!-- hal__asm__boot__h -->
<g id="node44" class="node"><title>hal__asm__boot__h</title>
<ellipse fill="none" stroke="black" cx="88.2562" cy="-1376" rx="63.5411" ry="18"/>
<text text-anchor="middle" x="88.2562" y="-1372.3" font-family="Times,serif" font-size="14.00">hal/asm/boot.h</text>
</g>
<!-- hal__asm__boot__h&#45;&gt;hal__boot__h -->
<g id="edge30" class="edge"><title>hal__asm__boot__h&#45;&gt;hal__boot__h</title>
<path fill="none" stroke="black" d="M78.2486,-1357.87C61.0747,-1327.37 26.6438,-1261.1 14.2562,-1200 5.19557,-1155.31 -15.2861,-1178.62 22.2562,-970 32.0004,-915.851 54.4234,-855.374 68.0612,-821.578"/>
<polygon fill="black" stroke="black" points="71.4396,-822.564 71.9878,-811.983 64.9611,-819.913 71.4396,-822.564"/>
</g>
<!-- hal__asm__boot__h&#45;&gt;hal__asm__e820__h -->
<g id="edge65" class="edge"><title>hal__asm__boot__h&#45;&gt;hal__asm__e820__h</title>
<path fill="none" stroke="black" d="M88.2562,-1357.96C88.2562,-1324.59 88.2562,-1250.36 88.2562,-1210.15"/>
<polygon fill="black" stroke="black" points="91.7563,-1210 88.2562,-1200 84.7563,-1210 91.7563,-1210"/>
</g>
<!-- hal__asm__thread__h -->
<g id="node45" class="node"><title>hal__asm__thread__h</title>
<ellipse fill="none" stroke="black" cx="1286.26" cy="-1376" rx="69.3156" ry="18"/>
<text text-anchor="middle" x="1286.26" y="-1372.3" font-family="Times,serif" font-size="14.00">hal/asm/thread.h</text>
</g>
<!-- hal__asm__thread__h&#45;&gt;hal__thread__h -->
<g id="edge51" class="edge"><title>hal__asm__thread__h&#45;&gt;hal__thread__h</title>
<path fill="none" stroke="black" d="M1317.66,-1359.94C1366.19,-1334.69 1457.61,-1278.72 1494.26,-1200 1500.94,-1185.64 1536.87,-1083.3 1472.26,-776 1444.13,-642.221 1375.8,-492.405 1347.19,-433.143"/>
<polygon fill="black" stroke="black" points="1350.32,-431.568 1342.8,-424.105 1344.02,-434.629 1350.32,-431.568"/>
</g>
<!-- hal__asm__irq__h -->
<g id="node46" class="node"><title>hal__asm__irq__h</title>
<ellipse fill="none" stroke="black" cx="319.256" cy="-794" rx="57.2688" ry="18"/>
<text text-anchor="middle" x="319.256" y="-790.3" font-family="Times,serif" font-size="14.00">hal/asm/irq.h</text>
</g>
<!-- hal__asm__irq__h&#45;&gt;hal__irq__h -->
<g id="edge64" class="edge"><title>hal__asm__irq__h&#45;&gt;hal__irq__h</title>
<path fill="none" stroke="black" d="M323.427,-775.961C331.615,-742.515 349.845,-668.04 359.674,-627.888"/>
<polygon fill="black" stroke="black" points="363.116,-628.546 362.095,-618.001 356.317,-626.882 363.116,-628.546"/>
</g>
<!-- jinue__page_tables__h -->
<g id="node47" class="node"><title>jinue__page_tables__h</title>
<polygon fill="none" stroke="black" points="1258.26,-1200 1136.26,-1200 1136.26,-1164 1258.26,-1164 1258.26,-1200"/>
<text text-anchor="middle" x="1197.26" y="-1178.3" font-family="Times,serif" font-size="14.00">jinue/page_tables.h</text>
</g>
<!-- jinue__page_tables__h&#45;&gt;hal__vm__h -->
<g id="edge58" class="edge"><title>jinue__page_tables__h&#45;&gt;hal__vm__h</title>
<path fill="none" stroke="black" d="M1198.14,-1163.96C1199.88,-1130.59 1203.75,-1056.36 1205.84,-1016.15"/>
<polygon fill="black" stroke="black" points="1209.35,-1016.17 1206.37,-1006 1202.36,-1015.8 1209.35,-1016.17"/>
</g>
<!-- jinue__pfaddr__h -->
<g id="node48" class="node"><title>jinue__pfaddr__h</title>
<polygon fill="none" stroke="black" points="695.506,-1006 603.006,-1006 603.006,-970 695.506,-970 695.506,-1006"/>
<text text-anchor="middle" x="649.256" y="-984.3" font-family="Times,serif" font-size="14.00">jinue/pfaddr.h</text>
</g>
<!-- jinue__pfaddr__h&#45;&gt;hal__bootmem__h -->
<g id="edge33" class="edge"><title>jinue__pfaddr__h&#45;&gt;hal__bootmem__h</title>
<path fill="none" stroke="black" d="M646.416,-969.961C640.842,-936.515 628.43,-862.04 621.738,-821.888"/>
<polygon fill="black" stroke="black" points="625.186,-821.289 620.09,-812.001 618.281,-822.44 625.186,-821.289"/>
</g>
<!-- jinue__types__h -->
<g id="node51" class="node"><title>jinue__types__h</title>
<polygon fill="none" stroke="black" points="933.256,-1394 847.256,-1394 847.256,-1358 933.256,-1358 933.256,-1394"/>
<text text-anchor="middle" x="890.256" y="-1372.3" font-family="Times,serif" font-size="14.00">jinue/types.h</text>
</g>
<!-- jinue__pfaddr__h&#45;&gt;jinue__types__h -->
<g id="edge72" class="edge"><title>jinue__pfaddr__h&#45;&gt;jinue__types__h</title>
<path fill="none" stroke="black" d="M658.286,-1006.13C672.161,-1043.38 698.307,-1133.75 739.256,-1200 776.725,-1260.62 836.688,-1319.28 868.803,-1350.91"/>
<polygon fill="black" stroke="black" points="866.39,-1353.45 875.964,-1357.98 871.309,-1348.47 866.39,-1353.45"/>
</g>
<!-- jinue__pfalloc__h -->
<g id="node49" class="node"><title>jinue__pfalloc__h</title>
<polygon fill="none" stroke="black" points="1485.51,-1200 1391.01,-1200 1391.01,-1164 1485.51,-1164 1485.51,-1200"/>
<text text-anchor="middle" x="1438.26" y="-1178.3" font-family="Times,serif" font-size="14.00">jinue/pfalloc.h</text>
</g>
<!-- jinue__pfalloc__h&#45;&gt;pfalloc__h -->
<g id="edge1" class="edge"><title>jinue__pfalloc__h&#45;&gt;pfalloc__h</title>
<path fill="none" stroke="black" d="M1433.46,-1163.96C1424.04,-1130.44 1403.02,-1055.72 1391.75,-1015.63"/>
<polygon fill="black" stroke="black" points="1395.11,-1014.68 1389.04,-1006 1388.38,-1016.57 1395.11,-1014.68"/>
</g>
<!-- jinue__syscall__h -->
<g id="node57" class="node"><title>jinue__syscall__h</title>
<polygon fill="none" stroke="black" points="1615.51,-812 1521.01,-812 1521.01,-776 1615.51,-776 1615.51,-812"/>
<text text-anchor="middle" x="1568.26" y="-790.3" font-family="Times,serif" font-size="14.00">jinue/syscall.h</text>
</g>
<!-- jinue__pfalloc__h&#45;&gt;jinue__syscall__h -->
<g id="edge77" class="edge"><title>jinue__pfalloc__h&#45;&gt;jinue__syscall__h</title>
<path fill="none" stroke="black" d="M1444.01,-1163.92C1464.52,-1103.02 1534.15,-896.258 1559.19,-821.908"/>
<polygon fill="black" stroke="black" points="1562.55,-822.919 1562.42,-812.325 1555.91,-820.685 1562.55,-822.919"/>
</g>
<!-- jinue__elf__h -->
<g id="node50" class="node"><title>jinue__elf__h</title>
<polygon fill="none" stroke="black" points="824.256,-1006 752.256,-1006 752.256,-970 824.256,-970 824.256,-1006"/>
<text text-anchor="middle" x="788.256" y="-984.3" font-family="Times,serif" font-size="14.00">jinue/elf.h</text>
</g>
<!-- jinue__elf__h&#45;&gt;elf__h -->
<g id="edge5" class="edge"><title>jinue__elf__h&#45;&gt;elf__h</title>
<path fill="none" stroke="black" d="M824.339,-970.486C892.125,-939.459 1043.12,-870.328 1170.26,-812 1172.29,-811.066 1174.39,-810.103 1176.51,-809.132"/>
<polygon fill="black" stroke="black" points="1178.11,-812.247 1185.74,-804.892 1175.19,-805.885 1178.11,-812.247"/>
</g>
<!-- jinue__elf__h&#45;&gt;hal__boot__h -->
<g id="edge31" class="edge"><title>jinue__elf__h&#45;&gt;hal__boot__h</title>
<path fill="none" stroke="black" d="M752.122,-977.215C633.862,-945.189 258.395,-843.512 126.011,-807.661"/>
<polygon fill="black" stroke="black" points="126.735,-804.231 116.168,-804.996 124.905,-810.988 126.735,-804.231"/>
</g>
<!-- jinue__types__h&#45;&gt;pfalloc__h -->
<g id="edge2" class="edge"><title>jinue__types__h&#45;&gt;pfalloc__h</title>
<path fill="none" stroke="black" d="M933.316,-1371.37C1023.21,-1361.4 1231.33,-1325.28 1338.26,-1200 1383.36,-1147.16 1387.27,-1060.27 1385.99,-1016.3"/>
<polygon fill="black" stroke="black" points="1389.48,-1015.95 1385.57,-1006.1 1382.48,-1016.23 1389.48,-1015.95"/>
</g>
<!-- jinue__types__h&#45;&gt;vm_alloc__h -->
<g id="edge3" class="edge"><title>jinue__types__h&#45;&gt;vm_alloc__h</title>
<path fill="none" stroke="black" d="M888.405,-1357.96C879.512,-1276.08 841.159,-922.995 830.194,-822.05"/>
<polygon fill="black" stroke="black" points="833.667,-821.609 829.108,-812.045 826.708,-822.365 833.667,-821.609"/>
</g>
<!-- jinue__types__h&#45;&gt;elf__h -->
<g id="edge6" class="edge"><title>jinue__types__h&#45;&gt;elf__h</title>
<path fill="none" stroke="black" d="M888.533,-1357.81C885.51,-1320.81 881.935,-1231.51 909.256,-1164 972.25,-1008.36 1123.96,-866.549 1183.09,-815.284"/>
<polygon fill="black" stroke="black" points="1185.49,-817.831 1190.8,-808.659 1180.93,-812.521 1185.49,-817.831"/>
</g>
<!-- jinue__types__h&#45;&gt;util__h -->
<g id="edge10" class="edge"><title>jinue__types__h&#45;&gt;util__h</title>
<path fill="none" stroke="black" d="M863.899,-1357.96C808.11,-1321.9 678.523,-1238.12 621.289,-1201.12"/>
<polygon fill="black" stroke="black" points="623.045,-1198.09 612.747,-1195.6 619.245,-1203.97 623.045,-1198.09"/>
</g>
<!-- jinue__types__h&#45;&gt;hal__frame_pointer__h -->
<g id="edge29" class="edge"><title>jinue__types__h&#45;&gt;hal__frame_pointer__h</title>
<path fill="none" stroke="black" d="M899.929,-1357.96C919.079,-1324.23 961.918,-1248.77 984.569,-1208.87"/>
<polygon fill="black" stroke="black" points="987.712,-1210.42 989.605,-1200 981.624,-1206.97 987.712,-1210.42"/>
</g>
<!-- jinue__types__h&#45;&gt;hal__bootmem__h -->
<g id="edge34" class="edge"><title>jinue__types__h&#45;&gt;hal__bootmem__h</title>
<path fill="none" stroke="black" d="M867.206,-1358C805.593,-1310.75 638.681,-1170.48 593.256,-1006 575.425,-941.433 594.992,-862.236 607.855,-821.697"/>
<polygon fill="black" stroke="black" points="611.237,-822.617 611.033,-812.024 604.586,-820.432 611.237,-822.617"/>
</g>
<!-- jinue__types__h&#45;&gt;hal__descriptors__h -->
<g id="edge37" class="edge"><title>jinue__types__h&#45;&gt;hal__descriptors__h</title>
<path fill="none" stroke="black" d="M846.969,-1365.56C774.074,-1347.26 627.706,-1299.64 555.256,-1200 494.283,-1116.14 539.732,-1070.99 516.256,-970 503.899,-916.843 484.64,-856.023 473.354,-821.897"/>
<polygon fill="black" stroke="black" points="476.605,-820.583 470.124,-812.202 469.964,-822.795 476.605,-820.583"/>
</g>
<!-- jinue__types__h&#45;&gt;hal__kernel__h -->
<g id="edge40" class="edge"><title>jinue__types__h&#45;&gt;hal__kernel__h</title>
<path fill="none" stroke="black" d="M918.197,-1357.98C961.349,-1330.26 1043.95,-1271.24 1089.26,-1200 1146.39,-1110.16 1115.44,-1068.34 1156.26,-970 1186.99,-895.959 1223.29,-889.639 1243.26,-812 1268.11,-715.352 1137.21,-647.011 1065.57,-617.415"/>
<polygon fill="black" stroke="black" points="1066.46,-613.999 1055.88,-613.497 1063.84,-620.489 1066.46,-613.999"/>
</g>
<!-- jinue__types__h&#45;&gt;hal__thread_ctx__h -->
<g id="edge49" class="edge"><title>jinue__types__h&#45;&gt;hal__thread_ctx__h</title>
<path fill="none" stroke="black" d="M933.374,-1369.12C1015.89,-1355.48 1196.01,-1313.65 1287.26,-1200 1352.52,-1118.71 1305.3,-1070.43 1333.26,-970 1348.17,-916.436 1371.52,-855.757 1385.21,-821.766"/>
<polygon fill="black" stroke="black" points="1388.61,-822.694 1389.13,-812.112 1382.13,-820.061 1388.61,-822.694"/>
</g>
<!-- jinue__types__h&#45;&gt;hal__thread__h -->
<g id="edge52" class="edge"><title>jinue__types__h&#45;&gt;hal__thread__h</title>
<path fill="none" stroke="black" d="M879.192,-1357.83C833.189,-1284.11 664.161,-988.527 767.256,-776 871.107,-561.916 1165.69,-455.576 1284.08,-420.525"/>
<polygon fill="black" stroke="black" points="1285.36,-423.8 1293.98,-417.641 1283.4,-417.08 1285.36,-423.8"/>
</g>
<!-- jinue__types__h&#45;&gt;hal__vm__h -->
<g id="edge59" class="edge"><title>jinue__types__h&#45;&gt;hal__vm__h</title>
<path fill="none" stroke="black" d="M933.264,-1369.85C1015.19,-1357.45 1192.13,-1317.7 1267.26,-1200 1305.61,-1139.91 1255.8,-1054.88 1226.25,-1013.52"/>
<polygon fill="black" stroke="black" points="1229.02,-1011.38 1220.29,-1005.38 1223.37,-1015.51 1229.02,-1011.38"/>
</g>
<!-- jinue__types__h&#45;&gt;jinue__page_tables__h -->
<g id="edge68" class="edge"><title>jinue__types__h&#45;&gt;jinue__page_tables__h</title>
<path fill="none" stroke="black" d="M917.5,-1357.96C973.028,-1323.23 1099.28,-1244.28 1161.39,-1205.43"/>
<polygon fill="black" stroke="black" points="1163.45,-1208.27 1170.07,-1200 1159.74,-1202.34 1163.45,-1208.27"/>
</g>
<!-- jinue__types__h&#45;&gt;jinue__pfaddr__h -->
<g id="edge69" class="edge"><title>jinue__types__h&#45;&gt;jinue__pfaddr__h</title>
<path fill="none" stroke="black" d="M864.98,-1357.98C828.447,-1328.68 761.729,-1265.48 721.256,-1200 683.586,-1139.05 658.443,-1057.7 650.39,-1016.06"/>
<polygon fill="black" stroke="black" points="653.826,-1015.39 648.678,-1006.13 646.927,-1016.57 653.826,-1015.39"/>
</g>
<!-- jinue__types__h&#45;&gt;jinue__pfalloc__h -->
<g id="edge71" class="edge"><title>jinue__types__h&#45;&gt;jinue__pfalloc__h</title>
<path fill="none" stroke="black" d="M933.257,-1359.93C1031.23,-1325.61 1271.03,-1241.59 1381.21,-1202.99"/>
<polygon fill="black" stroke="black" points="1382.54,-1206.23 1390.82,-1199.62 1380.23,-1199.62 1382.54,-1206.23"/>
</g>
<!-- jinue__vm__h -->
<g id="node56" class="node"><title>jinue__vm__h</title>
<polygon fill="none" stroke="black" points="508.256,-1200 432.256,-1200 432.256,-1164 508.256,-1164 508.256,-1200"/>
<text text-anchor="middle" x="470.256" y="-1178.3" font-family="Times,serif" font-size="14.00">jinue/vm.h</text>
</g>
<!-- jinue__types__h&#45;&gt;jinue__vm__h -->
<g id="edge75" class="edge"><title>jinue__types__h&#45;&gt;jinue__vm__h</title>
<path fill="none" stroke="black" d="M852.984,-1357.96C776.239,-1322.88 600.746,-1242.65 516.739,-1204.25"/>
<polygon fill="black" stroke="black" points="517.995,-1200.98 507.445,-1200 515.084,-1207.34 517.995,-1200.98"/>
</g>
<!-- jinue__types__h&#45;&gt;jinue__syscall__h -->
<g id="edge79" class="edge"><title>jinue__types__h&#45;&gt;jinue__syscall__h</title>
<path fill="none" stroke="black" d="M933.488,-1371.41C1038.1,-1360.93 1309.83,-1322.89 1494.26,-1200 1586.33,-1138.65 1613.5,-1110.36 1650.26,-1006 1674.21,-937.996 1621.72,-859.103 1590.05,-819.848"/>
<polygon fill="black" stroke="black" points="1592.71,-817.572 1583.64,-812.092 1587.31,-822.03 1592.71,-817.572"/>
</g>
<!-- jinue__descriptors__h -->
<g id="node52" class="node"><title>jinue__descriptors__h</title>
<polygon fill="none" stroke="black" points="262.506,-1006 146.006,-1006 146.006,-970 262.506,-970 262.506,-1006"/>
<text text-anchor="middle" x="204.256" y="-984.3" font-family="Times,serif" font-size="14.00">jinue/descriptors.h</text>
</g>
<!-- jinue__descriptors__h&#45;&gt;hal__descriptors__h -->
<g id="edge36" class="edge"><title>jinue__descriptors__h&#45;&gt;hal__descriptors__h</title>
<path fill="none" stroke="black" d="M227.329,-969.961C274.42,-935.187 381.571,-856.06 434.096,-817.272"/>
<polygon fill="black" stroke="black" points="436.376,-819.94 442.341,-811.184 432.217,-814.309 436.376,-819.94"/>
</g>
<!-- jinue__console__h -->
<g id="node53" class="node"><title>jinue__console__h</title>
<polygon fill="none" stroke="black" points="1467.51,-1588 1369.01,-1588 1369.01,-1552 1467.51,-1552 1467.51,-1588"/>
<text text-anchor="middle" x="1418.26" y="-1566.3" font-family="Times,serif" font-size="14.00">jinue/console.h</text>
</g>
<!-- jinue__console__h&#45;&gt;console__h -->
<g id="edge11" class="edge"><title>jinue__console__h&#45;&gt;console__h</title>
<path fill="none" stroke="black" d="M1418.26,-1551.96C1418.26,-1518.59 1418.26,-1444.36 1418.26,-1404.15"/>
<polygon fill="black" stroke="black" points="1421.76,-1404 1418.26,-1394 1414.76,-1404 1421.76,-1404"/>
</g>
<!-- jinue__errno__h -->
<g id="node54" class="node"><title>jinue__errno__h</title>
<polygon fill="none" stroke="black" points="2099.26,-1588 2013.26,-1588 2013.26,-1552 2099.26,-1552 2099.26,-1588"/>
<text text-anchor="middle" x="2056.26" y="-1566.3" font-family="Times,serif" font-size="14.00">jinue/errno.h</text>
</g>
<!-- jinue__list__h -->
<g id="node55" class="node"><title>jinue__list__h</title>
<polygon fill="none" stroke="black" points="2058.26,-812 1984.26,-812 1984.26,-776 2058.26,-776 2058.26,-812"/>
<text text-anchor="middle" x="2021.26" y="-790.3" font-family="Times,serif" font-size="14.00">jinue/list.h</text>
</g>
<!-- jinue__list__h&#45;&gt;thread_decl__h -->
<g id="edge15" class="edge"><title>jinue__list__h&#45;&gt;thread_decl__h</title>
<path fill="none" stroke="black" d="M1999.25,-775.961C1954.31,-741.172 1852.04,-661.991 1801.96,-623.222"/>
<polygon fill="black" stroke="black" points="1803.86,-620.269 1793.81,-616.915 1799.58,-625.804 1803.86,-620.269"/>
</g>
<!-- jinue__list__h&#45;&gt;ipc__h -->
<g id="edge22" class="edge"><title>jinue__list__h&#45;&gt;ipc__h</title>
<path fill="none" stroke="black" d="M2019.75,-775.911C2015.15,-719.926 2002.81,-537.075 2023.26,-388 2030.67,-333.974 2050,-273.002 2061.75,-239.175"/>
<polygon fill="black" stroke="black" points="2065.1,-240.182 2065.13,-229.587 2058.5,-237.855 2065.1,-240.182"/>
</g>
<!-- jinue__vm__h&#45;&gt;slab__h -->
<g id="edge21" class="edge"><title>jinue__vm__h&#45;&gt;slab__h</title>
<path fill="none" stroke="black" d="M456.235,-1163.96C427.89,-1129.52 363.738,-1051.56 331.503,-1012.39"/>
<polygon fill="black" stroke="black" points="334.191,-1010.15 325.134,-1004.65 328.785,-1014.59 334.191,-1010.15"/>
</g>
<!-- jinue__vm__h&#45;&gt;hal__vm_macros__h -->
<g id="edge39" class="edge"><title>jinue__vm__h&#45;&gt;hal__vm_macros__h</title>
<path fill="none" stroke="black" d="M467.15,-1163.96C461.053,-1130.51 447.477,-1056.04 440.158,-1015.89"/>
<polygon fill="black" stroke="black" points="443.592,-1015.21 438.355,-1006 436.705,-1016.47 443.592,-1015.21"/>
</g>
<!-- jinue__vm__h&#45;&gt;hal__vm__h -->
<g id="edge60" class="edge"><title>jinue__vm__h&#45;&gt;hal__vm__h</title>
<path fill="none" stroke="black" d="M508.329,-1171.08C632.863,-1138.64 1027.79,-1035.75 1162.06,-1000.77"/>
<polygon fill="black" stroke="black" points="1163.22,-1004.09 1172.02,-998.181 1161.46,-997.315 1163.22,-1004.09"/>
</g>
<!-- jinue__vm__h&#45;&gt;jinue__pfaddr__h -->
<g id="edge70" class="edge"><title>jinue__vm__h&#45;&gt;jinue__pfaddr__h</title>
<path fill="none" stroke="black" d="M486.141,-1163.96C517.987,-1129.8 589.727,-1052.85 626.533,-1013.37"/>
<polygon fill="black" stroke="black" points="629.148,-1015.7 633.407,-1006 624.028,-1010.93 629.148,-1015.7"/>
</g>
<!-- jinue__syscall__h&#45;&gt;syscall__h -->
<g id="edge8" class="edge"><title>jinue__syscall__h&#45;&gt;syscall__h</title>
<path fill="none" stroke="black" d="M1577.14,-775.665C1592.49,-744.849 1623.71,-678.109 1638.26,-618 1653.88,-553.464 1657.41,-475.068 1658.14,-434.419"/>
<polygon fill="black" stroke="black" points="1661.64,-434.276 1658.28,-424.23 1654.64,-434.182 1661.64,-434.276"/>
</g>
<!-- jinue__syscall__h&#45;&gt;thread_decl__h -->
<g id="edge16" class="edge"><title>jinue__syscall__h&#45;&gt;thread_decl__h</title>
<path fill="none" stroke="black" d="M1586.45,-775.961C1623.18,-741.56 1706.25,-663.752 1748.13,-624.534"/>
<polygon fill="black" stroke="black" points="1750.78,-626.845 1755.69,-617.454 1746,-621.735 1750.78,-626.845"/>
</g>
<!-- jinue__syscall__h&#45;&gt;hal__syscall__h -->
<g id="edge57" class="edge"><title>jinue__syscall__h&#45;&gt;hal__syscall__h</title>
<path fill="none" stroke="black" d="M1568.88,-775.961C1570.09,-742.586 1572.8,-668.357 1574.27,-628.145"/>
<polygon fill="black" stroke="black" points="1577.77,-628.121 1574.64,-618.001 1570.77,-627.866 1577.77,-628.121"/>
</g>
<!-- jinue__ipc__h -->
<g id="node58" class="node"><title>jinue__ipc__h</title>
<polygon fill="none" stroke="black" points="1928.26,-812 1854.26,-812 1854.26,-776 1928.26,-776 1928.26,-812"/>
<text text-anchor="middle" x="1891.26" y="-790.3" font-family="Times,serif" font-size="14.00">jinue/ipc.h</text>
</g>
<!-- jinue__ipc__h&#45;&gt;thread_decl__h -->
<g id="edge14" class="edge"><title>jinue__ipc__h&#45;&gt;thread_decl__h</title>
<path fill="none" stroke="black" d="M1880.78,-775.961C1859.96,-742.074 1813.25,-666.069 1788.82,-626.318"/>
<polygon fill="black" stroke="black" points="1791.75,-624.413 1783.54,-617.726 1785.79,-628.079 1791.75,-624.413"/>
</g>
<!-- jinue__syscall_args__h -->
<g id="node59" class="node"><title>jinue__syscall_args__h</title>
<polygon fill="none" stroke="black" points="1822.26,-1006 1698.26,-1006 1698.26,-970 1822.26,-970 1822.26,-1006"/>
<text text-anchor="middle" x="1760.26" y="-984.3" font-family="Times,serif" font-size="14.00">jinue/syscall_args.h</text>
</g>
<!-- jinue__syscall_args__h&#45;&gt;ipc__h -->
<g id="edge23" class="edge"><title>jinue__syscall_args__h&#45;&gt;ipc__h</title>
<path fill="none" stroke="black" d="M1822.49,-969.92C1894.16,-946.757 2009.43,-898.055 2067.26,-812 2173.12,-654.465 2143.09,-576.172 2118.26,-388 2111.13,-334.015 2092.16,-273.028 2080.61,-239.188"/>
<polygon fill="black" stroke="black" points="2083.87,-237.899 2077.29,-229.596 2077.25,-240.19 2083.87,-237.899"/>
</g>
<!-- jinue__syscall_args__h&#45;&gt;jinue__syscall__h -->
<g id="edge78" class="edge"><title>jinue__syscall_args__h&#45;&gt;jinue__syscall__h</title>
<path fill="none" stroke="black" d="M1743.22,-969.961C1709.06,-935.803 1632.11,-858.852 1592.63,-819.373"/>
<polygon fill="black" stroke="black" points="1594.8,-816.597 1585.26,-812.001 1589.85,-821.547 1594.8,-816.597"/>
</g>
<!-- jinue__syscall_args__h&#45;&gt;jinue__ipc__h -->
<g id="edge81" class="edge"><title>jinue__syscall_args__h&#45;&gt;jinue__ipc__h</title>
<path fill="none" stroke="black" d="M1771.88,-969.961C1794.99,-936.088 1846.82,-860.132 1873.95,-820.368"/>
<polygon fill="black" stroke="black" points="1876.91,-822.234 1879.66,-812.001 1871.13,-818.288 1876.91,-822.234"/>
</g>
<!-- jinue__asm__descriptors__h -->
<g id="node60" class="node"><title>jinue__asm__descriptors__h</title>
<polygon fill="none" stroke="black" points="313.506,-1200 171.006,-1200 171.006,-1164 313.506,-1164 313.506,-1200"/>
<text text-anchor="middle" x="242.256" y="-1178.3" font-family="Times,serif" font-size="14.00">jinue/asm/descriptors.h</text>
</g>
<!-- jinue__asm__descriptors__h&#45;&gt;jinue__descriptors__h -->
<g id="edge73" class="edge"><title>jinue__asm__descriptors__h&#45;&gt;jinue__descriptors__h</title>
<path fill="none" stroke="black" d="M238.884,-1163.96C232.264,-1130.51 217.525,-1056.04 209.578,-1015.89"/>
<polygon fill="black" stroke="black" points="212.996,-1015.13 207.621,-1006 206.129,-1016.49 212.996,-1015.13"/>
</g>
<!-- jinue__asm__vm__h -->
<g id="node61" class="node"><title>jinue__asm__vm__h</title>
<polygon fill="none" stroke="black" points="521.256,-1588 419.256,-1588 419.256,-1552 521.256,-1552 521.256,-1588"/>
<text text-anchor="middle" x="470.256" y="-1566.3" font-family="Times,serif" font-size="14.00">jinue/asm/vm.h</text>
</g>
<!-- jinue__asm__vm__h&#45;&gt;hal__asm__boot__h -->
<g id="edge66" class="edge"><title>jinue__asm__vm__h&#45;&gt;hal__asm__boot__h</title>
<path fill="none" stroke="black" d="M436.356,-1551.96C365.525,-1516.36 202.209,-1434.27 127.206,-1396.58"/>
<polygon fill="black" stroke="black" points="128.587,-1393.35 118.081,-1391.99 125.444,-1399.61 128.587,-1393.35"/>
</g>
<!-- jinue__asm__vm__h&#45;&gt;hal__asm__thread__h -->
<g id="edge67" class="edge"><title>jinue__asm__vm__h&#45;&gt;hal__asm__thread__h</title>
<path fill="none" stroke="black" d="M521.301,-1556.99C665.063,-1523.16 1072.84,-1427.21 1226.6,-1391.04"/>
<polygon fill="black" stroke="black" points="1227.86,-1394.34 1236.79,-1388.64 1226.25,-1387.52 1227.86,-1394.34"/>
</g>
<!-- jinue__asm__vm__h&#45;&gt;jinue__vm__h -->
<g id="edge74" class="edge"><title>jinue__asm__vm__h&#45;&gt;jinue__vm__h</title>
<path fill="none" stroke="black" d="M470.256,-1551.92C470.256,-1491.14 470.256,-1285.1 470.256,-1210.37"/>
<polygon fill="black" stroke="black" points="473.756,-1210.32 470.256,-1200.32 466.756,-1210.32 473.756,-1210.32"/>
</g>
<!-- jinue__asm__syscall__h -->
<g id="node62" class="node"><title>jinue__asm__syscall__h</title>
<polygon fill="none" stroke="black" points="1641.51,-1006 1521.01,-1006 1521.01,-970 1641.51,-970 1641.51,-1006"/>
<text text-anchor="middle" x="1581.26" y="-984.3" font-family="Times,serif" font-size="14.00">jinue/asm/syscall.h</text>
</g>
<!-- jinue__asm__syscall__h&#45;&gt;jinue__syscall__h -->
<g id="edge76" class="edge"><title>jinue__asm__syscall__h&#45;&gt;jinue__syscall__h</title>
<path fill="none" stroke="black" d="M1580.1,-969.961C1577.84,-936.586 1572.82,-862.357 1570.09,-822.145"/>
<polygon fill="black" stroke="black" points="1573.57,-821.741 1569.41,-812.001 1566.59,-822.214 1573.57,-821.741"/>
</g>
<!-- jinue__asm__ipc__h -->
<g id="node63" class="node"><title>jinue__asm__ipc__h</title>
<polygon fill="none" stroke="black" points="1941.51,-1006 1841.01,-1006 1841.01,-970 1941.51,-970 1941.51,-1006"/>
<text text-anchor="middle" x="1891.26" y="-984.3" font-family="Times,serif" font-size="14.00">jinue/asm/ipc.h</text>
</g>
<!-- jinue__asm__ipc__h&#45;&gt;jinue__ipc__h -->
<g id="edge80" class="edge"><title>jinue__asm__ipc__h&#45;&gt;jinue__ipc__h</title>
<path fill="none" stroke="black" d="M1891.26,-969.961C1891.26,-936.586 1891.26,-862.357 1891.26,-822.145"/>
<polygon fill="black" stroke="black" points="1894.76,-822 1891.26,-812.001 1887.76,-822.001 1894.76,-822"/>
</g>
</g>
</svg>
