<?xml version="1.0" encoding="UTF-8" standalone="no"?>
<!DOCTYPE svg PUBLIC "-//W3C//DTD SVG 1.1//EN"
 "http://www.w3.org/Graphics/SVG/1.1/DTD/svg11.dtd">
<!-- Generated by graphviz version 2.30.1 (20150306.0020)
 -->
<!-- Title: hdeps Pages: 1 -->
<svg width="2724pt" height="1402pt"
 viewBox="0.00 0.00 2724.00 1402.00" xmlns="http://www.w3.org/2000/svg" xmlns:xlink="http://www.w3.org/1999/xlink">
<g id="graph0" class="graph" transform="scale(1 1) rotate(0) translate(4 1398)">
<title>hdeps</title>
<polygon fill="white" stroke="white" points="-4,5 -4,-1398 2721,-1398 2721,5 -4,5"/>
<!-- printk__h -->
<g id="node1" class="node"><title>printk__h</title>
<ellipse fill="none" stroke="black" cx="38" cy="-1376" rx="38.0212" ry="18"/>
<text text-anchor="middle" x="38" y="-1372.3" font-family="Times,serif" font-size="14.00">printk.h</text>
</g>
<!-- kbd__h -->
<g id="node2" class="node"><title>kbd__h</title>
<ellipse fill="none" stroke="black" cx="125" cy="-1376" rx="30.3206" ry="18"/>
<text text-anchor="middle" x="125" y="-1372.3" font-family="Times,serif" font-size="14.00">kbd.h</text>
</g>
<!-- debug__h -->
<g id="node3" class="node"><title>debug__h</title>
<ellipse fill="none" stroke="black" cx="213" cy="-1376" rx="38.4949" ry="18"/>
<text text-anchor="middle" x="213" y="-1372.3" font-family="Times,serif" font-size="14.00">debug.h</text>
</g>
<!-- pfalloc__h -->
<g id="node4" class="node"><title>pfalloc__h</title>
<ellipse fill="none" stroke="black" cx="843" cy="-600" rx="42.3701" ry="18"/>
<text text-anchor="middle" x="843" y="-596.3" font-family="Times,serif" font-size="14.00">pfalloc.h</text>
</g>
<!-- vm_alloc__h -->
<g id="node5" class="node"><title>vm_alloc__h</title>
<ellipse fill="none" stroke="black" cx="1366" cy="-406" rx="50.5427" ry="18"/>
<text text-anchor="middle" x="1366" y="-402.3" font-family="Times,serif" font-size="14.00">vm_alloc.h</text>
</g>
<!-- hal__kernel__h -->
<g id="node28" class="node"><title>hal__kernel__h</title>
<ellipse fill="none" stroke="black" cx="1304" cy="-212" rx="52.4675" ry="18"/>
<text text-anchor="middle" x="1304" y="-208.3" font-family="Times,serif" font-size="14.00">hal/kernel.h</text>
</g>
<!-- vm_alloc__h&#45;&gt;hal__kernel__h -->
<g id="edge35" class="edge"><title>vm_alloc__h&#45;&gt;hal__kernel__h</title>
<path fill="none" stroke="black" d="M1360.5,-387.961C1349.67,-354.444 1325.55,-279.723 1312.6,-239.633"/>
<polygon fill="black" stroke="black" points="1315.89,-238.441 1309.49,-230.001 1309.23,-240.592 1315.89,-238.441"/>
</g>
<!-- ascii__h -->
<g id="node6" class="node"><title>ascii__h</title>
<ellipse fill="none" stroke="black" cx="1627" cy="-1376" rx="33.1991" ry="18"/>
<text text-anchor="middle" x="1627" y="-1372.3" font-family="Times,serif" font-size="14.00">ascii.h</text>
</g>
<!-- core__h -->
<g id="node7" class="node"><title>core__h</title>
<ellipse fill="none" stroke="black" cx="1711" cy="-1376" rx="32.2457" ry="18"/>
<text text-anchor="middle" x="1711" y="-1372.3" font-family="Times,serif" font-size="14.00">core.h</text>
</g>
<!-- elf__h -->
<g id="node8" class="node"><title>elf__h</title>
<ellipse fill="none" stroke="black" cx="804" cy="-406" rx="27" ry="18"/>
<text text-anchor="middle" x="804" y="-402.3" font-family="Times,serif" font-size="14.00">elf.h</text>
</g>
<!-- syscall__h -->
<g id="node9" class="node"><title>syscall__h</title>
<ellipse fill="none" stroke="black" cx="1886" cy="-794" rx="41.394" ry="18"/>
<text text-anchor="middle" x="1886" y="-790.3" font-family="Times,serif" font-size="14.00">syscall.h</text>
</g>
<!-- util__h -->
<g id="node10" class="node"><title>util__h</title>
<ellipse fill="none" stroke="black" cx="1602" cy="-600" rx="29.3722" ry="18"/>
<text text-anchor="middle" x="1602" y="-596.3" font-family="Times,serif" font-size="14.00">util.h</text>
</g>
<!-- console__h -->
<g id="node11" class="node"><title>console__h</title>
<ellipse fill="none" stroke="black" cx="1812" cy="-1182" rx="44.2946" ry="18"/>
<text text-anchor="middle" x="1812" y="-1178.3" font-family="Times,serif" font-size="14.00">console.h</text>
</g>
<!-- panic__h -->
<g id="node12" class="node"><title>panic__h</title>
<ellipse fill="none" stroke="black" cx="2029" cy="-1376" rx="36.096" ry="18"/>
<text text-anchor="middle" x="2029" y="-1372.3" font-family="Times,serif" font-size="14.00">panic.h</text>
</g>
<!-- thread__h -->
<g id="node13" class="node"><title>thread__h</title>
<ellipse fill="none" stroke="black" cx="1689" cy="-600" rx="39.4691" ry="18"/>
<text text-anchor="middle" x="1689" y="-596.3" font-family="Times,serif" font-size="14.00">thread.h</text>
</g>
<!-- slab__h -->
<g id="node14" class="node"><title>slab__h</title>
<ellipse fill="none" stroke="black" cx="491" cy="-988" rx="31.2735" ry="18"/>
<text text-anchor="middle" x="491" y="-984.3" font-family="Times,serif" font-size="14.00">slab.h</text>
</g>
<!-- ipc__h -->
<g id="node15" class="node"><title>ipc__h</title>
<ellipse fill="none" stroke="black" cx="1775" cy="-600" rx="28.3955" ry="18"/>
<text text-anchor="middle" x="1775" y="-596.3" font-family="Times,serif" font-size="14.00">ipc.h</text>
</g>
<!-- object__h -->
<g id="node16" class="node"><title>object__h</title>
<ellipse fill="none" stroke="black" cx="1861" cy="-600" rx="38.4949" ry="18"/>
<text text-anchor="middle" x="1861" y="-596.3" font-family="Times,serif" font-size="14.00">object.h</text>
</g>
<!-- process__h -->
<g id="node17" class="node"><title>process__h</title>
<ellipse fill="none" stroke="black" cx="931" cy="-406" rx="44.2946" ry="18"/>
<text text-anchor="middle" x="931" y="-402.3" font-family="Times,serif" font-size="14.00">process.h</text>
</g>
<!-- types__h -->
<g id="node18" class="node"><title>types__h</title>
<ellipse fill="none" stroke="black" cx="1383" cy="-794" rx="36.096" ry="18"/>
<text text-anchor="middle" x="1383" y="-790.3" font-family="Times,serif" font-size="14.00">types.h</text>
</g>
<!-- types__h&#45;&gt;pfalloc__h -->
<g id="edge2" class="edge"><title>types__h&#45;&gt;pfalloc__h</title>
<path fill="none" stroke="black" d="M1354.35,-782.813C1264.58,-750.894 988.525,-652.742 883.833,-615.518"/>
<polygon fill="black" stroke="black" points="884.843,-612.163 874.249,-612.111 882.498,-618.759 884.843,-612.163"/>
</g>
<!-- types__h&#45;&gt;vm_alloc__h -->
<g id="edge4" class="edge"><title>types__h&#45;&gt;vm_alloc__h</title>
<path fill="none" stroke="black" d="M1376.14,-775.985C1364.11,-745.125 1339.67,-677.593 1331,-618 1321.32,-551.407 1342.88,-473.358 1356.31,-433.445"/>
<polygon fill="black" stroke="black" points="1359.64,-434.516 1359.6,-423.921 1353.02,-432.227 1359.64,-434.516"/>
</g>
<!-- types__h&#45;&gt;elf__h -->
<g id="edge7" class="edge"><title>types__h&#45;&gt;elf__h</title>
<path fill="none" stroke="black" d="M1352.71,-784.053C1262.87,-757.094 999.974,-675.001 932,-618 870.476,-566.407 830.435,-477.279 813.394,-433.218"/>
<polygon fill="black" stroke="black" points="816.638,-431.9 809.831,-423.781 810.089,-434.373 816.638,-431.9"/>
</g>
<!-- types__h&#45;&gt;util__h -->
<g id="edge10" class="edge"><title>types__h&#45;&gt;util__h</title>
<path fill="none" stroke="black" d="M1400.18,-777.934C1439.01,-743.896 1533.57,-660.99 1578.09,-621.965"/>
<polygon fill="black" stroke="black" points="1580.58,-624.435 1585.79,-615.211 1575.96,-619.171 1580.58,-624.435"/>
</g>
<!-- types__h&#45;&gt;thread__h -->
<g id="edge12" class="edge"><title>types__h&#45;&gt;thread__h</title>
<path fill="none" stroke="black" d="M1404.52,-779.499C1457.81,-746.061 1596.09,-659.299 1658.11,-620.385"/>
<polygon fill="black" stroke="black" points="1660.07,-623.282 1666.68,-615.002 1656.35,-617.352 1660.07,-623.282"/>
</g>
<!-- types__h&#45;&gt;ipc__h -->
<g id="edge14" class="edge"><title>types__h&#45;&gt;ipc__h</title>
<path fill="none" stroke="black" d="M1407.82,-780.844C1476.41,-747.247 1668.47,-653.177 1743.97,-616.201"/>
<polygon fill="black" stroke="black" points="1745.55,-619.321 1752.99,-611.779 1742.47,-613.034 1745.55,-619.321"/>
</g>
<!-- types__h&#45;&gt;object__h -->
<g id="edge15" class="edge"><title>types__h&#45;&gt;object__h</title>
<path fill="none" stroke="black" d="M1410.42,-781.988C1491.56,-749.395 1730.62,-653.37 1823.5,-616.063"/>
<polygon fill="black" stroke="black" points="1824.82,-619.304 1832.8,-612.328 1822.21,-612.808 1824.82,-619.304"/>
</g>
<!-- types__h&#45;&gt;process__h -->
<g id="edge17" class="edge"><title>types__h&#45;&gt;process__h</title>
<path fill="none" stroke="black" d="M1355.45,-782.211C1298.47,-758.902 1165.6,-699.309 1077,-618 1015.82,-561.857 966.329,-475.606 943.94,-432.857"/>
<polygon fill="black" stroke="black" points="947.031,-431.215 939.332,-423.937 940.812,-434.428 947.031,-431.215"/>
</g>
<!-- hal__frame_pointer__h -->
<g id="node19" class="node"><title>hal__frame_pointer__h</title>
<ellipse fill="none" stroke="black" cx="1999" cy="-600" rx="81.3646" ry="18"/>
<text text-anchor="middle" x="1999" y="-596.3" font-family="Times,serif" font-size="14.00">hal/frame_pointer.h</text>
</g>
<!-- types__h&#45;&gt;hal__frame_pointer__h -->
<g id="edge23" class="edge"><title>types__h&#45;&gt;hal__frame_pointer__h</title>
<path fill="none" stroke="black" d="M1413.13,-783.609C1510.49,-753.262 1817.68,-657.517 1943.96,-618.155"/>
<polygon fill="black" stroke="black" points="1945.31,-621.401 1953.82,-615.084 1943.23,-614.718 1945.31,-621.401"/>
</g>
<!-- hal__bootmem__h -->
<g id="node22" class="node"><title>hal__bootmem__h</title>
<ellipse fill="none" stroke="black" cx="566" cy="-600" rx="64.4914" ry="18"/>
<text text-anchor="middle" x="566" y="-596.3" font-family="Times,serif" font-size="14.00">hal/bootmem.h</text>
</g>
<!-- types__h&#45;&gt;hal__bootmem__h -->
<g id="edge28" class="edge"><title>types__h&#45;&gt;hal__bootmem__h</title>
<path fill="none" stroke="black" d="M1352.99,-783.841C1344.02,-781.201 1334.14,-778.39 1325,-776 1066.43,-708.358 754.699,-640.85 626.024,-613.589"/>
<polygon fill="black" stroke="black" points="626.485,-610.109 615.977,-611.463 625.036,-616.957 626.485,-610.109"/>
</g>
<!-- hal__descriptors__h -->
<g id="node23" class="node"><title>hal__descriptors__h</title>
<ellipse fill="none" stroke="black" cx="2168" cy="-600" rx="69.3156" ry="18"/>
<text text-anchor="middle" x="2168" y="-596.3" font-family="Times,serif" font-size="14.00">hal/descriptors.h</text>
</g>
<!-- types__h&#45;&gt;hal__descriptors__h -->
<g id="edge30" class="edge"><title>types__h&#45;&gt;hal__descriptors__h</title>
<path fill="none" stroke="black" d="M1414.2,-784.872C1425.19,-782.033 1437.64,-778.846 1449,-776 1693.55,-714.747 1985.65,-644.573 2108.72,-615.146"/>
<polygon fill="black" stroke="black" points="2109.78,-618.491 2118.69,-612.762 2108.15,-611.683 2109.78,-618.491"/>
</g>
<!-- types__h&#45;&gt;hal__kernel__h -->
<g id="edge34" class="edge"><title>types__h&#45;&gt;hal__kernel__h</title>
<path fill="none" stroke="black" d="M1381.15,-775.64C1377.9,-744.234 1371.31,-675.864 1369,-618 1368.36,-602.013 1366.29,-597.769 1369,-582 1381.63,-508.575 1412.37,-497.425 1425,-424 1427.71,-408.231 1429.77,-403.274 1425,-388 1405.93,-326.889 1357.22,-268.315 1327.75,-236.851"/>
<polygon fill="black" stroke="black" points="1330.13,-234.278 1320.7,-229.451 1325.06,-239.106 1330.13,-234.278"/>
</g>
<!-- hal__cpu_data__h -->
<g id="node30" class="node"><title>hal__cpu_data__h</title>
<ellipse fill="none" stroke="black" cx="1711" cy="-212" rx="62.0922" ry="18"/>
<text text-anchor="middle" x="1711" y="-208.3" font-family="Times,serif" font-size="14.00">hal/cpu_data.h</text>
</g>
<!-- types__h&#45;&gt;hal__cpu_data__h -->
<g id="edge41" class="edge"><title>types__h&#45;&gt;hal__cpu_data__h</title>
<path fill="none" stroke="black" d="M1380.61,-775.783C1376.22,-738.349 1370.05,-647.647 1402,-582 1446.85,-489.835 1503.77,-502.226 1570,-424 1622.43,-362.079 1672.39,-280.058 1696.31,-238.897"/>
<polygon fill="black" stroke="black" points="1699.44,-240.462 1701.41,-230.051 1693.38,-236.964 1699.44,-240.462"/>
</g>
<!-- hal__thread__h -->
<g id="node31" class="node"><title>hal__thread__h</title>
<ellipse fill="none" stroke="black" cx="931" cy="-212" rx="52.4675" ry="18"/>
<text text-anchor="middle" x="931" y="-208.3" font-family="Times,serif" font-size="14.00">hal/thread.h</text>
</g>
<!-- types__h&#45;&gt;hal__thread__h -->
<g id="edge45" class="edge"><title>types__h&#45;&gt;hal__thread__h</title>
<path fill="none" stroke="black" d="M1364.46,-778.358C1306.79,-732.003 1128.08,-582.163 1022,-424 981.335,-363.372 952.309,-281.608 939.06,-239.902"/>
<polygon fill="black" stroke="black" points="942.353,-238.704 936.034,-230.199 935.67,-240.788 942.353,-238.704"/>
</g>
<!-- hal__page_tables__h -->
<g id="node32" class="node"><title>hal__page_tables__h</title>
<ellipse fill="none" stroke="black" cx="1483" cy="-600" rx="72.2155" ry="18"/>
<text text-anchor="middle" x="1483" y="-596.3" font-family="Times,serif" font-size="14.00">hal/page_tables.h</text>
</g>
<!-- types__h&#45;&gt;hal__page_tables__h -->
<g id="edge46" class="edge"><title>types__h&#45;&gt;hal__page_tables__h</title>
<path fill="none" stroke="black" d="M1391.7,-776.297C1409.16,-742.765 1448.6,-667.044 1469.47,-626.983"/>
<polygon fill="black" stroke="black" points="1472.59,-628.562 1474.11,-618.076 1466.38,-625.329 1472.59,-628.562"/>
</g>
<!-- hal__vm__h -->
<g id="node36" class="node"><title>hal__vm__h</title>
<ellipse fill="none" stroke="black" cx="983" cy="-600" rx="42.3701" ry="18"/>
<text text-anchor="middle" x="983" y="-596.3" font-family="Times,serif" font-size="14.00">hal/vm.h</text>
</g>
<!-- types__h&#45;&gt;hal__vm__h -->
<g id="edge50" class="edge"><title>types__h&#45;&gt;hal__vm__h</title>
<path fill="none" stroke="black" d="M1357.98,-780.99C1289.52,-748.132 1098.96,-656.66 1019.02,-618.29"/>
<polygon fill="black" stroke="black" points="1020.37,-615.053 1009.84,-613.881 1017.34,-621.364 1020.37,-615.053"/>
</g>
<!-- hal__io__h -->
<g id="node20" class="node"><title>hal__io__h</title>
<ellipse fill="none" stroke="black" cx="2121" cy="-1376" rx="37.5442" ry="18"/>
<text text-anchor="middle" x="2121" y="-1372.3" font-family="Times,serif" font-size="14.00">hal/io.h</text>
</g>
<!-- hal__boot__h -->
<g id="node21" class="node"><title>hal__boot__h</title>
<ellipse fill="none" stroke="black" cx="399" cy="-600" rx="46.2191" ry="18"/>
<text text-anchor="middle" x="399" y="-596.3" font-family="Times,serif" font-size="14.00">hal/boot.h</text>
</g>
<!-- hal__cpu__h -->
<g id="node29" class="node"><title>hal__cpu__h</title>
<ellipse fill="none" stroke="black" cx="1878" cy="-18" rx="43.319" ry="18"/>
<text text-anchor="middle" x="1878" y="-14.3" font-family="Times,serif" font-size="14.00">hal/cpu.h</text>
</g>
<!-- hal__descriptors__h&#45;&gt;hal__cpu__h -->
<g id="edge38" class="edge"><title>hal__descriptors__h&#45;&gt;hal__cpu__h</title>
<path fill="none" stroke="black" d="M2159.48,-581.956C2118.37,-499.743 1940.53,-144.065 1890.9,-44.8086"/>
<polygon fill="black" stroke="black" points="1893.99,-43.1445 1886.38,-35.7655 1887.72,-46.275 1893.99,-43.1445"/>
</g>
<!-- hal__descriptors__h&#45;&gt;hal__cpu_data__h -->
<g id="edge39" class="edge"><title>hal__descriptors__h&#45;&gt;hal__cpu_data__h</title>
<path fill="none" stroke="black" d="M2148.66,-582.661C2076.4,-521.627 1822.16,-306.888 1738.16,-235.942"/>
<polygon fill="black" stroke="black" points="1740.25,-233.122 1730.35,-229.343 1735.73,-238.47 1740.25,-233.122"/>
</g>
<!-- hal__x86__h -->
<g id="node38" class="node"><title>hal__x86__h</title>
<ellipse fill="none" stroke="black" cx="1517" cy="-406" rx="44.2946" ry="18"/>
<text text-anchor="middle" x="1517" y="-402.3" font-family="Times,serif" font-size="14.00">hal/x86.h</text>
</g>
<!-- hal__descriptors__h&#45;&gt;hal__x86__h -->
<g id="edge51" class="edge"><title>hal__descriptors__h&#45;&gt;hal__x86__h</title>
<path fill="none" stroke="black" d="M2124.02,-586.029C2005.51,-551.077 1680.45,-455.206 1561.42,-420.102"/>
<polygon fill="black" stroke="black" points="1562.13,-416.662 1551.55,-417.19 1560.15,-423.376 1562.13,-416.662"/>
</g>
<!-- hal__irq__h -->
<g id="node40" class="node"><title>hal__irq__h</title>
<ellipse fill="none" stroke="black" cx="2240" cy="-406" rx="39.9464" ry="18"/>
<text text-anchor="middle" x="2240" y="-402.3" font-family="Times,serif" font-size="14.00">hal/irq.h</text>
</g>
<!-- hal__descriptors__h&#45;&gt;hal__irq__h -->
<g id="edge53" class="edge"><title>hal__descriptors__h&#45;&gt;hal__irq__h</title>
<path fill="none" stroke="black" d="M2174.39,-581.961C2186.99,-548.372 2215.1,-473.405 2230.11,-433.378"/>
<polygon fill="black" stroke="black" points="2233.39,-434.593 2233.62,-424.001 2226.84,-432.135 2233.39,-434.593"/>
</g>
<!-- hal__e820__h -->
<g id="node24" class="node"><title>hal__e820__h</title>
<ellipse fill="none" stroke="black" cx="553" cy="-794" rx="48.1437" ry="18"/>
<text text-anchor="middle" x="553" y="-790.3" font-family="Times,serif" font-size="14.00">hal/e820.h</text>
</g>
<!-- hal__e820__h&#45;&gt;hal__boot__h -->
<g id="edge26" class="edge"><title>hal__e820__h&#45;&gt;hal__boot__h</title>
<path fill="none" stroke="black" d="M539.87,-776.63C512.707,-742.765 450.228,-664.868 418.4,-625.186"/>
<polygon fill="black" stroke="black" points="421.084,-622.939 412.097,-617.328 415.623,-627.319 421.084,-622.939"/>
</g>
<!-- hal__e820__h&#45;&gt;hal__bootmem__h -->
<g id="edge27" class="edge"><title>hal__e820__h&#45;&gt;hal__bootmem__h</title>
<path fill="none" stroke="black" d="M554.154,-775.961C556.413,-742.586 561.439,-668.357 564.162,-628.145"/>
<polygon fill="black" stroke="black" points="567.665,-628.214 564.849,-618.001 560.681,-627.741 567.665,-628.214"/>
</g>
<!-- hal__vga__h -->
<g id="node25" class="node"><title>hal__vga__h</title>
<ellipse fill="none" stroke="black" cx="2220" cy="-1376" rx="43.319" ry="18"/>
<text text-anchor="middle" x="2220" y="-1372.3" font-family="Times,serif" font-size="14.00">hal/vga.h</text>
</g>
<!-- hal__vm_macros__h -->
<g id="node26" class="node"><title>hal__vm_macros__h</title>
<ellipse fill="none" stroke="black" cx="614" cy="-988" rx="72.192" ry="18"/>
<text text-anchor="middle" x="614" y="-984.3" font-family="Times,serif" font-size="14.00">hal/vm_macros.h</text>
</g>
<!-- hal__vm_x86__h -->
<g id="node27" class="node"><title>hal__vm_x86__h</title>
<ellipse fill="none" stroke="black" cx="2341" cy="-1376" rx="59.1941" ry="18"/>
<text text-anchor="middle" x="2341" y="-1372.3" font-family="Times,serif" font-size="14.00">hal/vm_x86.h</text>
</g>
<!-- hal__cpu_data__h&#45;&gt;hal__cpu__h -->
<g id="edge37" class="edge"><title>hal__cpu_data__h&#45;&gt;hal__cpu__h</title>
<path fill="none" stroke="black" d="M1725.53,-194.297C1755.16,-160.226 1822.68,-82.6014 1857.05,-43.0814"/>
<polygon fill="black" stroke="black" points="1859.94,-45.0982 1863.86,-35.256 1854.66,-40.5042 1859.94,-45.0982"/>
</g>
<!-- hal__pfaddr__h -->
<g id="node33" class="node"><title>hal__pfaddr__h</title>
<ellipse fill="none" stroke="black" cx="741" cy="-794" rx="53.4184" ry="18"/>
<text text-anchor="middle" x="741" y="-790.3" font-family="Times,serif" font-size="14.00">hal/pfaddr.h</text>
</g>
<!-- hal__hal__h -->
<g id="node34" class="node"><title>hal__hal__h</title>
<ellipse fill="none" stroke="black" cx="2460" cy="-1376" rx="41.394" ry="18"/>
<text text-anchor="middle" x="2460" y="-1372.3" font-family="Times,serif" font-size="14.00">hal/hal.h</text>
</g>
<!-- hal__syscall__h -->
<g id="node35" class="node"><title>hal__syscall__h</title>
<ellipse fill="none" stroke="black" cx="1931" cy="-988" rx="54.3924" ry="18"/>
<text text-anchor="middle" x="1931" y="-984.3" font-family="Times,serif" font-size="14.00">hal/syscall.h</text>
</g>
<!-- hal__syscall__h&#45;&gt;syscall__h -->
<g id="edge9" class="edge"><title>hal__syscall__h&#45;&gt;syscall__h</title>
<path fill="none" stroke="black" d="M1927.01,-969.961C1919.17,-936.515 1901.71,-862.04 1892.3,-821.888"/>
<polygon fill="black" stroke="black" points="1895.67,-820.938 1889.98,-812.001 1888.86,-822.535 1895.67,-820.938"/>
</g>
<!-- hal__interrupt__h -->
<g id="node39" class="node"><title>hal__interrupt__h</title>
<ellipse fill="none" stroke="black" cx="2007" cy="-794" rx="61.1419" ry="18"/>
<text text-anchor="middle" x="2007" y="-790.3" font-family="Times,serif" font-size="14.00">hal/interrupt.h</text>
</g>
<!-- hal__syscall__h&#45;&gt;hal__interrupt__h -->
<g id="edge52" class="edge"><title>hal__syscall__h&#45;&gt;hal__interrupt__h</title>
<path fill="none" stroke="black" d="M1937.74,-969.961C1951.04,-936.372 1980.71,-861.405 1996.56,-821.378"/>
<polygon fill="black" stroke="black" points="1999.84,-822.587 2000.27,-812.001 1993.34,-820.01 1999.84,-822.587"/>
</g>
<!-- hal__vm__h&#45;&gt;vm_alloc__h -->
<g id="edge3" class="edge"><title>hal__vm__h&#45;&gt;vm_alloc__h</title>
<path fill="none" stroke="black" d="M1009.33,-585.803C1075.94,-552.41 1251.36,-464.47 1328.59,-425.753"/>
<polygon fill="black" stroke="black" points="1330.58,-428.674 1337.95,-421.064 1327.44,-422.416 1330.58,-428.674"/>
</g>
<!-- hal__vm__h&#45;&gt;elf__h -->
<g id="edge6" class="edge"><title>hal__vm__h&#45;&gt;elf__h</title>
<path fill="none" stroke="black" d="M968.046,-582.96C936.198,-548.799 861.598,-468.781 825,-429.525"/>
<polygon fill="black" stroke="black" points="827.175,-426.726 817.796,-421.798 822.055,-431.499 827.175,-426.726"/>
</g>
<!-- hal__vm__h&#45;&gt;process__h -->
<g id="edge16" class="edge"><title>hal__vm__h&#45;&gt;process__h</title>
<path fill="none" stroke="black" d="M978.385,-581.961C969.327,-548.515 949.157,-474.04 938.282,-433.888"/>
<polygon fill="black" stroke="black" points="941.597,-432.738 935.604,-424.001 934.84,-434.568 941.597,-432.738"/>
</g>
<!-- hal__vm__h&#45;&gt;hal__thread__h -->
<g id="edge43" class="edge"><title>hal__vm__h&#45;&gt;hal__thread__h</title>
<path fill="none" stroke="black" d="M968.861,-582.575C944.588,-553.165 895.875,-488.535 878,-424 859.566,-357.447 894.5,-278.327 915.972,-238.541"/>
<polygon fill="black" stroke="black" points="919.054,-240.2 920.843,-229.757 912.932,-236.806 919.054,-240.2"/>
</g>
<!-- hal__startup__h -->
<g id="node37" class="node"><title>hal__startup__h</title>
<ellipse fill="none" stroke="black" cx="1243" cy="-406" rx="54.3924" ry="18"/>
<text text-anchor="middle" x="1243" y="-402.3" font-family="Times,serif" font-size="14.00">hal/startup.h</text>
</g>
<!-- hal__startup__h&#45;&gt;hal__kernel__h -->
<g id="edge33" class="edge"><title>hal__startup__h&#45;&gt;hal__kernel__h</title>
<path fill="none" stroke="black" d="M1248.41,-387.961C1259.06,-354.444 1282.8,-279.723 1295.54,-239.633"/>
<polygon fill="black" stroke="black" points="1298.91,-240.591 1298.6,-230.001 1292.24,-238.471 1298.91,-240.591"/>
</g>
<!-- hal__x86__h&#45;&gt;hal__cpu_data__h -->
<g id="edge40" class="edge"><title>hal__x86__h&#45;&gt;hal__cpu_data__h</title>
<path fill="none" stroke="black" d="M1533.21,-388.96C1567.36,-355.163 1646.86,-276.481 1686.96,-236.794"/>
<polygon fill="black" stroke="black" points="1689.78,-238.923 1694.43,-229.401 1684.86,-233.948 1689.78,-238.923"/>
</g>
<!-- hal__x86__h&#45;&gt;hal__thread__h -->
<g id="edge44" class="edge"><title>hal__x86__h&#45;&gt;hal__thread__h</title>
<path fill="none" stroke="black" d="M1483.82,-394.127C1384.77,-361.675 1091.1,-265.455 977.029,-228.081"/>
<polygon fill="black" stroke="black" points="978.115,-224.754 967.522,-224.966 975.935,-231.406 978.115,-224.754"/>
</g>
<!-- hal__asm__kernel__h -->
<g id="node41" class="node"><title>hal__asm__kernel__h</title>
<ellipse fill="none" stroke="black" cx="1101" cy="-406" rx="69.3156" ry="18"/>
<text text-anchor="middle" x="1101" y="-402.3" font-family="Times,serif" font-size="14.00">hal/asm/kernel.h</text>
</g>
<!-- hal__asm__kernel__h&#45;&gt;hal__kernel__h -->
<g id="edge36" class="edge"><title>hal__asm__kernel__h&#45;&gt;hal__kernel__h</title>
<path fill="none" stroke="black" d="M1118.66,-388.297C1154.91,-354.013 1237.79,-275.625 1279.32,-236.342"/>
<polygon fill="black" stroke="black" points="1281.95,-238.67 1286.81,-229.256 1277.14,-233.585 1281.95,-238.67"/>
</g>
<!-- hal__asm__e820__h -->
<g id="node42" class="node"><title>hal__asm__e820__h</title>
<ellipse fill="none" stroke="black" cx="376" cy="-988" rx="64.4914" ry="18"/>
<text text-anchor="middle" x="376" y="-984.3" font-family="Times,serif" font-size="14.00">hal/asm/e820.h</text>
</g>
<!-- hal__asm__e820__h&#45;&gt;hal__e820__h -->
<g id="edge31" class="edge"><title>hal__asm__e820__h&#45;&gt;hal__e820__h</title>
<path fill="none" stroke="black" d="M391.398,-970.297C422.807,-936.226 494.367,-858.601 530.8,-819.081"/>
<polygon fill="black" stroke="black" points="533.809,-820.981 538.014,-811.256 528.663,-816.236 533.809,-820.981"/>
</g>
<!-- hal__asm__boot__h -->
<g id="node43" class="node"><title>hal__asm__boot__h</title>
<ellipse fill="none" stroke="black" cx="379" cy="-1182" rx="63.5411" ry="18"/>
<text text-anchor="middle" x="379" y="-1178.3" font-family="Times,serif" font-size="14.00">hal/asm/boot.h</text>
</g>
<!-- hal__asm__boot__h&#45;&gt;hal__boot__h -->
<g id="edge24" class="edge"><title>hal__asm__boot__h&#45;&gt;hal__boot__h</title>
<path fill="none" stroke="black" d="M368.591,-1163.93C350.727,-1133.52 314.909,-1067.39 302,-1006 280.965,-905.965 276.406,-874.966 302,-776 317.025,-717.901 355.945,-658.521 379.668,-626.047"/>
<polygon fill="black" stroke="black" points="382.77,-627.74 385.923,-617.625 377.151,-623.566 382.77,-627.74"/>
</g>
<!-- hal__asm__boot__h&#45;&gt;hal__asm__e820__h -->
<g id="edge55" class="edge"><title>hal__asm__boot__h&#45;&gt;hal__asm__e820__h</title>
<path fill="none" stroke="black" d="M378.734,-1163.96C378.212,-1130.59 377.052,-1056.36 376.424,-1016.15"/>
<polygon fill="black" stroke="black" points="379.922,-1015.94 376.266,-1006 372.922,-1016.05 379.922,-1015.94"/>
</g>
<!-- hal__asm__thread__h -->
<g id="node44" class="node"><title>hal__asm__thread__h</title>
<ellipse fill="none" stroke="black" cx="228" cy="-1182" rx="69.3156" ry="18"/>
<text text-anchor="middle" x="228" y="-1178.3" font-family="Times,serif" font-size="14.00">hal/asm/thread.h</text>
</g>
<!-- hal__asm__thread__h&#45;&gt;hal__thread__h -->
<g id="edge42" class="edge"><title>hal__asm__thread__h&#45;&gt;hal__thread__h</title>
<path fill="none" stroke="black" d="M228.384,-1163.69C229.555,-1109.36 233,-937.416 233,-795 233,-795 233,-795 233,-599 233,-308.764 700.876,-235.035 870.505,-217.842"/>
<polygon fill="black" stroke="black" points="870.911,-221.319 880.521,-216.858 870.226,-214.353 870.911,-221.319"/>
</g>
<!-- hal__asm__irq__h -->
<g id="node45" class="node"><title>hal__asm__irq__h</title>
<ellipse fill="none" stroke="black" cx="2313" cy="-600" rx="57.2688" ry="18"/>
<text text-anchor="middle" x="2313" y="-596.3" font-family="Times,serif" font-size="14.00">hal/asm/irq.h</text>
</g>
<!-- hal__asm__irq__h&#45;&gt;hal__irq__h -->
<g id="edge54" class="edge"><title>hal__asm__irq__h&#45;&gt;hal__irq__h</title>
<path fill="none" stroke="black" d="M2306.52,-581.961C2293.75,-548.372 2265.25,-473.405 2250.03,-433.378"/>
<polygon fill="black" stroke="black" points="2253.29,-432.104 2246.46,-424.001 2246.75,-434.592 2253.29,-432.104"/>
</g>
<!-- hal__asm__descriptors__h -->
<g id="node46" class="node"><title>hal__asm__descriptors__h</title>
<ellipse fill="none" stroke="black" cx="1648" cy="-794" rx="86.1637" ry="18"/>
<text text-anchor="middle" x="1648" y="-790.3" font-family="Times,serif" font-size="14.00">hal/asm/descriptors.h</text>
</g>
<!-- hal__asm__descriptors__h&#45;&gt;hal__descriptors__h -->
<g id="edge29" class="edge"><title>hal__asm__descriptors__h&#45;&gt;hal__descriptors__h</title>
<path fill="none" stroke="black" d="M1688.37,-778.094C1783.03,-743.141 2018.94,-656.037 2120.39,-618.579"/>
<polygon fill="black" stroke="black" points="2121.61,-621.86 2129.78,-615.113 2119.18,-615.293 2121.61,-621.86"/>
</g>
<!-- jinue__pfalloc__h -->
<g id="node47" class="node"><title>jinue__pfalloc__h</title>
<polygon fill="none" stroke="black" points="782.25,-618 687.75,-618 687.75,-582 782.25,-582 782.25,-618"/>
<text text-anchor="middle" x="735" y="-596.3" font-family="Times,serif" font-size="14.00">jinue/pfalloc.h</text>
</g>
<!-- jinue__syscall__h -->
<g id="node53" class="node"><title>jinue__syscall__h</title>
<polygon fill="none" stroke="black" points="732.25,-424 637.75,-424 637.75,-388 732.25,-388 732.25,-424"/>
<text text-anchor="middle" x="685" y="-402.3" font-family="Times,serif" font-size="14.00">jinue/syscall.h</text>
</g>
<!-- jinue__pfalloc__h&#45;&gt;jinue__syscall__h -->
<g id="edge64" class="edge"><title>jinue__pfalloc__h&#45;&gt;jinue__syscall__h</title>
<path fill="none" stroke="black" d="M730.563,-581.961C721.853,-548.515 702.458,-474.04 692.002,-433.888"/>
<polygon fill="black" stroke="black" points="695.334,-432.796 689.427,-424.001 688.56,-434.56 695.334,-432.796"/>
</g>
<!-- jinue__elf__h -->
<g id="node48" class="node"><title>jinue__elf__h</title>
<polygon fill="none" stroke="black" points="335,-618 263,-618 263,-582 335,-582 335,-618"/>
<text text-anchor="middle" x="299" y="-596.3" font-family="Times,serif" font-size="14.00">jinue/elf.h</text>
</g>
<!-- jinue__types__h -->
<g id="node49" class="node"><title>jinue__types__h</title>
<polygon fill="none" stroke="black" points="1544,-812 1458,-812 1458,-776 1544,-776 1544,-812"/>
<text text-anchor="middle" x="1501" y="-790.3" font-family="Times,serif" font-size="14.00">jinue/types.h</text>
</g>
<!-- jinue__console__h -->
<g id="node50" class="node"><title>jinue__console__h</title>
<polygon fill="none" stroke="black" points="1973.25,-1200 1874.75,-1200 1874.75,-1164 1973.25,-1164 1973.25,-1200"/>
<text text-anchor="middle" x="1924" y="-1178.3" font-family="Times,serif" font-size="14.00">jinue/console.h</text>
</g>
<!-- jinue__errno__h -->
<g id="node51" class="node"><title>jinue__errno__h</title>
<polygon fill="none" stroke="black" points="2661,-1200 2575,-1200 2575,-1164 2661,-1164 2661,-1200"/>
<text text-anchor="middle" x="2618" y="-1178.3" font-family="Times,serif" font-size="14.00">jinue/errno.h</text>
</g>
<!-- jinue__vm__h -->
<g id="node52" class="node"><title>jinue__vm__h</title>
<polygon fill="none" stroke="black" points="781,-1006 705,-1006 705,-970 781,-970 781,-1006"/>
<text text-anchor="middle" x="743" y="-984.3" font-family="Times,serif" font-size="14.00">jinue/vm.h</text>
</g>
<!-- jinue__ipc__h -->
<g id="node54" class="node"><title>jinue__ipc__h</title>
<polygon fill="none" stroke="black" points="1316,-812 1242,-812 1242,-776 1316,-776 1316,-812"/>
<text text-anchor="middle" x="1279" y="-790.3" font-family="Times,serif" font-size="14.00">jinue/ipc.h</text>
</g>
<!-- jinue__pfaddr__h -->
<g id="node55" class="node"><title>jinue__pfaddr__h</title>
<polygon fill="none" stroke="black" points="905.25,-812 812.75,-812 812.75,-776 905.25,-776 905.25,-812"/>
<text text-anchor="middle" x="859" y="-790.3" font-family="Times,serif" font-size="14.00">jinue/pfaddr.h</text>
</g>
<!-- jinue__list__h -->
<g id="node56" class="node"><title>jinue__list__h</title>
<polygon fill="none" stroke="black" points="1826,-812 1752,-812 1752,-776 1826,-776 1826,-812"/>
<text text-anchor="middle" x="1789" y="-790.3" font-family="Times,serif" font-size="14.00">jinue/list.h</text>
</g>
<!-- jinue__common__console__h -->
<g id="node57" class="node"><title>jinue__common__console__h</title>
<polygon fill="none" stroke="black" points="1974.4,-1368.54 1974.4,-1383.46 1912.07,-1394 1823.93,-1394 1761.6,-1383.46 1761.6,-1368.54 1823.93,-1358 1912.07,-1358 1974.4,-1368.54"/>
<text text-anchor="middle" x="1868" y="-1372.3" font-family="Times,serif" font-size="14.00">jinue&#45;common/console.h</text>
</g>
<!-- jinue__common__console__h&#45;&gt;console__h -->
<g id="edge11" class="edge"><title>jinue__common__console__h&#45;&gt;console__h</title>
<path fill="none" stroke="black" d="M1863.03,-1357.96C1853.25,-1324.44 1831.46,-1249.72 1819.77,-1209.63"/>
<polygon fill="black" stroke="black" points="1823.12,-1208.62 1816.96,-1200 1816.4,-1210.58 1823.12,-1208.62"/>
</g>
<!-- jinue__common__console__h&#45;&gt;jinue__console__h -->
<g id="edge61" class="edge"><title>jinue__common__console__h&#45;&gt;jinue__console__h</title>
<path fill="none" stroke="black" d="M1872.97,-1357.96C1882.75,-1324.44 1904.54,-1249.72 1916.23,-1209.63"/>
<polygon fill="black" stroke="black" points="1919.6,-1210.58 1919.04,-1200 1912.88,-1208.62 1919.6,-1210.58"/>
</g>
<!-- jinue__common__elf__h -->
<g id="node58" class="node"><title>jinue__common__elf__h</title>
<polygon fill="none" stroke="black" points="486.405,-786.544 486.405,-801.456 435.204,-812 362.796,-812 311.595,-801.456 311.595,-786.544 362.796,-776 435.204,-776 486.405,-786.544"/>
<text text-anchor="middle" x="399" y="-790.3" font-family="Times,serif" font-size="14.00">jinue&#45;common/elf.h</text>
</g>
<!-- jinue__common__elf__h&#45;&gt;elf__h -->
<g id="edge5" class="edge"><title>jinue__common__elf__h&#45;&gt;elf__h</title>
<path fill="none" stroke="black" d="M402.609,-775.926C411.554,-737.191 438.034,-641.414 492,-582 572.098,-493.815 707.335,-439.53 770.107,-417.854"/>
<polygon fill="black" stroke="black" points="771.548,-421.062 779.895,-414.537 769.301,-414.432 771.548,-421.062"/>
</g>
<!-- jinue__common__elf__h&#45;&gt;hal__boot__h -->
<g id="edge25" class="edge"><title>jinue__common__elf__h&#45;&gt;hal__boot__h</title>
<path fill="none" stroke="black" d="M399,-775.961C399,-742.586 399,-668.357 399,-628.145"/>
<polygon fill="black" stroke="black" points="402.5,-628 399,-618.001 395.5,-628.001 402.5,-628"/>
</g>
<!-- jinue__common__elf__h&#45;&gt;jinue__elf__h -->
<g id="edge59" class="edge"><title>jinue__common__elf__h&#45;&gt;jinue__elf__h</title>
<path fill="none" stroke="black" d="M390.126,-775.961C372.557,-742.23 333.255,-666.769 312.474,-626.871"/>
<polygon fill="black" stroke="black" points="315.578,-625.253 307.854,-618.001 309.37,-628.486 315.578,-625.253"/>
</g>
<!-- jinue__common__errno__h -->
<g id="node59" class="node"><title>jinue__common__errno__h</title>
<polygon fill="none" stroke="black" points="2716.23,-1368.54 2716.23,-1383.46 2658.69,-1394 2577.31,-1394 2519.77,-1383.46 2519.77,-1368.54 2577.31,-1358 2658.69,-1358 2716.23,-1368.54"/>
<text text-anchor="middle" x="2618" y="-1372.3" font-family="Times,serif" font-size="14.00">jinue&#45;common/errno.h</text>
</g>
<!-- jinue__common__errno__h&#45;&gt;jinue__errno__h -->
<g id="edge62" class="edge"><title>jinue__common__errno__h&#45;&gt;jinue__errno__h</title>
<path fill="none" stroke="black" d="M2618,-1357.96C2618,-1324.59 2618,-1250.36 2618,-1210.15"/>
<polygon fill="black" stroke="black" points="2621.5,-1210 2618,-1200 2614.5,-1210 2621.5,-1210"/>
</g>
<!-- jinue__common__ipc__h -->
<g id="node60" class="node"><title>jinue__common__ipc__h</title>
<polygon fill="none" stroke="black" points="1369.07,-980.544 1369.07,-995.456 1316.31,-1006 1241.69,-1006 1188.93,-995.456 1188.93,-980.544 1241.69,-970 1316.31,-970 1369.07,-980.544"/>
<text text-anchor="middle" x="1279" y="-984.3" font-family="Times,serif" font-size="14.00">jinue&#45;common/ipc.h</text>
</g>
<!-- jinue__common__ipc__h&#45;&gt;types__h -->
<g id="edge18" class="edge"><title>jinue__common__ipc__h&#45;&gt;types__h</title>
<path fill="none" stroke="black" d="M1288.23,-969.961C1306.59,-936.06 1347.79,-860.008 1369.31,-820.271"/>
<polygon fill="black" stroke="black" points="1372.4,-821.914 1374.09,-811.454 1366.25,-818.58 1372.4,-821.914"/>
</g>
<!-- jinue__common__ipc__h&#45;&gt;jinue__ipc__h -->
<g id="edge66" class="edge"><title>jinue__common__ipc__h&#45;&gt;jinue__ipc__h</title>
<path fill="none" stroke="black" d="M1279,-969.961C1279,-936.586 1279,-862.357 1279,-822.145"/>
<polygon fill="black" stroke="black" points="1282.5,-822 1279,-812.001 1275.5,-822.001 1282.5,-822"/>
</g>
<!-- jinue__common__syscall__h -->
<g id="node61" class="node"><title>jinue__common__syscall__h</title>
<polygon fill="none" stroke="black" points="1557.18,-1174.54 1557.18,-1189.46 1496.15,-1200 1409.85,-1200 1348.82,-1189.46 1348.82,-1174.54 1409.85,-1164 1496.15,-1164 1557.18,-1174.54"/>
<text text-anchor="middle" x="1453" y="-1178.3" font-family="Times,serif" font-size="14.00">jinue&#45;common/syscall.h</text>
</g>
<!-- jinue__common__syscall__h&#45;&gt;syscall__h -->
<g id="edge8" class="edge"><title>jinue__common__syscall__h&#45;&gt;syscall__h</title>
<path fill="none" stroke="black" d="M1519.92,-1167.97C1604.45,-1147.99 1748.57,-1101.59 1829,-1006 1874.16,-952.335 1883.82,-866.168 1885.7,-822.409"/>
<polygon fill="black" stroke="black" points="1889.21,-822.351 1886.03,-812.243 1882.21,-822.125 1889.21,-822.351"/>
</g>
<!-- jinue__common__syscall__h&#45;&gt;types__h -->
<g id="edge21" class="edge"><title>jinue__common__syscall__h&#45;&gt;types__h</title>
<path fill="none" stroke="black" d="M1449.02,-1163.67C1441.88,-1132.32 1426.66,-1064.03 1416,-1006 1403.91,-940.194 1392.47,-862.318 1386.77,-822.087"/>
<polygon fill="black" stroke="black" points="1390.21,-821.423 1385.35,-812.009 1383.28,-822.399 1390.21,-821.423"/>
</g>
<!-- jinue__common__syscall__h&#45;&gt;hal__syscall__h -->
<g id="edge48" class="edge"><title>jinue__common__syscall__h&#45;&gt;hal__syscall__h</title>
<path fill="none" stroke="black" d="M1495.42,-1163.96C1586.03,-1127.57 1797.57,-1042.59 1888.37,-1006.12"/>
<polygon fill="black" stroke="black" points="1889.83,-1009.31 1897.8,-1002.34 1887.22,-1002.82 1889.83,-1009.31"/>
</g>
<!-- jinue__common__syscall__h&#45;&gt;jinue__syscall__h -->
<g id="edge65" class="edge"><title>jinue__common__syscall__h&#45;&gt;jinue__syscall__h</title>
<path fill="none" stroke="black" d="M1386.61,-1167.94C1245.44,-1139.28 920.753,-1068.48 828,-1006 805.402,-990.777 686.806,-837.785 678,-812 631.821,-676.78 663.357,-501.073 678.333,-434.332"/>
<polygon fill="black" stroke="black" points="681.828,-434.756 680.664,-424.225 675.007,-433.182 681.828,-434.756"/>
</g>
<!-- jinue__common__syscall__h&#45;&gt;jinue__common__ipc__h -->
<g id="edge70" class="edge"><title>jinue__common__syscall__h&#45;&gt;jinue__common__ipc__h</title>
<path fill="none" stroke="black" d="M1437.56,-1163.96C1406.73,-1129.95 1337.45,-1053.49 1301.54,-1013.87"/>
<polygon fill="black" stroke="black" points="1303.72,-1011.06 1294.41,-1006 1298.53,-1015.76 1303.72,-1011.06"/>
</g>
<!-- jinue__common__types__h -->
<g id="node62" class="node"><title>jinue__common__types__h</title>
<polygon fill="none" stroke="black" points="1621.23,-980.544 1621.23,-995.456 1563.69,-1006 1482.31,-1006 1424.77,-995.456 1424.77,-980.544 1482.31,-970 1563.69,-970 1621.23,-980.544"/>
<text text-anchor="middle" x="1523" y="-984.3" font-family="Times,serif" font-size="14.00">jinue&#45;common/types.h</text>
</g>
<!-- jinue__common__types__h&#45;&gt;types__h -->
<g id="edge22" class="edge"><title>jinue__common__types__h&#45;&gt;types__h</title>
<path fill="none" stroke="black" d="M1510.58,-969.961C1485.69,-935.832 1429.65,-858.981 1400.84,-819.472"/>
<polygon fill="black" stroke="black" points="1403.52,-817.202 1394.8,-811.184 1397.86,-821.326 1403.52,-817.202"/>
</g>
<!-- jinue__common__types__h&#45;&gt;jinue__types__h -->
<g id="edge60" class="edge"><title>jinue__common__types__h&#45;&gt;jinue__types__h</title>
<path fill="none" stroke="black" d="M1521.05,-969.961C1517.22,-936.586 1508.72,-862.357 1504.11,-822.145"/>
<polygon fill="black" stroke="black" points="1507.56,-821.537 1502.95,-812.001 1500.61,-822.334 1507.56,-821.537"/>
</g>
<!-- jinue__common__list__h -->
<g id="node63" class="node"><title>jinue__common__list__h</title>
<polygon fill="none" stroke="black" points="1820.07,-980.544 1820.07,-995.456 1767.31,-1006 1692.69,-1006 1639.93,-995.456 1639.93,-980.544 1692.69,-970 1767.31,-970 1820.07,-980.544"/>
<text text-anchor="middle" x="1730" y="-984.3" font-family="Times,serif" font-size="14.00">jinue&#45;common/list.h</text>
</g>
<!-- jinue__common__list__h&#45;&gt;types__h -->
<g id="edge19" class="edge"><title>jinue__common__list__h&#45;&gt;types__h</title>
<path fill="none" stroke="black" d="M1699.21,-969.961C1633.78,-933.76 1481.49,-849.494 1415,-812.709"/>
<polygon fill="black" stroke="black" points="1416.66,-809.622 1406.21,-807.843 1413.27,-815.747 1416.66,-809.622"/>
</g>
<!-- jinue__common__list__h&#45;&gt;jinue__list__h -->
<g id="edge68" class="edge"><title>jinue__common__list__h&#45;&gt;jinue__list__h</title>
<path fill="none" stroke="black" d="M1735.24,-969.961C1745.54,-936.444 1768.5,-861.723 1780.82,-821.633"/>
<polygon fill="black" stroke="black" points="1784.18,-822.588 1783.78,-812.001 1777.49,-820.531 1784.18,-822.588"/>
</g>
<!-- jinue__common__pfaddr__h -->
<g id="node64" class="node"><title>jinue__common__pfaddr__h</title>
<polygon fill="none" stroke="black" points="1042.56,-980.544 1042.56,-995.456 982.484,-1006 897.516,-1006 837.435,-995.456 837.435,-980.544 897.516,-970 982.484,-970 1042.56,-980.544"/>
<text text-anchor="middle" x="940" y="-984.3" font-family="Times,serif" font-size="14.00">jinue&#45;common/pfaddr.h</text>
</g>
<!-- jinue__common__pfaddr__h&#45;&gt;types__h -->
<g id="edge20" class="edge"><title>jinue__common__pfaddr__h&#45;&gt;types__h</title>
<path fill="none" stroke="black" d="M979.313,-969.961C1064.57,-933.009 1265.38,-845.976 1347.28,-810.481"/>
<polygon fill="black" stroke="black" points="1348.88,-813.602 1356.66,-806.414 1346.1,-807.18 1348.88,-813.602"/>
</g>
<!-- jinue__common__pfaddr__h&#45;&gt;hal__pfaddr__h -->
<g id="edge47" class="edge"><title>jinue__common__pfaddr__h&#45;&gt;hal__pfaddr__h</title>
<path fill="none" stroke="black" d="M922.34,-969.961C886.595,-935.473 805.636,-857.362 765.087,-818.24"/>
<polygon fill="black" stroke="black" points="767.4,-815.608 757.774,-811.184 762.54,-820.646 767.4,-815.608"/>
</g>
<!-- jinue__common__pfaddr__h&#45;&gt;jinue__pfaddr__h -->
<g id="edge67" class="edge"><title>jinue__common__pfaddr__h&#45;&gt;jinue__pfaddr__h</title>
<path fill="none" stroke="black" d="M932.812,-969.961C918.642,-936.372 887.015,-861.405 870.128,-821.378"/>
<polygon fill="black" stroke="black" points="873.284,-819.854 866.172,-812.001 866.834,-822.575 873.284,-819.854"/>
</g>
<!-- jinue__common__pfalloc__h -->
<g id="node66" class="node"><title>jinue__common__pfalloc__h</title>
<polygon fill="none" stroke="black" points="1132.23,-786.544 1132.23,-801.456 1071.17,-812 984.826,-812 923.768,-801.456 923.768,-786.544 984.826,-776 1071.17,-776 1132.23,-786.544"/>
<text text-anchor="middle" x="1028" y="-790.3" font-family="Times,serif" font-size="14.00">jinue&#45;common/pfalloc.h</text>
</g>
<!-- jinue__common__pfaddr__h&#45;&gt;jinue__common__pfalloc__h -->
<g id="edge74" class="edge"><title>jinue__common__pfaddr__h&#45;&gt;jinue__common__pfalloc__h</title>
<path fill="none" stroke="black" d="M947.809,-969.961C963.237,-936.301 997.71,-861.087 1016.03,-821.124"/>
<polygon fill="black" stroke="black" points="1019.22,-822.55 1020.21,-812.001 1012.86,-819.633 1019.22,-822.55"/>
</g>
<!-- jinue__common__vm__h -->
<g id="node65" class="node"><title>jinue__common__vm__h</title>
<polygon fill="none" stroke="black" points="768.128,-1174.54 768.128,-1189.46 715.332,-1200 640.668,-1200 587.872,-1189.46 587.872,-1174.54 640.668,-1164 715.332,-1164 768.128,-1174.54"/>
<text text-anchor="middle" x="678" y="-1178.3" font-family="Times,serif" font-size="14.00">jinue&#45;common/vm.h</text>
</g>
<!-- jinue__common__vm__h&#45;&gt;slab__h -->
<g id="edge13" class="edge"><title>jinue__common__vm__h&#45;&gt;slab__h</title>
<path fill="none" stroke="black" d="M661.405,-1163.96C627.55,-1129.2 550.533,-1050.13 512.739,-1011.32"/>
<polygon fill="black" stroke="black" points="515.212,-1008.84 505.727,-1004.12 510.197,-1013.73 515.212,-1008.84"/>
</g>
<!-- jinue__common__vm__h&#45;&gt;hal__vm_macros__h -->
<g id="edge32" class="edge"><title>jinue__common__vm__h&#45;&gt;hal__vm_macros__h</title>
<path fill="none" stroke="black" d="M672.32,-1163.96C661.148,-1130.44 636.241,-1055.72 622.878,-1015.63"/>
<polygon fill="black" stroke="black" points="626.15,-1014.38 619.667,-1006 619.509,-1016.59 626.15,-1014.38"/>
</g>
<!-- jinue__common__vm__h&#45;&gt;hal__vm__h -->
<g id="edge49" class="edge"><title>jinue__common__vm__h&#45;&gt;hal__vm__h</title>
<path fill="none" stroke="black" d="M734.082,-1167.74C813.883,-1146.28 960.532,-1096.86 1051,-1006 1128.45,-928.214 1180.41,-878.452 1141,-776 1115.18,-708.871 1050.37,-651.449 1012.26,-622.034"/>
<polygon fill="black" stroke="black" points="1014.18,-619.1 1004.1,-615.849 1009.95,-624.679 1014.18,-619.1"/>
</g>
<!-- jinue__common__vm__h&#45;&gt;jinue__vm__h -->
<g id="edge63" class="edge"><title>jinue__common__vm__h&#45;&gt;jinue__vm__h</title>
<path fill="none" stroke="black" d="M683.768,-1163.96C695.115,-1130.44 720.412,-1055.72 733.984,-1015.63"/>
<polygon fill="black" stroke="black" points="737.353,-1016.59 737.245,-1006 730.723,-1014.35 737.353,-1016.59"/>
</g>
<!-- jinue__common__vm__h&#45;&gt;jinue__common__pfaddr__h -->
<g id="edge72" class="edge"><title>jinue__common__vm__h&#45;&gt;jinue__common__pfaddr__h</title>
<path fill="none" stroke="black" d="M701.251,-1163.96C748.348,-1129.45 855.062,-1051.24 908.408,-1012.15"/>
<polygon fill="black" stroke="black" points="910.804,-1014.73 916.801,-1006 906.666,-1009.09 910.804,-1014.73"/>
</g>
<!-- jinue__common__pfalloc__h&#45;&gt;pfalloc__h -->
<g id="edge1" class="edge"><title>jinue__common__pfalloc__h&#45;&gt;pfalloc__h</title>
<path fill="none" stroke="black" d="M1011.58,-775.961C978.338,-741.459 903.026,-663.297 865.346,-624.191"/>
<polygon fill="black" stroke="black" points="867.794,-621.688 858.335,-616.915 862.753,-626.545 867.794,-621.688"/>
</g>
<!-- jinue__common__pfalloc__h&#45;&gt;jinue__pfalloc__h -->
<g id="edge58" class="edge"><title>jinue__common__pfalloc__h&#45;&gt;jinue__pfalloc__h</title>
<path fill="none" stroke="black" d="M1002,-775.961C949.111,-741.305 829.002,-662.599 769.595,-623.67"/>
<polygon fill="black" stroke="black" points="771.226,-620.554 760.944,-618.001 767.389,-626.409 771.226,-620.554"/>
</g>
<!-- jinue__common__asm__ipc__h -->
<g id="node67" class="node"><title>jinue__common__asm__ipc__h</title>
<polygon fill="none" stroke="black" points="1331.01,-1174.54 1331.01,-1189.46 1267.74,-1200 1178.26,-1200 1114.99,-1189.46 1114.99,-1174.54 1178.26,-1164 1267.74,-1164 1331.01,-1174.54"/>
<text text-anchor="middle" x="1223" y="-1178.3" font-family="Times,serif" font-size="14.00">jinue&#45;common/asm/ipc.h</text>
</g>
<!-- jinue__common__asm__ipc__h&#45;&gt;jinue__common__ipc__h -->
<g id="edge69" class="edge"><title>jinue__common__asm__ipc__h&#45;&gt;jinue__common__ipc__h</title>
<path fill="none" stroke="black" d="M1227.97,-1163.96C1237.75,-1130.44 1259.54,-1055.72 1271.23,-1015.63"/>
<polygon fill="black" stroke="black" points="1274.6,-1016.58 1274.04,-1006 1267.88,-1014.62 1274.6,-1016.58"/>
</g>
<!-- jinue__common__asm__syscall__h -->
<g id="node68" class="node"><title>jinue__common__asm__syscall__h</title>
<polygon fill="none" stroke="black" points="1575.11,-1368.54 1575.11,-1383.46 1503.58,-1394 1402.42,-1394 1330.89,-1383.46 1330.89,-1368.54 1402.42,-1358 1503.58,-1358 1575.11,-1368.54"/>
<text text-anchor="middle" x="1453" y="-1372.3" font-family="Times,serif" font-size="14.00">jinue&#45;common/asm/syscall.h</text>
</g>
<!-- jinue__common__asm__syscall__h&#45;&gt;jinue__common__syscall__h -->
<g id="edge71" class="edge"><title>jinue__common__asm__syscall__h&#45;&gt;jinue__common__syscall__h</title>
<path fill="none" stroke="black" d="M1453,-1357.96C1453,-1324.59 1453,-1250.36 1453,-1210.15"/>
<polygon fill="black" stroke="black" points="1456.5,-1210 1453,-1200 1449.5,-1210 1456.5,-1210"/>
</g>
<!-- jinue__common__asm__vm__h -->
<g id="node69" class="node"><title>jinue__common__asm__vm__h</title>
<polygon fill="none" stroke="black" points="488.062,-1368.54 488.062,-1383.46 424.175,-1394 333.825,-1394 269.938,-1383.46 269.938,-1368.54 333.825,-1358 424.175,-1358 488.062,-1368.54"/>
<text text-anchor="middle" x="379" y="-1372.3" font-family="Times,serif" font-size="14.00">jinue&#45;common/asm/vm.h</text>
</g>
<!-- jinue__common__asm__vm__h&#45;&gt;hal__asm__boot__h -->
<g id="edge56" class="edge"><title>jinue__common__asm__vm__h&#45;&gt;hal__asm__boot__h</title>
<path fill="none" stroke="black" d="M379,-1357.96C379,-1324.59 379,-1250.36 379,-1210.15"/>
<polygon fill="black" stroke="black" points="382.5,-1210 379,-1200 375.5,-1210 382.5,-1210"/>
</g>
<!-- jinue__common__asm__vm__h&#45;&gt;hal__asm__thread__h -->
<g id="edge57" class="edge"><title>jinue__common__asm__vm__h&#45;&gt;hal__asm__thread__h</title>
<path fill="none" stroke="black" d="M365.6,-1357.96C338.893,-1324 278.922,-1247.75 247.715,-1208.07"/>
<polygon fill="black" stroke="black" points="250.088,-1205.42 241.155,-1199.73 244.585,-1209.75 250.088,-1205.42"/>
</g>
<!-- jinue__common__asm__vm__h&#45;&gt;jinue__common__vm__h -->
<g id="edge73" class="edge"><title>jinue__common__asm__vm__h&#45;&gt;jinue__common__vm__h</title>
<path fill="none" stroke="black" d="M405.534,-1357.96C459.615,-1323.23 582.577,-1244.28 643.069,-1205.43"/>
<polygon fill="black" stroke="black" points="645.002,-1208.35 651.525,-1200 641.219,-1202.46 645.002,-1208.35"/>
</g>
</g>
</svg>
