<?xml version="1.0" encoding="UTF-8" standalone="no"?>
<!DOCTYPE svg PUBLIC "-//W3C//DTD SVG 1.1//EN"
 "http://www.w3.org/Graphics/SVG/1.1/DTD/svg11.dtd">
<!-- Generated by graphviz version 2.30.1 (20150306.0020)
 -->
<!-- Title: hdeps Pages: 1 -->
<svg width="3360pt" height="1014pt"
 viewBox="0.00 0.00 3359.81 1014.00" xmlns="http://www.w3.org/2000/svg" xmlns:xlink="http://www.w3.org/1999/xlink">
<g id="graph0" class="graph" transform="scale(1 1) rotate(0) translate(4 1010)">
<title>hdeps</title>
<polygon fill="white" stroke="white" points="-4,5 -4,-1010 3356.81,-1010 3356.81,5 -4,5"/>
<!-- printk__h -->
<g id="node1" class="node"><title>printk__h</title>
<ellipse fill="none" stroke="black" cx="1045.81" cy="-988" rx="38.0212" ry="18"/>
<text text-anchor="middle" x="1045.81" y="-984.3" font-family="Times,serif" font-size="14.00">printk.h</text>
</g>
<!-- kbd__h -->
<g id="node2" class="node"><title>kbd__h</title>
<ellipse fill="none" stroke="black" cx="1132.81" cy="-988" rx="30.3206" ry="18"/>
<text text-anchor="middle" x="1132.81" y="-984.3" font-family="Times,serif" font-size="14.00">kbd.h</text>
</g>
<!-- debug__h -->
<g id="node3" class="node"><title>debug__h</title>
<ellipse fill="none" stroke="black" cx="1220.81" cy="-988" rx="38.4949" ry="18"/>
<text text-anchor="middle" x="1220.81" y="-984.3" font-family="Times,serif" font-size="14.00">debug.h</text>
</g>
<!-- pfalloc__h -->
<g id="node4" class="node"><title>pfalloc__h</title>
<ellipse fill="none" stroke="black" cx="1606.81" cy="-18" rx="42.3701" ry="18"/>
<text text-anchor="middle" x="1606.81" y="-14.3" font-family="Times,serif" font-size="14.00">pfalloc.h</text>
</g>
<!-- vm_alloc__h -->
<g id="node5" class="node"><title>vm_alloc__h</title>
<ellipse fill="none" stroke="black" cx="1823.81" cy="-18" rx="50.5427" ry="18"/>
<text text-anchor="middle" x="1823.81" y="-14.3" font-family="Times,serif" font-size="14.00">vm_alloc.h</text>
</g>
<!-- ascii__h -->
<g id="node6" class="node"><title>ascii__h</title>
<ellipse fill="none" stroke="black" cx="1694.81" cy="-988" rx="33.1991" ry="18"/>
<text text-anchor="middle" x="1694.81" y="-984.3" font-family="Times,serif" font-size="14.00">ascii.h</text>
</g>
<!-- core__h -->
<g id="node7" class="node"><title>core__h</title>
<ellipse fill="none" stroke="black" cx="2072.81" cy="-988" rx="32.2457" ry="18"/>
<text text-anchor="middle" x="2072.81" y="-984.3" font-family="Times,serif" font-size="14.00">core.h</text>
</g>
<!-- elf__h -->
<g id="node8" class="node"><title>elf__h</title>
<ellipse fill="none" stroke="black" cx="923.807" cy="-18" rx="27" ry="18"/>
<text text-anchor="middle" x="923.807" y="-14.3" font-family="Times,serif" font-size="14.00">elf.h</text>
</g>
<!-- syscall__h -->
<g id="node9" class="node"><title>syscall__h</title>
<ellipse fill="none" stroke="black" cx="2604.81" cy="-212" rx="41.394" ry="18"/>
<text text-anchor="middle" x="2604.81" y="-208.3" font-family="Times,serif" font-size="14.00">syscall.h</text>
</g>
<!-- util__h -->
<g id="node10" class="node"><title>util__h</title>
<ellipse fill="none" stroke="black" cx="1921.81" cy="-18" rx="29.3722" ry="18"/>
<text text-anchor="middle" x="1921.81" y="-14.3" font-family="Times,serif" font-size="14.00">util.h</text>
</g>
<!-- console__h -->
<g id="node11" class="node"><title>console__h</title>
<ellipse fill="none" stroke="black" cx="2320.81" cy="-794" rx="44.2946" ry="18"/>
<text text-anchor="middle" x="2320.81" y="-790.3" font-family="Times,serif" font-size="14.00">console.h</text>
</g>
<!-- panic__h -->
<g id="node12" class="node"><title>panic__h</title>
<ellipse fill="none" stroke="black" cx="2537.81" cy="-988" rx="36.096" ry="18"/>
<text text-anchor="middle" x="2537.81" y="-984.3" font-family="Times,serif" font-size="14.00">panic.h</text>
</g>
<!-- thread__h -->
<g id="node13" class="node"><title>thread__h</title>
<ellipse fill="none" stroke="black" cx="2008.81" cy="-18" rx="39.4691" ry="18"/>
<text text-anchor="middle" x="2008.81" y="-14.3" font-family="Times,serif" font-size="14.00">thread.h</text>
</g>
<!-- slab__h -->
<g id="node14" class="node"><title>slab__h</title>
<ellipse fill="none" stroke="black" cx="926.807" cy="-600" rx="31.2735" ry="18"/>
<text text-anchor="middle" x="926.807" y="-596.3" font-family="Times,serif" font-size="14.00">slab.h</text>
</g>
<!-- ipc__h -->
<g id="node15" class="node"><title>ipc__h</title>
<ellipse fill="none" stroke="black" cx="2094.81" cy="-18" rx="28.3955" ry="18"/>
<text text-anchor="middle" x="2094.81" y="-14.3" font-family="Times,serif" font-size="14.00">ipc.h</text>
</g>
<!-- object__h -->
<g id="node16" class="node"><title>object__h</title>
<ellipse fill="none" stroke="black" cx="2180.81" cy="-18" rx="38.4949" ry="18"/>
<text text-anchor="middle" x="2180.81" y="-14.3" font-family="Times,serif" font-size="14.00">object.h</text>
</g>
<!-- process__h -->
<g id="node17" class="node"><title>process__h</title>
<ellipse fill="none" stroke="black" cx="1710.81" cy="-18" rx="44.2946" ry="18"/>
<text text-anchor="middle" x="1710.81" y="-14.3" font-family="Times,serif" font-size="14.00">process.h</text>
</g>
<!-- types__h -->
<g id="node18" class="node"><title>types__h</title>
<ellipse fill="none" stroke="black" cx="1919.81" cy="-212" rx="36.096" ry="18"/>
<text text-anchor="middle" x="1919.81" y="-208.3" font-family="Times,serif" font-size="14.00">types.h</text>
</g>
<!-- types__h&#45;&gt;pfalloc__h -->
<g id="edge2" class="edge"><title>types__h&#45;&gt;pfalloc__h</title>
<path fill="none" stroke="black" d="M1897.8,-197.499C1843.42,-164.143 1702.53,-77.7212 1638.87,-38.6694"/>
<polygon fill="black" stroke="black" points="1640.41,-35.5088 1630.06,-33.2633 1636.75,-41.4756 1640.41,-35.5088"/>
</g>
<!-- types__h&#45;&gt;vm_alloc__h -->
<g id="edge3" class="edge"><title>types__h&#45;&gt;vm_alloc__h</title>
<path fill="none" stroke="black" d="M1911.46,-194.297C1894.68,-160.751 1856.8,-84.9831 1836.77,-44.935"/>
<polygon fill="black" stroke="black" points="1839.81,-43.18 1832.21,-35.801 1833.55,-46.3105 1839.81,-43.18"/>
</g>
<!-- types__h&#45;&gt;elf__h -->
<g id="edge5" class="edge"><title>types__h&#45;&gt;elf__h</title>
<path fill="none" stroke="black" d="M1892.21,-200.164C1885.9,-197.925 1879.17,-195.725 1872.81,-194 1523.26,-99.2475 1087.36,-39.7334 960.187,-23.5089"/>
<polygon fill="black" stroke="black" points="960.563,-20.0287 950.202,-22.2434 959.683,-26.9731 960.563,-20.0287"/>
</g>
<!-- types__h&#45;&gt;util__h -->
<g id="edge8" class="edge"><title>types__h&#45;&gt;util__h</title>
<path fill="none" stroke="black" d="M1919.98,-193.961C1920.33,-160.586 1921.11,-86.3566 1921.52,-46.1452"/>
<polygon fill="black" stroke="black" points="1925.03,-46.0365 1921.63,-36.0005 1918.03,-45.9635 1925.03,-46.0365"/>
</g>
<!-- types__h&#45;&gt;thread__h -->
<g id="edge10" class="edge"><title>types__h&#45;&gt;thread__h</title>
<path fill="none" stroke="black" d="M1927.55,-194.297C1943.1,-160.751 1978.22,-84.9831 1996.79,-44.935"/>
<polygon fill="black" stroke="black" points="1999.99,-46.3456 2001.02,-35.801 1993.64,-43.4017 1999.99,-46.3456"/>
</g>
<!-- types__h&#45;&gt;ipc__h -->
<g id="edge12" class="edge"><title>types__h&#45;&gt;ipc__h</title>
<path fill="none" stroke="black" d="M1934.13,-195.288C1965.07,-161.341 2038.26,-81.0401 2074.19,-41.6231"/>
<polygon fill="black" stroke="black" points="2077.11,-43.6123 2081.26,-33.8638 2071.94,-38.8968 2077.11,-43.6123"/>
</g>
<!-- types__h&#45;&gt;object__h -->
<g id="edge13" class="edge"><title>types__h&#45;&gt;object__h</title>
<path fill="none" stroke="black" d="M1939.42,-196.569C1985.24,-162.863 2099.43,-78.8641 2152.66,-39.7053"/>
<polygon fill="black" stroke="black" points="2154.98,-42.3437 2160.96,-33.5987 2150.83,-36.705 2154.98,-42.3437"/>
</g>
<!-- types__h&#45;&gt;process__h -->
<g id="edge14" class="edge"><title>types__h&#45;&gt;process__h</title>
<path fill="none" stroke="black" d="M1903.41,-195.934C1866.9,-162.395 1778.74,-81.4118 1735.53,-41.7108"/>
<polygon fill="black" stroke="black" points="1737.74,-38.9866 1728,-34.7989 1733,-44.1416 1737.74,-38.9866"/>
</g>
<!-- hal__thread__h -->
<g id="node31" class="node"><title>hal__thread__h</title>
<ellipse fill="none" stroke="black" cx="1493.81" cy="-18" rx="52.4675" ry="18"/>
<text text-anchor="middle" x="1493.81" y="-14.3" font-family="Times,serif" font-size="14.00">hal/thread.h</text>
</g>
<!-- types__h&#45;&gt;hal__thread__h -->
<g id="edge35" class="edge"><title>types__h&#45;&gt;hal__thread__h</title>
<path fill="none" stroke="black" d="M1893.8,-199.279C1821.8,-166.829 1619.51,-75.6571 1533.41,-36.8494"/>
<polygon fill="black" stroke="black" points="1534.78,-33.6297 1524.23,-32.7116 1531.91,-40.0115 1534.78,-33.6297"/>
</g>
<!-- hal__frame_pointer__h -->
<g id="node19" class="node"><title>hal__frame_pointer__h</title>
<ellipse fill="none" stroke="black" cx="670.807" cy="-212" rx="81.3646" ry="18"/>
<text text-anchor="middle" x="670.807" y="-208.3" font-family="Times,serif" font-size="14.00">hal/frame_pointer.h</text>
</g>
<!-- hal__io__h -->
<g id="node20" class="node"><title>hal__io__h</title>
<ellipse fill="none" stroke="black" cx="2629.81" cy="-988" rx="37.5442" ry="18"/>
<text text-anchor="middle" x="2629.81" y="-984.3" font-family="Times,serif" font-size="14.00">hal/io.h</text>
</g>
<!-- hal__boot__h -->
<g id="node21" class="node"><title>hal__boot__h</title>
<ellipse fill="none" stroke="black" cx="1418.81" cy="-212" rx="46.2191" ry="18"/>
<text text-anchor="middle" x="1418.81" y="-208.3" font-family="Times,serif" font-size="14.00">hal/boot.h</text>
</g>
<!-- hal__bootmem__h -->
<g id="node22" class="node"><title>hal__bootmem__h</title>
<ellipse fill="none" stroke="black" cx="506.807" cy="-212" rx="64.4914" ry="18"/>
<text text-anchor="middle" x="506.807" y="-208.3" font-family="Times,serif" font-size="14.00">hal/bootmem.h</text>
</g>
<!-- hal__descriptors__h -->
<g id="node23" class="node"><title>hal__descriptors__h</title>
<ellipse fill="none" stroke="black" cx="209.807" cy="-212" rx="69.3156" ry="18"/>
<text text-anchor="middle" x="209.807" y="-208.3" font-family="Times,serif" font-size="14.00">hal/descriptors.h</text>
</g>
<!-- hal__e820__h -->
<g id="node24" class="node"><title>hal__e820__h</title>
<ellipse fill="none" stroke="black" cx="1208.81" cy="-212" rx="48.1437" ry="18"/>
<text text-anchor="middle" x="1208.81" y="-208.3" font-family="Times,serif" font-size="14.00">hal/e820.h</text>
</g>
<!-- hal__vga__h -->
<g id="node25" class="node"><title>hal__vga__h</title>
<ellipse fill="none" stroke="black" cx="2728.81" cy="-988" rx="43.319" ry="18"/>
<text text-anchor="middle" x="2728.81" y="-984.3" font-family="Times,serif" font-size="14.00">hal/vga.h</text>
</g>
<!-- hal__vm_macros__h -->
<g id="node26" class="node"><title>hal__vm_macros__h</title>
<ellipse fill="none" stroke="black" cx="1049.81" cy="-600" rx="72.192" ry="18"/>
<text text-anchor="middle" x="1049.81" y="-596.3" font-family="Times,serif" font-size="14.00">hal/vm_macros.h</text>
</g>
<!-- hal__vm_x86__h -->
<g id="node27" class="node"><title>hal__vm_x86__h</title>
<ellipse fill="none" stroke="black" cx="2849.81" cy="-988" rx="59.1941" ry="18"/>
<text text-anchor="middle" x="2849.81" y="-984.3" font-family="Times,serif" font-size="14.00">hal/vm_x86.h</text>
</g>
<!-- hal__kernel__h -->
<g id="node28" class="node"><title>hal__kernel__h</title>
<ellipse fill="none" stroke="black" cx="822.807" cy="-212" rx="52.4675" ry="18"/>
<text text-anchor="middle" x="822.807" y="-208.3" font-family="Times,serif" font-size="14.00">hal/kernel.h</text>
</g>
<!-- hal__cpu__h -->
<g id="node29" class="node"><title>hal__cpu__h</title>
<ellipse fill="none" stroke="black" cx="936.807" cy="-212" rx="43.319" ry="18"/>
<text text-anchor="middle" x="936.807" y="-208.3" font-family="Times,serif" font-size="14.00">hal/cpu.h</text>
</g>
<!-- hal__cpu_data__h -->
<g id="node30" class="node"><title>hal__cpu_data__h</title>
<ellipse fill="none" stroke="black" cx="343.807" cy="-18" rx="62.0922" ry="18"/>
<text text-anchor="middle" x="343.807" y="-14.3" font-family="Times,serif" font-size="14.00">hal/cpu_data.h</text>
</g>
<!-- hal__page_tables__h -->
<g id="node32" class="node"><title>hal__page_tables__h</title>
<ellipse fill="none" stroke="black" cx="1070.81" cy="-212" rx="72.2155" ry="18"/>
<text text-anchor="middle" x="1070.81" y="-208.3" font-family="Times,serif" font-size="14.00">hal/page_tables.h</text>
</g>
<!-- hal__pfaddr__h -->
<g id="node33" class="node"><title>hal__pfaddr__h</title>
<ellipse fill="none" stroke="black" cx="1304.81" cy="-406" rx="53.4184" ry="18"/>
<text text-anchor="middle" x="1304.81" y="-402.3" font-family="Times,serif" font-size="14.00">hal/pfaddr.h</text>
</g>
<!-- hal__types__h -->
<g id="node34" class="node"><title>hal__types__h</title>
<ellipse fill="none" stroke="black" cx="735.807" cy="-406" rx="49.0941" ry="18"/>
<text text-anchor="middle" x="735.807" y="-402.3" font-family="Times,serif" font-size="14.00">hal/types.h</text>
</g>
<!-- hal__types__h&#45;&gt;types__h -->
<g id="edge19" class="edge"><title>hal__types__h&#45;&gt;types__h</title>
<path fill="none" stroke="black" d="M780.59,-398.229C987.911,-366.865 1845.59,-236.945 1872.81,-230 1876,-229.185 1879.28,-228.237 1882.56,-227.214"/>
<polygon fill="black" stroke="black" points="1883.88,-230.463 1892.25,-223.976 1881.66,-223.824 1883.88,-230.463"/>
</g>
<!-- hal__types__h&#45;&gt;hal__frame_pointer__h -->
<g id="edge20" class="edge"><title>hal__types__h&#45;&gt;hal__frame_pointer__h</title>
<path fill="none" stroke="black" d="M730.039,-387.961C718.692,-354.444 693.395,-279.723 679.823,-239.633"/>
<polygon fill="black" stroke="black" points="683.084,-238.35 676.562,-230.001 676.454,-240.595 683.084,-238.35"/>
</g>
<!-- hal__types__h&#45;&gt;hal__boot__h -->
<g id="edge22" class="edge"><title>hal__types__h&#45;&gt;hal__boot__h</title>
<path fill="none" stroke="black" d="M774.143,-394.719C872.404,-368.279 1141.19,-295.407 1363.81,-230 1367.17,-229.012 1370.64,-227.976 1374.13,-226.923"/>
<polygon fill="black" stroke="black" points="1375.39,-230.199 1383.94,-223.939 1373.35,-223.503 1375.39,-230.199"/>
</g>
<!-- hal__types__h&#45;&gt;hal__bootmem__h -->
<g id="edge23" class="edge"><title>hal__types__h&#45;&gt;hal__bootmem__h</title>
<path fill="none" stroke="black" d="M717.067,-389.288C676.658,-355.408 581.183,-275.359 534.07,-235.858"/>
<polygon fill="black" stroke="black" points="536.041,-232.943 526.129,-229.2 531.544,-238.307 536.041,-232.943"/>
</g>
<!-- hal__types__h&#45;&gt;hal__descriptors__h -->
<g id="edge25" class="edge"><title>hal__types__h&#45;&gt;hal__descriptors__h</title>
<path fill="none" stroke="black" d="M702.103,-392.697C611.622,-359.67 363.142,-268.97 257.907,-230.557"/>
<polygon fill="black" stroke="black" points="259.073,-227.257 248.479,-227.116 256.673,-233.833 259.073,-227.257"/>
</g>
<!-- hal__types__h&#45;&gt;hal__e820__h -->
<g id="edge27" class="edge"><title>hal__types__h&#45;&gt;hal__e820__h</title>
<path fill="none" stroke="black" d="M767.576,-392.104C850.899,-358.282 1075.66,-267.049 1168.17,-229.494"/>
<polygon fill="black" stroke="black" points="1169.54,-232.718 1177.49,-225.714 1166.9,-226.232 1169.54,-232.718"/>
</g>
<!-- hal__types__h&#45;&gt;hal__kernel__h -->
<g id="edge29" class="edge"><title>hal__types__h&#45;&gt;hal__kernel__h</title>
<path fill="none" stroke="black" d="M743.528,-387.961C758.78,-354.301 792.861,-279.087 810.97,-239.124"/>
<polygon fill="black" stroke="black" points="814.164,-240.554 815.104,-230.001 807.788,-237.664 814.164,-240.554"/>
</g>
<!-- hal__types__h&#45;&gt;hal__cpu__h -->
<g id="edge30" class="edge"><title>hal__types__h&#45;&gt;hal__cpu__h</title>
<path fill="none" stroke="black" d="M752.598,-388.96C788.232,-354.923 871.522,-275.362 912.776,-235.955"/>
<polygon fill="black" stroke="black" points="915.391,-238.297 920.205,-228.859 910.556,-233.235 915.391,-238.297"/>
</g>
<!-- hal__types__h&#45;&gt;hal__cpu_data__h -->
<g id="edge31" class="edge"><title>hal__types__h&#45;&gt;hal__cpu_data__h</title>
<path fill="none" stroke="black" d="M688.258,-400.986C599.184,-390.608 408.794,-354.257 326.807,-230 289.331,-173.203 314.959,-88.1878 332.012,-45.484"/>
<polygon fill="black" stroke="black" points="335.32,-46.644 335.911,-36.0657 328.852,-43.9663 335.32,-46.644"/>
</g>
<!-- hal__types__h&#45;&gt;hal__page_tables__h -->
<g id="edge36" class="edge"><title>hal__types__h&#45;&gt;hal__page_tables__h</title>
<path fill="none" stroke="black" d="M761.261,-390.411C820.151,-356.659 965.969,-273.086 1034.33,-233.904"/>
<polygon fill="black" stroke="black" points="1036.12,-236.913 1043.06,-228.903 1032.64,-230.839 1036.12,-236.913"/>
</g>
<!-- hal__vm__h -->
<g id="node37" class="node"><title>hal__vm__h</title>
<ellipse fill="none" stroke="black" cx="79.807" cy="-212" rx="42.3701" ry="18"/>
<text text-anchor="middle" x="79.807" y="-208.3" font-family="Times,serif" font-size="14.00">hal/vm.h</text>
</g>
<!-- hal__types__h&#45;&gt;hal__vm__h -->
<g id="edge43" class="edge"><title>hal__types__h&#45;&gt;hal__vm__h</title>
<path fill="none" stroke="black" d="M697.776,-394.572C602.144,-368.225 344.051,-296.352 130.807,-230 127.733,-229.043 124.56,-228.036 121.373,-227.008"/>
<polygon fill="black" stroke="black" points="122.439,-223.675 111.846,-223.898 120.266,-230.329 122.439,-223.675"/>
</g>
<!-- hal__x86__h -->
<g id="node39" class="node"><title>hal__x86__h</title>
<ellipse fill="none" stroke="black" cx="379.807" cy="-212" rx="44.2946" ry="18"/>
<text text-anchor="middle" x="379.807" y="-208.3" font-family="Times,serif" font-size="14.00">hal/x86.h</text>
</g>
<!-- hal__types__h&#45;&gt;hal__x86__h -->
<g id="edge44" class="edge"><title>hal__types__h&#45;&gt;hal__x86__h</title>
<path fill="none" stroke="black" d="M709.34,-390.726C645.957,-356.542 485.472,-269.988 414.489,-231.705"/>
<polygon fill="black" stroke="black" points="415.949,-228.516 405.486,-226.849 412.626,-234.677 415.949,-228.516"/>
</g>
<!-- hal__irq__h -->
<g id="node41" class="node"><title>hal__irq__h</title>
<ellipse fill="none" stroke="black" cx="1314.81" cy="-212" rx="39.9464" ry="18"/>
<text text-anchor="middle" x="1314.81" y="-208.3" font-family="Times,serif" font-size="14.00">hal/irq.h</text>
</g>
<!-- hal__types__h&#45;&gt;hal__irq__h -->
<g id="edge47" class="edge"><title>hal__types__h&#45;&gt;hal__irq__h</title>
<path fill="none" stroke="black" d="M771.539,-393.407C857.051,-365.618 1080.18,-292.844 1265.81,-230 1268.7,-229.021 1271.68,-228.003 1274.69,-226.974"/>
<polygon fill="black" stroke="black" points="1275.93,-230.246 1284.25,-223.681 1273.65,-223.628 1275.93,-230.246"/>
</g>
<!-- hal__hal__h -->
<g id="node35" class="node"><title>hal__hal__h</title>
<ellipse fill="none" stroke="black" cx="2968.81" cy="-988" rx="41.394" ry="18"/>
<text text-anchor="middle" x="2968.81" y="-984.3" font-family="Times,serif" font-size="14.00">hal/hal.h</text>
</g>
<!-- hal__syscall__h -->
<g id="node36" class="node"><title>hal__syscall__h</title>
<ellipse fill="none" stroke="black" cx="2563.81" cy="-406" rx="54.3924" ry="18"/>
<text text-anchor="middle" x="2563.81" y="-402.3" font-family="Times,serif" font-size="14.00">hal/syscall.h</text>
</g>
<!-- hal__syscall__h&#45;&gt;syscall__h -->
<g id="edge7" class="edge"><title>hal__syscall__h&#45;&gt;syscall__h</title>
<path fill="none" stroke="black" d="M2567.45,-387.961C2574.59,-354.515 2590.49,-280.04 2599.07,-239.888"/>
<polygon fill="black" stroke="black" points="2602.51,-240.511 2601.18,-230.001 2595.67,-239.049 2602.51,-240.511"/>
</g>
<!-- hal__startup__h -->
<g id="node38" class="node"><title>hal__startup__h</title>
<ellipse fill="none" stroke="black" cx="3082.81" cy="-988" rx="54.3924" ry="18"/>
<text text-anchor="middle" x="3082.81" y="-984.3" font-family="Times,serif" font-size="14.00">hal/startup.h</text>
</g>
<!-- hal__x86__h&#45;&gt;hal__cpu_data__h -->
<g id="edge32" class="edge"><title>hal__x86__h&#45;&gt;hal__cpu_data__h</title>
<path fill="none" stroke="black" d="M376.612,-193.961C370.341,-160.515 356.377,-86.0398 348.849,-45.8885"/>
<polygon fill="black" stroke="black" points="352.278,-45.1842 346.995,-36.0005 345.398,-46.4743 352.278,-45.1842"/>
</g>
<!-- hal__x86__h&#45;&gt;hal__thread__h -->
<g id="edge34" class="edge"><title>hal__x86__h&#45;&gt;hal__thread__h</title>
<path fill="none" stroke="black" d="M412.39,-199.721C419.091,-197.635 426.138,-195.61 432.807,-194 809.49,-103.045 1272.85,-44.5372 1434.7,-25.6545"/>
<polygon fill="black" stroke="black" points="1435.39,-29.098 1444.92,-24.4681 1434.58,-22.1447 1435.39,-29.098"/>
</g>
<!-- hal__interrupt__h -->
<g id="node40" class="node"><title>hal__interrupt__h</title>
<ellipse fill="none" stroke="black" cx="2231.81" cy="-406" rx="61.1419" ry="18"/>
<text text-anchor="middle" x="2231.81" y="-402.3" font-family="Times,serif" font-size="14.00">hal/interrupt.h</text>
</g>
<!-- hal__asm__e820__h -->
<g id="node42" class="node"><title>hal__asm__e820__h</title>
<ellipse fill="none" stroke="black" cx="923.807" cy="-406" rx="64.4914" ry="18"/>
<text text-anchor="middle" x="923.807" y="-402.3" font-family="Times,serif" font-size="14.00">hal/asm/e820.h</text>
</g>
<!-- hal__asm__e820__h&#45;&gt;hal__e820__h -->
<g id="edge26" class="edge"><title>hal__asm__e820__h&#45;&gt;hal__e820__h</title>
<path fill="none" stroke="black" d="M947.616,-388.96C999.046,-354.312 1120.5,-272.494 1177.82,-233.874"/>
<polygon fill="black" stroke="black" points="1180.11,-236.55 1186.45,-228.06 1176.2,-230.745 1180.11,-236.55"/>
</g>
<!-- hal__asm__thread__h -->
<g id="node43" class="node"><title>hal__asm__thread__h</title>
<ellipse fill="none" stroke="black" cx="1594.81" cy="-794" rx="69.3156" ry="18"/>
<text text-anchor="middle" x="1594.81" y="-790.3" font-family="Times,serif" font-size="14.00">hal/asm/thread.h</text>
</g>
<!-- hal__asm__thread__h&#45;&gt;hal__thread__h -->
<g id="edge33" class="edge"><title>hal__asm__thread__h&#45;&gt;hal__thread__h</title>
<path fill="none" stroke="black" d="M1598.96,-775.994C1612.01,-720.264 1650.36,-538.107 1632.81,-388 1622.52,-299.987 1618.08,-276.912 1586.81,-194 1565.72,-138.091 1530.44,-77.4989 1509.93,-44.3091"/>
<polygon fill="black" stroke="black" points="1512.83,-42.3336 1504.56,-35.7012 1506.89,-46.0383 1512.83,-42.3336"/>
</g>
<!-- hal__asm__irq__h -->
<g id="node44" class="node"><title>hal__asm__irq__h</title>
<ellipse fill="none" stroke="black" cx="1064.81" cy="-406" rx="57.2688" ry="18"/>
<text text-anchor="middle" x="1064.81" y="-402.3" font-family="Times,serif" font-size="14.00">hal/asm/irq.h</text>
</g>
<!-- hal__asm__irq__h&#45;&gt;hal__irq__h -->
<g id="edge46" class="edge"><title>hal__asm__irq__h&#45;&gt;hal__irq__h</title>
<path fill="none" stroke="black" d="M1085.69,-388.96C1130.73,-354.37 1236.99,-272.765 1287.38,-234.066"/>
<polygon fill="black" stroke="black" points="1289.74,-236.665 1295.54,-227.798 1285.48,-231.113 1289.74,-236.665"/>
</g>
<!-- hal__asm__descriptors__h -->
<g id="node45" class="node"><title>hal__asm__descriptors__h</title>
<ellipse fill="none" stroke="black" cx="680.807" cy="-600" rx="86.1637" ry="18"/>
<text text-anchor="middle" x="680.807" y="-596.3" font-family="Times,serif" font-size="14.00">hal/asm/descriptors.h</text>
</g>
<!-- hal__asm__descriptors__h&#45;&gt;hal__descriptors__h -->
<g id="edge24" class="edge"><title>hal__asm__descriptors__h&#45;&gt;hal__descriptors__h</title>
<path fill="none" stroke="black" d="M660.569,-582.414C585.6,-520.975 323.607,-306.263 237.481,-235.679"/>
<polygon fill="black" stroke="black" points="239.66,-232.94 229.707,-229.309 235.223,-238.354 239.66,-232.94"/>
</g>
<!-- hal__asm__descriptors__h&#45;&gt;hal__types__h -->
<g id="edge40" class="edge"><title>hal__asm__descriptors__h&#45;&gt;hal__types__h</title>
<path fill="none" stroke="black" d="M685.688,-581.961C695.289,-548.444 716.694,-473.723 728.178,-433.633"/>
<polygon fill="black" stroke="black" points="731.548,-434.578 730.937,-424.001 724.819,-432.65 731.548,-434.578"/>
</g>
<!-- hal__asm__boot__h -->
<g id="node46" class="node"><title>hal__asm__boot__h</title>
<ellipse fill="none" stroke="black" cx="1386.81" cy="-794" rx="63.5411" ry="18"/>
<text text-anchor="middle" x="1386.81" y="-790.3" font-family="Times,serif" font-size="14.00">hal/asm/boot.h</text>
</g>
<!-- hal__asm__boot__h&#45;&gt;hal__boot__h -->
<g id="edge21" class="edge"><title>hal__asm__boot__h&#45;&gt;hal__boot__h</title>
<path fill="none" stroke="black" d="M1387.45,-775.623C1389.57,-719.497 1396.72,-538.007 1405.81,-388 1408.97,-335.864 1413.72,-275.07 1416.52,-240.599"/>
<polygon fill="black" stroke="black" points="1420.03,-240.628 1417.36,-230.376 1413.06,-240.058 1420.03,-240.628"/>
</g>
<!-- jinue__pfalloc__h -->
<g id="node47" class="node"><title>jinue__pfalloc__h</title>
<polygon fill="none" stroke="black" points="1578.06,-230 1483.56,-230 1483.56,-194 1578.06,-194 1578.06,-230"/>
<text text-anchor="middle" x="1530.81" y="-208.3" font-family="Times,serif" font-size="14.00">jinue/pfalloc.h</text>
</g>
<!-- jinue__elf__h -->
<g id="node48" class="node"><title>jinue__elf__h</title>
<polygon fill="none" stroke="black" points="312.807,-424 240.807,-424 240.807,-388 312.807,-388 312.807,-424"/>
<text text-anchor="middle" x="276.807" y="-402.3" font-family="Times,serif" font-size="14.00">jinue/elf.h</text>
</g>
<!-- jinue__types__h -->
<g id="node49" class="node"><title>jinue__types__h</title>
<polygon fill="none" stroke="black" points="2096.81,-230 2010.81,-230 2010.81,-194 2096.81,-194 2096.81,-230"/>
<text text-anchor="middle" x="2053.81" y="-208.3" font-family="Times,serif" font-size="14.00">jinue/types.h</text>
</g>
<!-- jinue__console__h -->
<g id="node50" class="node"><title>jinue__console__h</title>
<polygon fill="none" stroke="black" points="2482.06,-812 2383.56,-812 2383.56,-776 2482.06,-776 2482.06,-812"/>
<text text-anchor="middle" x="2432.81" y="-790.3" font-family="Times,serif" font-size="14.00">jinue/console.h</text>
</g>
<!-- jinue__errno__h -->
<g id="node51" class="node"><title>jinue__errno__h</title>
<polygon fill="none" stroke="black" points="3296.81,-812 3210.81,-812 3210.81,-776 3296.81,-776 3296.81,-812"/>
<text text-anchor="middle" x="3253.81" y="-790.3" font-family="Times,serif" font-size="14.00">jinue/errno.h</text>
</g>
<!-- jinue__vm__h -->
<g id="node52" class="node"><title>jinue__vm__h</title>
<polygon fill="none" stroke="black" points="876.807,-618 800.807,-618 800.807,-582 876.807,-582 876.807,-618"/>
<text text-anchor="middle" x="838.807" y="-596.3" font-family="Times,serif" font-size="14.00">jinue/vm.h</text>
</g>
<!-- jinue__syscall__h -->
<g id="node53" class="node"><title>jinue__syscall__h</title>
<polygon fill="none" stroke="black" points="1771.06,-230 1676.56,-230 1676.56,-194 1771.06,-194 1771.06,-230"/>
<text text-anchor="middle" x="1723.81" y="-208.3" font-family="Times,serif" font-size="14.00">jinue/syscall.h</text>
</g>
<!-- jinue__ipc__h -->
<g id="node54" class="node"><title>jinue__ipc__h</title>
<polygon fill="none" stroke="black" points="1863.81,-230 1789.81,-230 1789.81,-194 1863.81,-194 1863.81,-230"/>
<text text-anchor="middle" x="1826.81" y="-208.3" font-family="Times,serif" font-size="14.00">jinue/ipc.h</text>
</g>
<!-- jinue__pfaddr__h -->
<g id="node55" class="node"><title>jinue__pfaddr__h</title>
<polygon fill="none" stroke="black" points="1233.06,-424 1140.56,-424 1140.56,-388 1233.06,-388 1233.06,-424"/>
<text text-anchor="middle" x="1186.81" y="-402.3" font-family="Times,serif" font-size="14.00">jinue/pfaddr.h</text>
</g>
<!-- jinue__list__h -->
<g id="node56" class="node"><title>jinue__list__h</title>
<polygon fill="none" stroke="black" points="2437.81,-230 2363.81,-230 2363.81,-194 2437.81,-194 2437.81,-230"/>
<text text-anchor="middle" x="2400.81" y="-208.3" font-family="Times,serif" font-size="14.00">jinue/list.h</text>
</g>
<!-- jinue__common__console__h -->
<g id="node57" class="node"><title>jinue__common__console__h</title>
<polygon fill="none" stroke="black" points="2483.2,-980.544 2483.2,-995.456 2420.88,-1006 2332.74,-1006 2270.41,-995.456 2270.41,-980.544 2332.74,-970 2420.88,-970 2483.2,-980.544"/>
<text text-anchor="middle" x="2376.81" y="-984.3" font-family="Times,serif" font-size="14.00">jinue&#45;common/console.h</text>
</g>
<!-- jinue__common__console__h&#45;&gt;console__h -->
<g id="edge9" class="edge"><title>jinue__common__console__h&#45;&gt;console__h</title>
<path fill="none" stroke="black" d="M2371.84,-969.961C2362.06,-936.444 2340.27,-861.723 2328.57,-821.633"/>
<polygon fill="black" stroke="black" points="2331.93,-820.621 2325.77,-812.001 2325.21,-822.581 2331.93,-820.621"/>
</g>
<!-- jinue__common__console__h&#45;&gt;jinue__console__h -->
<g id="edge53" class="edge"><title>jinue__common__console__h&#45;&gt;jinue__console__h</title>
<path fill="none" stroke="black" d="M2381.78,-969.961C2391.55,-936.444 2413.35,-861.723 2425.04,-821.633"/>
<polygon fill="black" stroke="black" points="2428.41,-822.581 2427.85,-812.001 2421.69,-820.621 2428.41,-822.581"/>
</g>
<!-- jinue__common__elf__h -->
<g id="node58" class="node"><title>jinue__common__elf__h</title>
<polygon fill="none" stroke="black" points="364.212,-592.544 364.212,-607.456 313.011,-618 240.603,-618 189.402,-607.456 189.402,-592.544 240.603,-582 313.011,-582 364.212,-592.544"/>
<text text-anchor="middle" x="276.807" y="-596.3" font-family="Times,serif" font-size="14.00">jinue&#45;common/elf.h</text>
</g>
<!-- jinue__common__elf__h&#45;&gt;elf__h -->
<g id="edge4" class="edge"><title>jinue__common__elf__h&#45;&gt;elf__h</title>
<path fill="none" stroke="black" d="M251.381,-581.895C168.224,-523.942 -84.0011,-331.002 28.807,-194 140.478,-58.3793 731.127,-26.3829 886.391,-20.2677"/>
<polygon fill="black" stroke="black" points="886.945,-23.7492 896.805,-19.8711 886.679,-16.7543 886.945,-23.7492"/>
</g>
<!-- jinue__common__elf__h&#45;&gt;hal__types__h -->
<g id="edge38" class="edge"><title>jinue__common__elf__h&#45;&gt;hal__types__h</title>
<path fill="none" stroke="black" d="M316.338,-582.464C402.797,-546.298 607.931,-460.491 695.286,-423.95"/>
<polygon fill="black" stroke="black" points="696.727,-427.141 704.602,-420.053 694.026,-420.683 696.727,-427.141"/>
</g>
<!-- jinue__common__elf__h&#45;&gt;jinue__elf__h -->
<g id="edge51" class="edge"><title>jinue__common__elf__h&#45;&gt;jinue__elf__h</title>
<path fill="none" stroke="black" d="M276.807,-581.961C276.807,-548.586 276.807,-474.357 276.807,-434.145"/>
<polygon fill="black" stroke="black" points="280.307,-434 276.807,-424.001 273.307,-434.001 280.307,-434"/>
</g>
<!-- jinue__common__errno__h -->
<g id="node59" class="node"><title>jinue__common__errno__h</title>
<polygon fill="none" stroke="black" points="3352.04,-980.544 3352.04,-995.456 3294.5,-1006 3213.12,-1006 3155.57,-995.456 3155.57,-980.544 3213.12,-970 3294.5,-970 3352.04,-980.544"/>
<text text-anchor="middle" x="3253.81" y="-984.3" font-family="Times,serif" font-size="14.00">jinue&#45;common/errno.h</text>
</g>
<!-- jinue__common__errno__h&#45;&gt;jinue__errno__h -->
<g id="edge54" class="edge"><title>jinue__common__errno__h&#45;&gt;jinue__errno__h</title>
<path fill="none" stroke="black" d="M3253.81,-969.961C3253.81,-936.586 3253.81,-862.357 3253.81,-822.145"/>
<polygon fill="black" stroke="black" points="3257.31,-822 3253.81,-812.001 3250.31,-822.001 3257.31,-822"/>
</g>
<!-- jinue__common__ipc__h -->
<g id="node60" class="node"><title>jinue__common__ipc__h</title>
<polygon fill="none" stroke="black" points="1899.88,-398.544 1899.88,-413.456 1847.12,-424 1772.5,-424 1719.74,-413.456 1719.74,-398.544 1772.5,-388 1847.12,-388 1899.88,-398.544"/>
<text text-anchor="middle" x="1809.81" y="-402.3" font-family="Times,serif" font-size="14.00">jinue&#45;common/ipc.h</text>
</g>
<!-- jinue__common__ipc__h&#45;&gt;types__h -->
<g id="edge15" class="edge"><title>jinue__common__ipc__h&#45;&gt;types__h</title>
<path fill="none" stroke="black" d="M1819.57,-387.961C1838.99,-354.06 1882.56,-278.008 1905.33,-238.271"/>
<polygon fill="black" stroke="black" points="1908.45,-239.871 1910.38,-229.454 1902.37,-236.391 1908.45,-239.871"/>
</g>
<!-- jinue__common__ipc__h&#45;&gt;jinue__ipc__h -->
<g id="edge58" class="edge"><title>jinue__common__ipc__h&#45;&gt;jinue__ipc__h</title>
<path fill="none" stroke="black" d="M1811.32,-387.961C1814.27,-354.586 1820.84,-280.357 1824.4,-240.145"/>
<polygon fill="black" stroke="black" points="1827.91,-240.27 1825.3,-230.001 1820.93,-239.653 1827.91,-240.27"/>
</g>
<!-- jinue__common__syscall__h -->
<g id="node61" class="node"><title>jinue__common__syscall__h</title>
<polygon fill="none" stroke="black" points="2239.98,-592.544 2239.98,-607.456 2178.96,-618 2092.66,-618 2031.63,-607.456 2031.63,-592.544 2092.66,-582 2178.96,-582 2239.98,-592.544"/>
<text text-anchor="middle" x="2135.81" y="-596.3" font-family="Times,serif" font-size="14.00">jinue&#45;common/syscall.h</text>
</g>
<!-- jinue__common__syscall__h&#45;&gt;syscall__h -->
<g id="edge6" class="edge"><title>jinue__common__syscall__h&#45;&gt;syscall__h</title>
<path fill="none" stroke="black" d="M2239.95,-595.131C2356.21,-584.567 2539.45,-547.876 2626.81,-424 2666.39,-367.873 2636.63,-281.559 2617.55,-238.816"/>
<polygon fill="black" stroke="black" points="2620.69,-237.269 2613.32,-229.656 2614.34,-240.202 2620.69,-237.269"/>
</g>
<!-- jinue__common__syscall__h&#45;&gt;types__h -->
<g id="edge17" class="edge"><title>jinue__common__syscall__h&#45;&gt;types__h</title>
<path fill="none" stroke="black" d="M2107.25,-581.949C2064.31,-554.6 1984.17,-496.555 1946.81,-424 1915.92,-364.023 1915.37,-282.203 1917.58,-240.253"/>
<polygon fill="black" stroke="black" points="1921.09,-240.205 1918.22,-230.006 1914.1,-239.768 1921.09,-240.205"/>
</g>
<!-- jinue__common__syscall__h&#45;&gt;hal__syscall__h -->
<g id="edge41" class="edge"><title>jinue__common__syscall__h&#45;&gt;hal__syscall__h</title>
<path fill="none" stroke="black" d="M2173.79,-581.961C2254.2,-545.891 2440.98,-462.102 2523.44,-425.109"/>
<polygon fill="black" stroke="black" points="2525.27,-428.122 2532.96,-420.836 2522.41,-421.736 2525.27,-428.122"/>
</g>
<!-- jinue__common__syscall__h&#45;&gt;hal__interrupt__h -->
<g id="edge45" class="edge"><title>jinue__common__syscall__h&#45;&gt;hal__interrupt__h</title>
<path fill="none" stroke="black" d="M2144.33,-581.961C2161.16,-548.301 2198.76,-473.087 2218.75,-433.124"/>
<polygon fill="black" stroke="black" points="2221.97,-434.51 2223.31,-424.001 2215.7,-431.38 2221.97,-434.51"/>
</g>
<!-- jinue__common__syscall__h&#45;&gt;jinue__syscall__h -->
<g id="edge57" class="edge"><title>jinue__common__syscall__h&#45;&gt;jinue__syscall__h</title>
<path fill="none" stroke="black" d="M2043.85,-590.333C1942.75,-575.336 1784.85,-534.556 1710.81,-424 1672.99,-367.537 1696.68,-282.372 1712.68,-239.561"/>
<polygon fill="black" stroke="black" points="1715.99,-240.706 1716.35,-230.117 1709.47,-238.173 1715.99,-240.706"/>
</g>
<!-- jinue__common__syscall__h&#45;&gt;jinue__common__ipc__h -->
<g id="edge62" class="edge"><title>jinue__common__syscall__h&#45;&gt;jinue__common__ipc__h</title>
<path fill="none" stroke="black" d="M2106.88,-581.961C2047.79,-547.163 1913.3,-467.951 1847.49,-429.192"/>
<polygon fill="black" stroke="black" points="1849.07,-426.06 1838.67,-424.001 1845.51,-432.091 1849.07,-426.06"/>
</g>
<!-- jinue__common__types__h -->
<g id="node62" class="node"><title>jinue__common__types__h</title>
<polygon fill="none" stroke="black" points="2152.04,-398.544 2152.04,-413.456 2094.5,-424 2013.12,-424 1955.57,-413.456 1955.57,-398.544 2013.12,-388 2094.5,-388 2152.04,-398.544"/>
<text text-anchor="middle" x="2053.81" y="-402.3" font-family="Times,serif" font-size="14.00">jinue&#45;common/types.h</text>
</g>
<!-- jinue__common__types__h&#45;&gt;types__h -->
<g id="edge18" class="edge"><title>jinue__common__types__h&#45;&gt;types__h</title>
<path fill="none" stroke="black" d="M2041.92,-387.961C2018.1,-353.832 1964.46,-276.981 1936.89,-237.472"/>
<polygon fill="black" stroke="black" points="1939.7,-235.381 1931.1,-229.184 1933.95,-239.387 1939.7,-235.381"/>
</g>
<!-- jinue__common__types__h&#45;&gt;jinue__types__h -->
<g id="edge52" class="edge"><title>jinue__common__types__h&#45;&gt;jinue__types__h</title>
<path fill="none" stroke="black" d="M2053.81,-387.961C2053.81,-354.586 2053.81,-280.357 2053.81,-240.145"/>
<polygon fill="black" stroke="black" points="2057.31,-240 2053.81,-230.001 2050.31,-240.001 2057.31,-240"/>
</g>
<!-- jinue__common__list__h -->
<g id="node63" class="node"><title>jinue__common__list__h</title>
<polygon fill="none" stroke="black" points="2490.88,-398.544 2490.88,-413.456 2438.12,-424 2363.5,-424 2310.74,-413.456 2310.74,-398.544 2363.5,-388 2438.12,-388 2490.88,-398.544"/>
<text text-anchor="middle" x="2400.81" y="-402.3" font-family="Times,serif" font-size="14.00">jinue&#45;common/list.h</text>
</g>
<!-- jinue__common__list__h&#45;&gt;types__h -->
<g id="edge16" class="edge"><title>jinue__common__list__h&#45;&gt;types__h</title>
<path fill="none" stroke="black" d="M2359.8,-388.63C2267.5,-351.787 2044.64,-262.831 1956.54,-227.662"/>
<polygon fill="black" stroke="black" points="1957.8,-224.396 1947.21,-223.939 1955.2,-230.897 1957.8,-224.396"/>
</g>
<!-- jinue__common__list__h&#45;&gt;jinue__list__h -->
<g id="edge60" class="edge"><title>jinue__common__list__h&#45;&gt;jinue__list__h</title>
<path fill="none" stroke="black" d="M2400.81,-387.961C2400.81,-354.586 2400.81,-280.357 2400.81,-240.145"/>
<polygon fill="black" stroke="black" points="2404.31,-240 2400.81,-230.001 2397.31,-240.001 2404.31,-240"/>
</g>
<!-- jinue__common__pfaddr__h -->
<g id="node64" class="node"><title>jinue__common__pfaddr__h</title>
<polygon fill="none" stroke="black" points="1346.37,-592.544 1346.37,-607.456 1286.29,-618 1201.32,-618 1141.24,-607.456 1141.24,-592.544 1201.32,-582 1286.29,-582 1346.37,-592.544"/>
<text text-anchor="middle" x="1243.81" y="-596.3" font-family="Times,serif" font-size="14.00">jinue&#45;common/pfaddr.h</text>
</g>
<!-- jinue__common__pfaddr__h&#45;&gt;hal__pfaddr__h -->
<g id="edge37" class="edge"><title>jinue__common__pfaddr__h&#45;&gt;hal__pfaddr__h</title>
<path fill="none" stroke="black" d="M1249.22,-581.961C1259.87,-548.444 1283.61,-473.723 1296.35,-433.633"/>
<polygon fill="black" stroke="black" points="1299.71,-434.591 1299.41,-424.001 1293.04,-432.471 1299.71,-434.591"/>
</g>
<!-- jinue__common__pfaddr__h&#45;&gt;hal__types__h -->
<g id="edge39" class="edge"><title>jinue__common__pfaddr__h&#45;&gt;hal__types__h</title>
<path fill="none" stroke="black" d="M1199.61,-582.297C1102.86,-545.729 873.352,-458.985 778.235,-423.036"/>
<polygon fill="black" stroke="black" points="779.246,-419.676 768.654,-419.415 776.771,-426.224 779.246,-419.676"/>
</g>
<!-- jinue__common__pfaddr__h&#45;&gt;jinue__pfaddr__h -->
<g id="edge59" class="edge"><title>jinue__common__pfaddr__h&#45;&gt;jinue__pfaddr__h</title>
<path fill="none" stroke="black" d="M1238.75,-581.961C1228.8,-548.444 1206.62,-473.723 1194.71,-433.633"/>
<polygon fill="black" stroke="black" points="1198.06,-432.591 1191.85,-424.001 1191.34,-434.583 1198.06,-432.591"/>
</g>
<!-- jinue__common__pfalloc__h -->
<g id="node66" class="node"><title>jinue__common__pfalloc__h</title>
<polygon fill="none" stroke="black" points="1624.04,-398.544 1624.04,-413.456 1562.98,-424 1476.63,-424 1415.58,-413.456 1415.58,-398.544 1476.63,-388 1562.98,-388 1624.04,-398.544"/>
<text text-anchor="middle" x="1519.81" y="-402.3" font-family="Times,serif" font-size="14.00">jinue&#45;common/pfalloc.h</text>
</g>
<!-- jinue__common__pfaddr__h&#45;&gt;jinue__common__pfalloc__h -->
<g id="edge66" class="edge"><title>jinue__common__pfaddr__h&#45;&gt;jinue__common__pfalloc__h</title>
<path fill="none" stroke="black" d="M1268.3,-581.961C1318.02,-547.376 1430.79,-468.922 1486.87,-429.91"/>
<polygon fill="black" stroke="black" points="1489.16,-432.584 1495.37,-424.001 1485.16,-426.838 1489.16,-432.584"/>
</g>
<!-- jinue__common__vm__h -->
<g id="node65" class="node"><title>jinue__common__vm__h</title>
<polygon fill="none" stroke="black" points="1077.93,-786.544 1077.93,-801.456 1025.14,-812 950.475,-812 897.68,-801.456 897.68,-786.544 950.475,-776 1025.14,-776 1077.93,-786.544"/>
<text text-anchor="middle" x="987.807" y="-790.3" font-family="Times,serif" font-size="14.00">jinue&#45;common/vm.h</text>
</g>
<!-- jinue__common__vm__h&#45;&gt;slab__h -->
<g id="edge11" class="edge"><title>jinue__common__vm__h&#45;&gt;slab__h</title>
<path fill="none" stroke="black" d="M982.394,-775.961C971.745,-742.444 948.005,-667.723 935.268,-627.633"/>
<polygon fill="black" stroke="black" points="938.572,-626.471 932.208,-618.001 931.901,-628.591 938.572,-626.471"/>
</g>
<!-- jinue__common__vm__h&#45;&gt;hal__vm_macros__h -->
<g id="edge28" class="edge"><title>jinue__common__vm__h&#45;&gt;hal__vm_macros__h</title>
<path fill="none" stroke="black" d="M993.309,-775.961C1004.13,-742.444 1028.26,-667.723 1041.21,-627.633"/>
<polygon fill="black" stroke="black" points="1044.57,-628.592 1044.32,-618.001 1037.91,-626.441 1044.57,-628.592"/>
</g>
<!-- jinue__common__vm__h&#45;&gt;hal__vm__h -->
<g id="edge42" class="edge"><title>jinue__common__vm__h&#45;&gt;hal__vm__h</title>
<path fill="none" stroke="black" d="M901.411,-785.704C714.748,-768.191 282.362,-717.645 179.807,-618 72.3469,-513.589 73.2626,-313.441 77.5702,-240.478"/>
<polygon fill="black" stroke="black" points="81.0773,-240.486 78.2463,-230.277 74.0926,-240.023 81.0773,-240.486"/>
</g>
<!-- jinue__common__vm__h&#45;&gt;jinue__vm__h -->
<g id="edge55" class="edge"><title>jinue__common__vm__h&#45;&gt;jinue__vm__h</title>
<path fill="none" stroke="black" d="M974.584,-775.961C948.297,-742.088 889.352,-666.132 858.493,-626.368"/>
<polygon fill="black" stroke="black" points="860.896,-623.755 852,-618.001 855.366,-628.047 860.896,-623.755"/>
</g>
<!-- jinue__common__vm__h&#45;&gt;jinue__common__pfaddr__h -->
<g id="edge64" class="edge"><title>jinue__common__vm__h&#45;&gt;jinue__common__pfaddr__h</title>
<path fill="none" stroke="black" d="M1010.53,-775.961C1056.54,-741.447 1160.81,-663.244 1212.94,-624.152"/>
<polygon fill="black" stroke="black" points="1215.24,-626.801 1221.14,-618.001 1211.04,-621.201 1215.24,-626.801"/>
</g>
<!-- jinue__common__pfalloc__h&#45;&gt;pfalloc__h -->
<g id="edge1" class="edge"><title>jinue__common__pfalloc__h&#45;&gt;pfalloc__h</title>
<path fill="none" stroke="black" d="M1528.29,-387.616C1542.95,-356.722 1572.79,-289.866 1586.81,-230 1601.95,-165.349 1605.68,-87.0001 1606.57,-46.3889"/>
<polygon fill="black" stroke="black" points="1610.07,-46.2696 1606.74,-36.2099 1603.07,-46.1472 1610.07,-46.2696"/>
</g>
<!-- jinue__common__pfalloc__h&#45;&gt;jinue__pfalloc__h -->
<g id="edge50" class="edge"><title>jinue__common__pfalloc__h&#45;&gt;jinue__pfalloc__h</title>
<path fill="none" stroke="black" d="M1520.78,-387.961C1522.7,-354.586 1526.95,-280.357 1529.25,-240.145"/>
<polygon fill="black" stroke="black" points="1532.76,-240.184 1529.83,-230.001 1525.77,-239.784 1532.76,-240.184"/>
</g>
<!-- jinue__common__pfalloc__h&#45;&gt;jinue__syscall__h -->
<g id="edge56" class="edge"><title>jinue__common__pfalloc__h&#45;&gt;jinue__syscall__h</title>
<path fill="none" stroke="black" d="M1537.91,-387.961C1574.35,-353.661 1656.65,-276.21 1698.43,-236.881"/>
<polygon fill="black" stroke="black" points="1700.86,-239.403 1705.74,-230.001 1696.06,-234.306 1700.86,-239.403"/>
</g>
<!-- jinue__common__asm__ipc__h -->
<g id="node67" class="node"><title>jinue__common__asm__ipc__h</title>
<polygon fill="none" stroke="black" points="1917.81,-592.544 1917.81,-607.456 1854.55,-618 1765.07,-618 1701.8,-607.456 1701.8,-592.544 1765.07,-582 1854.55,-582 1917.81,-592.544"/>
<text text-anchor="middle" x="1809.81" y="-596.3" font-family="Times,serif" font-size="14.00">jinue&#45;common/asm/ipc.h</text>
</g>
<!-- jinue__common__asm__ipc__h&#45;&gt;jinue__common__ipc__h -->
<g id="edge61" class="edge"><title>jinue__common__asm__ipc__h&#45;&gt;jinue__common__ipc__h</title>
<path fill="none" stroke="black" d="M1809.81,-581.961C1809.81,-548.586 1809.81,-474.357 1809.81,-434.145"/>
<polygon fill="black" stroke="black" points="1813.31,-434 1809.81,-424.001 1806.31,-434.001 1813.31,-434"/>
</g>
<!-- jinue__common__asm__syscall__h -->
<g id="node68" class="node"><title>jinue__common__asm__syscall__h</title>
<polygon fill="none" stroke="black" points="2257.92,-786.544 2257.92,-801.456 2186.39,-812 2085.23,-812 2013.7,-801.456 2013.7,-786.544 2085.23,-776 2186.39,-776 2257.92,-786.544"/>
<text text-anchor="middle" x="2135.81" y="-790.3" font-family="Times,serif" font-size="14.00">jinue&#45;common/asm/syscall.h</text>
</g>
<!-- jinue__common__asm__syscall__h&#45;&gt;jinue__common__syscall__h -->
<g id="edge63" class="edge"><title>jinue__common__asm__syscall__h&#45;&gt;jinue__common__syscall__h</title>
<path fill="none" stroke="black" d="M2135.81,-775.961C2135.81,-742.586 2135.81,-668.357 2135.81,-628.145"/>
<polygon fill="black" stroke="black" points="2139.31,-628 2135.81,-618.001 2132.31,-628.001 2139.31,-628"/>
</g>
<!-- jinue__common__asm__vm__h -->
<g id="node69" class="node"><title>jinue__common__asm__vm__h</title>
<polygon fill="none" stroke="black" points="1495.87,-980.544 1495.87,-995.456 1431.98,-1006 1341.63,-1006 1277.75,-995.456 1277.75,-980.544 1341.63,-970 1431.98,-970 1495.87,-980.544"/>
<text text-anchor="middle" x="1386.81" y="-984.3" font-family="Times,serif" font-size="14.00">jinue&#45;common/asm/vm.h</text>
</g>
<!-- jinue__common__asm__vm__h&#45;&gt;hal__asm__thread__h -->
<g id="edge48" class="edge"><title>jinue__common__asm__vm__h&#45;&gt;hal__asm__thread__h</title>
<path fill="none" stroke="black" d="M1405.27,-969.961C1442.61,-935.488 1527.18,-857.429 1569.58,-818.29"/>
<polygon fill="black" stroke="black" points="1572.01,-820.809 1576.98,-811.454 1567.26,-815.665 1572.01,-820.809"/>
</g>
<!-- jinue__common__asm__vm__h&#45;&gt;hal__asm__boot__h -->
<g id="edge49" class="edge"><title>jinue__common__asm__vm__h&#45;&gt;hal__asm__boot__h</title>
<path fill="none" stroke="black" d="M1386.81,-969.961C1386.81,-936.586 1386.81,-862.357 1386.81,-822.145"/>
<polygon fill="black" stroke="black" points="1390.31,-822 1386.81,-812.001 1383.31,-822.001 1390.31,-822"/>
</g>
<!-- jinue__common__asm__vm__h&#45;&gt;jinue__common__vm__h -->
<g id="edge65" class="edge"><title>jinue__common__asm__vm__h&#45;&gt;jinue__common__vm__h</title>
<path fill="none" stroke="black" d="M1351.4,-969.961C1278.64,-934.949 1112.45,-854.978 1032.45,-816.484"/>
<polygon fill="black" stroke="black" points="1033.66,-813.183 1023.14,-812.001 1030.63,-819.491 1033.66,-813.183"/>
</g>
</g>
</svg>
