<?xml version="1.0" encoding="UTF-8" standalone="no"?>
<!DOCTYPE svg PUBLIC "-//W3C//DTD SVG 1.1//EN"
 "http://www.w3.org/Graphics/SVG/1.1/DTD/svg11.dtd">
<!-- Generated by graphviz version 2.30.1 (20201013.1554)
 -->
<!-- Title: hdeps Pages: 1 -->
<svg width="5105pt" height="1014pt"
 viewBox="0.00 0.00 5105.00 1014.00" xmlns="http://www.w3.org/2000/svg" xmlns:xlink="http://www.w3.org/1999/xlink">
<g id="graph0" class="graph" transform="scale(1 1) rotate(0) translate(4 1010)">
<title>hdeps</title>
<polygon fill="white" stroke="white" points="-4,5 -4,-1010 5102,-1010 5102,5 -4,5"/>
<!-- syscall__h -->
<g id="node1" class="node"><title>syscall__h</title>
<ellipse fill="none" stroke="black" cx="2438" cy="-406" rx="51.0191" ry="18"/>
<text text-anchor="middle" x="2438" y="-402.3" font-family="Times,serif" font-size="14.00">syscall.h</text>
</g>
<!-- process__h -->
<g id="node2" class="node"><title>process__h</title>
<ellipse fill="none" stroke="black" cx="362" cy="-212" rx="55.3436" ry="18"/>
<text text-anchor="middle" x="362" y="-208.3" font-family="Times,serif" font-size="14.00">process.h</text>
</g>
<!-- elf__h -->
<g id="node3" class="node"><title>elf__h</title>
<ellipse fill="none" stroke="black" cx="1677" cy="-212" rx="30.3206" ry="18"/>
<text text-anchor="middle" x="1677" y="-208.3" font-family="Times,serif" font-size="14.00">elf.h</text>
</g>
<!-- pfalloc__h -->
<g id="node4" class="node"><title>pfalloc__h</title>
<ellipse fill="none" stroke="black" cx="487" cy="-212" rx="50.5427" ry="18"/>
<text text-anchor="middle" x="487" y="-208.3" font-family="Times,serif" font-size="14.00">pfalloc.h</text>
</g>
<!-- console__h -->
<g id="node5" class="node"><title>console__h</title>
<ellipse fill="none" stroke="black" cx="3094" cy="-794" rx="54.3924" ry="18"/>
<text text-anchor="middle" x="3094" y="-790.3" font-family="Times,serif" font-size="14.00">console.h</text>
</g>
<!-- debug__h -->
<g id="node6" class="node"><title>debug__h</title>
<ellipse fill="none" stroke="black" cx="3462" cy="-988" rx="48.1437" ry="18"/>
<text text-anchor="middle" x="3462" y="-984.3" font-family="Times,serif" font-size="14.00">debug.h</text>
</g>
<!-- kbd__h -->
<g id="node7" class="node"><title>kbd__h</title>
<ellipse fill="none" stroke="black" cx="3565" cy="-988" rx="37.0701" ry="18"/>
<text text-anchor="middle" x="3565" y="-984.3" font-family="Times,serif" font-size="14.00">kbd.h</text>
</g>
<!-- panic__h -->
<g id="node8" class="node"><title>panic__h</title>
<ellipse fill="none" stroke="black" cx="3665" cy="-988" rx="44.271" ry="18"/>
<text text-anchor="middle" x="3665" y="-984.3" font-family="Times,serif" font-size="14.00">panic.h</text>
</g>
<!-- printk__h -->
<g id="node9" class="node"><title>printk__h</title>
<ellipse fill="none" stroke="black" cx="3776" cy="-988" rx="48.1437" ry="18"/>
<text text-anchor="middle" x="3776" y="-984.3" font-family="Times,serif" font-size="14.00">printk.h</text>
</g>
<!-- kmain__h -->
<g id="node10" class="node"><title>kmain__h</title>
<ellipse fill="none" stroke="black" cx="3890" cy="-988" rx="48.1437" ry="18"/>
<text text-anchor="middle" x="3890" y="-984.3" font-family="Times,serif" font-size="14.00">kmain.h</text>
</g>
<!-- types__h -->
<g id="node11" class="node"><title>types__h</title>
<ellipse fill="none" stroke="black" cx="886" cy="-406" rx="44.271" ry="18"/>
<text text-anchor="middle" x="886" y="-402.3" font-family="Times,serif" font-size="14.00">types.h</text>
</g>
<!-- types__h&#45;&gt;process__h -->
<g id="edge3" class="edge"><title>types__h&#45;&gt;process__h</title>
<path fill="none" stroke="black" d="M854.01,-393.279C764.355,-360.428 510.452,-267.395 406.853,-229.435"/>
<polygon fill="black" stroke="black" points="407.901,-226.091 397.307,-225.937 405.493,-232.664 407.901,-226.091"/>
</g>
<!-- types__h&#45;&gt;elf__h -->
<g id="edge5" class="edge"><title>types__h&#45;&gt;elf__h</title>
<path fill="none" stroke="black" d="M919.622,-394.161C926.657,-392.019 934.049,-389.86 941,-388 1247.42,-305.993 1335.16,-327.536 1637,-230 1639.39,-229.229 1641.83,-228.371 1644.27,-227.462"/>
<polygon fill="black" stroke="black" points="1645.57,-230.714 1653.58,-223.779 1642.99,-224.205 1645.57,-230.714"/>
</g>
<!-- types__h&#45;&gt;pfalloc__h -->
<g id="edge6" class="edge"><title>types__h&#45;&gt;pfalloc__h</title>
<path fill="none" stroke="black" d="M858.575,-391.803C788.87,-358.261 604.791,-269.682 524.897,-231.236"/>
<polygon fill="black" stroke="black" points="526.214,-227.986 515.685,-226.803 523.178,-234.293 526.214,-227.986"/>
</g>
<!-- page_alloc__h -->
<g id="node12" class="node"><title>page_alloc__h</title>
<ellipse fill="none" stroke="black" cx="625" cy="-212" rx="68.3417" ry="18"/>
<text text-anchor="middle" x="625" y="-208.3" font-family="Times,serif" font-size="14.00">page_alloc.h</text>
</g>
<!-- types__h&#45;&gt;page_alloc__h -->
<g id="edge14" class="edge"><title>types__h&#45;&gt;page_alloc__h</title>
<path fill="none" stroke="black" d="M865.52,-389.934C819.664,-356.201 708.563,-274.471 654.94,-235.025"/>
<polygon fill="black" stroke="black" points="656.975,-232.177 646.846,-229.07 652.827,-237.815 656.975,-232.177"/>
</g>
<!-- thread__h -->
<g id="node13" class="node"><title>thread__h</title>
<ellipse fill="none" stroke="black" cx="762" cy="-212" rx="50.0684" ry="18"/>
<text text-anchor="middle" x="762" y="-208.3" font-family="Times,serif" font-size="14.00">thread.h</text>
</g>
<!-- types__h&#45;&gt;thread__h -->
<g id="edge15" class="edge"><title>types__h&#45;&gt;thread__h</title>
<path fill="none" stroke="black" d="M875.213,-388.297C853.456,-354.61 804.2,-278.342 778.423,-238.429"/>
<polygon fill="black" stroke="black" points="781.216,-236.303 772.851,-229.801 775.336,-240.1 781.216,-236.303"/>
</g>
<!-- vmalloc__h -->
<g id="node14" class="node"><title>vmalloc__h</title>
<ellipse fill="none" stroke="black" cx="886" cy="-212" rx="55.3436" ry="18"/>
<text text-anchor="middle" x="886" y="-208.3" font-family="Times,serif" font-size="14.00">vmalloc.h</text>
</g>
<!-- types__h&#45;&gt;vmalloc__h -->
<g id="edge16" class="edge"><title>types__h&#45;&gt;vmalloc__h</title>
<path fill="none" stroke="black" d="M886,-387.961C886,-354.586 886,-280.357 886,-240.145"/>
<polygon fill="black" stroke="black" points="889.5,-240 886,-230.001 882.5,-240.001 889.5,-240"/>
</g>
<!-- ipc__h -->
<g id="node17" class="node"><title>ipc__h</title>
<ellipse fill="none" stroke="black" cx="994" cy="-212" rx="33.1991" ry="18"/>
<text text-anchor="middle" x="994" y="-208.3" font-family="Times,serif" font-size="14.00">ipc.h</text>
</g>
<!-- types__h&#45;&gt;ipc__h -->
<g id="edge18" class="edge"><title>types__h&#45;&gt;ipc__h</title>
<path fill="none" stroke="black" d="M895.395,-388.297C914.352,-354.596 957.28,-278.28 979.723,-238.381"/>
<polygon fill="black" stroke="black" points="982.851,-239.959 984.703,-229.528 976.75,-236.527 982.851,-239.959"/>
</g>
<!-- object__h -->
<g id="node18" class="node"><title>object__h</title>
<ellipse fill="none" stroke="black" cx="1094" cy="-212" rx="48.1437" ry="18"/>
<text text-anchor="middle" x="1094" y="-208.3" font-family="Times,serif" font-size="14.00">object.h</text>
</g>
<!-- types__h&#45;&gt;object__h -->
<g id="edge19" class="edge"><title>types__h&#45;&gt;object__h</title>
<path fill="none" stroke="black" d="M903.022,-389.288C939.74,-355.394 1026.52,-275.292 1069.29,-235.809"/>
<polygon fill="black" stroke="black" points="1071.77,-238.284 1076.74,-228.929 1067.02,-233.14 1071.77,-238.284"/>
</g>
<!-- util__h -->
<g id="node19" class="node"><title>util__h</title>
<ellipse fill="none" stroke="black" cx="35" cy="-212" rx="35.1455" ry="18"/>
<text text-anchor="middle" x="35" y="-208.3" font-family="Times,serif" font-size="14.00">util.h</text>
</g>
<!-- types__h&#45;&gt;util__h -->
<g id="edge20" class="edge"><title>types__h&#45;&gt;util__h</title>
<path fill="none" stroke="black" d="M845.555,-398.52C726.534,-378.962 367.733,-316.514 79,-230 76.3696,-229.212 73.6734,-228.338 70.9737,-227.416"/>
<polygon fill="black" stroke="black" points="71.8881,-224.025 61.2938,-223.922 69.5118,-230.609 71.8881,-224.025"/>
</g>
<!-- boot__h -->
<g id="node20" class="node"><title>boot__h</title>
<ellipse fill="none" stroke="black" cx="128" cy="-212" rx="39.9464" ry="18"/>
<text text-anchor="middle" x="128" y="-208.3" font-family="Times,serif" font-size="14.00">boot.h</text>
</g>
<!-- types__h&#45;&gt;boot__h -->
<g id="edge21" class="edge"><title>types__h&#45;&gt;boot__h</title>
<path fill="none" stroke="black" d="M847.624,-396.832C740.616,-373.778 430.157,-304.985 177,-230 174.031,-229.121 170.975,-228.171 167.91,-227.185"/>
<polygon fill="black" stroke="black" points="168.773,-223.784 158.18,-223.958 166.57,-230.428 168.773,-223.784"/>
</g>
<!-- hal__vm__h -->
<g id="node23" class="node"><title>hal__vm__h</title>
<ellipse fill="none" stroke="black" cx="1871" cy="-212" rx="50.5427" ry="18"/>
<text text-anchor="middle" x="1871" y="-208.3" font-family="Times,serif" font-size="14.00">hal/vm.h</text>
</g>
<!-- types__h&#45;&gt;hal__vm__h -->
<g id="edge27" class="edge"><title>types__h&#45;&gt;hal__vm__h</title>
<path fill="none" stroke="black" d="M919.269,-394.014C926.395,-391.859 933.913,-389.732 941,-388 1322.75,-294.694 1428.17,-318.78 1811,-230 1815.15,-229.037 1819.45,-227.968 1823.74,-226.848"/>
<polygon fill="black" stroke="black" points="1824.95,-230.148 1833.7,-224.171 1823.13,-223.389 1824.95,-230.148"/>
</g>
<!-- hal__mem__h -->
<g id="node25" class="node"><title>hal__mem__h</title>
<ellipse fill="none" stroke="black" cx="1420" cy="-212" rx="59.1941" ry="18"/>
<text text-anchor="middle" x="1420" y="-208.3" font-family="Times,serif" font-size="14.00">hal/mem.h</text>
</g>
<!-- types__h&#45;&gt;hal__mem__h -->
<g id="edge31" class="edge"><title>types__h&#45;&gt;hal__mem__h</title>
<path fill="none" stroke="black" d="M918.202,-393.422C1009.06,-360.755 1267.68,-267.768 1373.75,-229.63"/>
<polygon fill="black" stroke="black" points="1375,-232.899 1383.23,-226.222 1372.63,-226.312 1375,-232.899"/>
</g>
<!-- hal__thread__h -->
<g id="node26" class="node"><title>hal__thread__h</title>
<ellipse fill="none" stroke="black" cx="2154" cy="-212" rx="67.3907" ry="18"/>
<text text-anchor="middle" x="2154" y="-208.3" font-family="Times,serif" font-size="14.00">hal/thread.h</text>
</g>
<!-- types__h&#45;&gt;hal__thread__h -->
<g id="edge34" class="edge"><title>types__h&#45;&gt;hal__thread__h</title>
<path fill="none" stroke="black" d="M918.93,-393.904C926.145,-391.731 933.785,-389.625 941,-388 1367.75,-291.885 1891.4,-237.281 2081.07,-219.503"/>
<polygon fill="black" stroke="black" points="2081.56,-222.973 2091.2,-218.56 2080.91,-216.003 2081.56,-222.973"/>
</g>
<!-- hal__vm_pae__h -->
<g id="node31" class="node"><title>hal__vm_pae__h</title>
<ellipse fill="none" stroke="black" cx="1270" cy="-212" rx="72.2155" ry="18"/>
<text text-anchor="middle" x="1270" y="-208.3" font-family="Times,serif" font-size="14.00">hal/vm_pae.h</text>
</g>
<!-- types__h&#45;&gt;hal__vm_pae__h -->
<g id="edge39" class="edge"><title>types__h&#45;&gt;hal__vm_pae__h</title>
<path fill="none" stroke="black" d="M913.002,-391.499C979.605,-358.197 1151.99,-272.004 1230.28,-232.862"/>
<polygon fill="black" stroke="black" points="1231.96,-235.931 1239.34,-228.328 1228.83,-229.67 1231.96,-235.931"/>
</g>
<!-- hal__hal__h -->
<g id="node39" class="node"><title>hal__hal__h</title>
<ellipse fill="none" stroke="black" cx="237" cy="-212" rx="50.5427" ry="18"/>
<text text-anchor="middle" x="237" y="-208.3" font-family="Times,serif" font-size="14.00">hal/hal.h</text>
</g>
<!-- types__h&#45;&gt;hal__hal__h -->
<g id="edge47" class="edge"><title>types__h&#45;&gt;hal__hal__h</title>
<path fill="none" stroke="black" d="M851.107,-394.677C742.16,-362.446 408.195,-263.646 284.088,-226.931"/>
<polygon fill="black" stroke="black" points="285.058,-223.567 274.476,-224.087 283.072,-230.28 285.058,-223.567"/>
</g>
<!-- hal__vm_private__h -->
<g id="node41" class="node"><title>hal__vm_private__h</title>
<ellipse fill="none" stroke="black" cx="1508" cy="-18" rx="89.0632" ry="18"/>
<text text-anchor="middle" x="1508" y="-14.3" font-family="Times,serif" font-size="14.00">hal/vm_private.h</text>
</g>
<!-- types__h&#45;&gt;hal__vm_private__h -->
<g id="edge54" class="edge"><title>types__h&#45;&gt;hal__vm_private__h</title>
<path fill="none" stroke="black" d="M910.361,-390.881C958.24,-362.712 1067.23,-296.504 1151,-230 1169.22,-215.535 1170.2,-207.707 1189,-194 1280.27,-127.445 1399.68,-68.4828 1463.39,-38.9796"/>
<polygon fill="black" stroke="black" points="1465.12,-42.0324 1472.74,-34.6719 1462.2,-35.6736 1465.12,-42.0324"/>
</g>
<!-- slab__h -->
<g id="node15" class="node"><title>slab__h</title>
<ellipse fill="none" stroke="black" cx="1764" cy="-212" rx="38.0212" ry="18"/>
<text text-anchor="middle" x="1764" y="-208.3" font-family="Times,serif" font-size="14.00">slab.h</text>
</g>
<!-- ascii__h -->
<g id="node16" class="node"><title>ascii__h</title>
<ellipse fill="none" stroke="black" cx="3997" cy="-988" rx="40.4202" ry="18"/>
<text text-anchor="middle" x="3997" y="-984.3" font-family="Times,serif" font-size="14.00">ascii.h</text>
</g>
<!-- hal__startup__h -->
<g id="node21" class="node"><title>hal__startup__h</title>
<ellipse fill="none" stroke="black" cx="4127" cy="-988" rx="70.2668" ry="18"/>
<text text-anchor="middle" x="4127" y="-984.3" font-family="Times,serif" font-size="14.00">hal/startup.h</text>
</g>
<!-- hal__x86__h -->
<g id="node22" class="node"><title>hal__x86__h</title>
<ellipse fill="none" stroke="black" cx="2315" cy="-406" rx="53.4184" ry="18"/>
<text text-anchor="middle" x="2315" y="-402.3" font-family="Times,serif" font-size="14.00">hal/x86.h</text>
</g>
<!-- hal__x86__h&#45;&gt;hal__thread__h -->
<g id="edge33" class="edge"><title>hal__x86__h&#45;&gt;hal__thread__h</title>
<path fill="none" stroke="black" d="M2300.99,-388.297C2272.57,-354.397 2207.98,-277.377 2174.69,-237.677"/>
<polygon fill="black" stroke="black" points="2177.2,-235.215 2168.09,-229.801 2171.83,-239.712 2177.2,-235.215"/>
</g>
<!-- hal__cpu_data__h -->
<g id="node27" class="node"><title>hal__cpu_data__h</title>
<ellipse fill="none" stroke="black" cx="2524" cy="-212" rx="78.9404" ry="18"/>
<text text-anchor="middle" x="2524" y="-208.3" font-family="Times,serif" font-size="14.00">hal/cpu_data.h</text>
</g>
<!-- hal__x86__h&#45;&gt;hal__cpu_data__h -->
<g id="edge36" class="edge"><title>hal__x86__h&#45;&gt;hal__cpu_data__h</title>
<path fill="none" stroke="black" d="M2332.46,-388.96C2369.31,-355.107 2455.18,-276.22 2498.31,-236.597"/>
<polygon fill="black" stroke="black" points="2500.85,-239.018 2505.85,-229.675 2496.12,-233.863 2500.85,-239.018"/>
</g>
<!-- hal__vm__h&#45;&gt;hal__vm_private__h -->
<g id="edge51" class="edge"><title>hal__vm__h&#45;&gt;hal__vm_private__h</title>
<path fill="none" stroke="black" d="M1844.01,-196.726C1780.51,-163.139 1621.43,-78.995 1547.24,-39.7542"/>
<polygon fill="black" stroke="black" points="1548.68,-36.5548 1538.2,-34.9732 1545.4,-42.7426 1548.68,-36.5548"/>
</g>
<!-- hal__boot__h -->
<g id="node24" class="node"><title>hal__boot__h</title>
<ellipse fill="none" stroke="black" cx="2346" cy="-212" rx="57.2927" ry="18"/>
<text text-anchor="middle" x="2346" y="-208.3" font-family="Times,serif" font-size="14.00">hal/boot.h</text>
</g>
<!-- hal__interrupt__h -->
<g id="node28" class="node"><title>hal__interrupt__h</title>
<ellipse fill="none" stroke="black" cx="3072" cy="-406" rx="78.9404" ry="18"/>
<text text-anchor="middle" x="3072" y="-402.3" font-family="Times,serif" font-size="14.00">hal/interrupt.h</text>
</g>
<!-- hal__vga__h -->
<g id="node29" class="node"><title>hal__vga__h</title>
<ellipse fill="none" stroke="black" cx="3059" cy="-988" rx="52.9443" ry="18"/>
<text text-anchor="middle" x="3059" y="-984.3" font-family="Times,serif" font-size="14.00">hal/vga.h</text>
</g>
<!-- hal__vga__h&#45;&gt;console__h -->
<g id="edge8" class="edge"><title>hal__vga__h&#45;&gt;console__h</title>
<path fill="none" stroke="black" d="M3062.11,-969.961C3068.2,-936.515 3081.78,-862.04 3089.1,-821.888"/>
<polygon fill="black" stroke="black" points="3092.55,-822.466 3090.9,-812.001 3085.66,-821.211 3092.55,-822.466"/>
</g>
<!-- hal__io__h -->
<g id="node30" class="node"><title>hal__io__h</title>
<ellipse fill="none" stroke="black" cx="4261" cy="-988" rx="44.271" ry="18"/>
<text text-anchor="middle" x="4261" y="-984.3" font-family="Times,serif" font-size="14.00">hal/io.h</text>
</g>
<!-- hal__vm_pae__h&#45;&gt;hal__vm_private__h -->
<g id="edge52" class="edge"><title>hal__vm_pae__h&#45;&gt;hal__vm_private__h</title>
<path fill="none" stroke="black" d="M1290.29,-194.63C1332.69,-160.425 1430.77,-81.3027 1479.48,-42.0051"/>
<polygon fill="black" stroke="black" points="1481.84,-44.604 1487.42,-35.6011 1477.44,-39.1558 1481.84,-44.604"/>
</g>
<!-- hal__vm_x86__h -->
<g id="node32" class="node"><title>hal__vm_x86__h</title>
<ellipse fill="none" stroke="black" cx="2656" cy="-406" rx="72.192" ry="18"/>
<text text-anchor="middle" x="2656" y="-402.3" font-family="Times,serif" font-size="14.00">hal/vm_x86.h</text>
</g>
<!-- hal__vm_x86__h&#45;&gt;hal__vm_private__h -->
<g id="edge53" class="edge"><title>hal__vm_x86__h&#45;&gt;hal__vm_private__h</title>
<path fill="none" stroke="black" d="M2658.26,-387.756C2662.48,-347.37 2666.73,-246.141 2612,-194 2468.3,-57.0849 1849.33,-27.2395 1606.4,-20.7735"/>
<polygon fill="black" stroke="black" points="1606.25,-17.2687 1596.17,-20.5091 1606.07,-24.2664 1606.25,-17.2687"/>
</g>
<!-- hal__descriptors__h -->
<g id="node33" class="node"><title>hal__descriptors__h</title>
<ellipse fill="none" stroke="black" cx="3259" cy="-406" rx="89.5377" ry="18"/>
<text text-anchor="middle" x="3259" y="-402.3" font-family="Times,serif" font-size="14.00">hal/descriptors.h</text>
</g>
<!-- hal__trap__h -->
<g id="node34" class="node"><title>hal__trap__h</title>
<ellipse fill="none" stroke="black" cx="4380" cy="-988" rx="55.3436" ry="18"/>
<text text-anchor="middle" x="4380" y="-984.3" font-family="Times,serif" font-size="14.00">hal/trap.h</text>
</g>
<!-- hal__serial__h -->
<g id="node35" class="node"><title>hal__serial__h</title>
<ellipse fill="none" stroke="black" cx="4538" cy="-794" rx="62.0922" ry="18"/>
<text text-anchor="middle" x="4538" y="-790.3" font-family="Times,serif" font-size="14.00">hal/serial.h</text>
</g>
<!-- hal__pic8259__h -->
<g id="node36" class="node"><title>hal__pic8259__h</title>
<ellipse fill="none" stroke="black" cx="4737" cy="-794" rx="74.1402" ry="18"/>
<text text-anchor="middle" x="4737" y="-790.3" font-family="Times,serif" font-size="14.00">hal/pic8259.h</text>
</g>
<!-- hal__cpu__h -->
<g id="node37" class="node"><title>hal__cpu__h</title>
<ellipse fill="none" stroke="black" cx="2801" cy="-406" rx="53.4184" ry="18"/>
<text text-anchor="middle" x="2801" y="-402.3" font-family="Times,serif" font-size="14.00">hal/cpu.h</text>
</g>
<!-- hal__abi__h -->
<g id="node38" class="node"><title>hal__abi__h</title>
<ellipse fill="none" stroke="black" cx="2924" cy="-406" rx="50.5427" ry="18"/>
<text text-anchor="middle" x="2924" y="-402.3" font-family="Times,serif" font-size="14.00">hal/abi.h</text>
</g>
<!-- hal__types__h -->
<g id="node40" class="node"><title>hal__types__h</title>
<ellipse fill="none" stroke="black" cx="2605" cy="-600" rx="61.6163" ry="18"/>
<text text-anchor="middle" x="2605" y="-596.3" font-family="Times,serif" font-size="14.00">hal/types.h</text>
</g>
<!-- hal__types__h&#45;&gt;syscall__h -->
<g id="edge2" class="edge"><title>hal__types__h&#45;&gt;syscall__h</title>
<path fill="none" stroke="black" d="M2590.47,-582.297C2560.91,-548.312 2493.66,-470.989 2459.2,-431.378"/>
<polygon fill="black" stroke="black" points="2461.58,-428.776 2452.38,-423.528 2456.3,-433.37 2461.58,-428.776"/>
</g>
<!-- hal__types__h&#45;&gt;types__h -->
<g id="edge13" class="edge"><title>hal__types__h&#45;&gt;types__h</title>
<path fill="none" stroke="black" d="M2546.3,-594.374C2288.91,-573.851 1258.82,-489.179 941,-424 936.925,-423.164 932.721,-422.151 928.537,-421.04"/>
<polygon fill="black" stroke="black" points="929.46,-417.663 918.884,-418.307 927.553,-424.398 929.46,-417.663"/>
</g>
<!-- hal__types__h&#45;&gt;hal__x86__h -->
<g id="edge23" class="edge"><title>hal__types__h&#45;&gt;hal__x86__h</title>
<path fill="none" stroke="black" d="M2581.27,-583.288C2529.29,-548.872 2405.34,-466.813 2346.74,-428.014"/>
<polygon fill="black" stroke="black" points="2348.52,-424.995 2338.25,-422.393 2344.66,-430.831 2348.52,-424.995"/>
</g>
<!-- hal__types__h&#45;&gt;hal__boot__h -->
<g id="edge29" class="edge"><title>hal__types__h&#45;&gt;hal__boot__h</title>
<path fill="none" stroke="black" d="M2598.12,-582.085C2582.78,-545.247 2543.51,-455.644 2498,-388 2458.49,-329.27 2401.51,-268.628 2369.73,-236.428"/>
<polygon fill="black" stroke="black" points="2372.12,-233.873 2362.59,-229.248 2367.16,-238.808 2372.12,-233.873"/>
</g>
<!-- hal__types__h&#45;&gt;hal__cpu_data__h -->
<g id="edge35" class="edge"><title>hal__types__h&#45;&gt;hal__cpu_data__h</title>
<path fill="none" stroke="black" d="M2601.42,-581.916C2588.66,-521.145 2545.43,-315.103 2529.74,-240.366"/>
<polygon fill="black" stroke="black" points="2533.11,-239.393 2527.64,-230.325 2526.26,-240.83 2533.11,-239.393"/>
</g>
<!-- hal__types__h&#45;&gt;hal__interrupt__h -->
<g id="edge38" class="edge"><title>hal__types__h&#45;&gt;hal__interrupt__h</title>
<path fill="none" stroke="black" d="M2639.34,-584.882C2722.04,-550.881 2932.31,-464.431 3025.88,-425.961"/>
<polygon fill="black" stroke="black" points="3027.45,-429.101 3035.37,-422.061 3024.79,-422.627 3027.45,-429.101"/>
</g>
<!-- hal__types__h&#45;&gt;hal__vm_x86__h -->
<g id="edge40" class="edge"><title>hal__types__h&#45;&gt;hal__vm_x86__h</title>
<path fill="none" stroke="black" d="M2609.53,-581.961C2618.41,-548.515 2638.19,-474.04 2648.86,-433.888"/>
<polygon fill="black" stroke="black" points="2652.3,-434.564 2651.48,-424.001 2645.53,-432.767 2652.3,-434.564"/>
</g>
<!-- hal__types__h&#45;&gt;hal__descriptors__h -->
<g id="edge42" class="edge"><title>hal__types__h&#45;&gt;hal__descriptors__h</title>
<path fill="none" stroke="black" d="M2646.91,-586.697C2759.83,-553.544 3070.71,-462.278 3200.68,-424.12"/>
<polygon fill="black" stroke="black" points="3201.86,-427.423 3210.47,-421.248 3199.89,-420.707 3201.86,-427.423"/>
</g>
<!-- hal__types__h&#45;&gt;hal__cpu__h -->
<g id="edge45" class="edge"><title>hal__types__h&#45;&gt;hal__cpu__h</title>
<path fill="none" stroke="black" d="M2621.71,-582.63C2656.43,-548.623 2736.47,-470.216 2776.82,-430.69"/>
<polygon fill="black" stroke="black" points="2779.64,-432.826 2784.33,-423.328 2774.74,-427.826 2779.64,-432.826"/>
</g>
<!-- hal__types__h&#45;&gt;hal__abi__h -->
<g id="edge46" class="edge"><title>hal__types__h&#45;&gt;hal__abi__h</title>
<path fill="none" stroke="black" d="M2630.57,-583.612C2687.78,-549.178 2826.13,-465.908 2890.29,-427.292"/>
<polygon fill="black" stroke="black" points="2892.43,-430.085 2899.19,-421.93 2888.82,-424.088 2892.43,-430.085"/>
</g>
<!-- hal__asm__mem__h -->
<g id="node42" class="node"><title>hal__asm__mem__h</title>
<ellipse fill="none" stroke="black" cx="1532" cy="-600" rx="81.3646" ry="18"/>
<text text-anchor="middle" x="1532" y="-596.3" font-family="Times,serif" font-size="14.00">hal/asm/mem.h</text>
</g>
<!-- hal__asm__mem__h&#45;&gt;hal__mem__h -->
<g id="edge30" class="edge"><title>hal__asm__mem__h&#45;&gt;hal__mem__h</title>
<path fill="none" stroke="black" d="M1520.03,-582.121C1499.4,-552.01 1457.54,-486.327 1439,-424 1420.03,-360.222 1418.38,-281.211 1419.05,-240.348"/>
<polygon fill="black" stroke="black" points="1422.55,-240.188 1419.28,-230.112 1415.55,-240.031 1422.55,-240.188"/>
</g>
<!-- hal__asm__boot__h -->
<g id="node45" class="node"><title>hal__asm__boot__h</title>
<ellipse fill="none" stroke="black" cx="1766" cy="-406" rx="78.9404" ry="18"/>
<text text-anchor="middle" x="1766" y="-402.3" font-family="Times,serif" font-size="14.00">hal/asm/boot.h</text>
</g>
<!-- hal__asm__mem__h&#45;&gt;hal__asm__boot__h -->
<g id="edge57" class="edge"><title>hal__asm__mem__h&#45;&gt;hal__asm__boot__h</title>
<path fill="none" stroke="black" d="M1552.36,-582.297C1594.3,-547.885 1690.39,-469.041 1738.08,-429.905"/>
<polygon fill="black" stroke="black" points="1740.35,-432.577 1745.86,-423.528 1735.91,-427.165 1740.35,-432.577"/>
</g>
<!-- hal__asm__irq__h -->
<g id="node43" class="node"><title>hal__asm__irq__h</title>
<ellipse fill="none" stroke="black" cx="3072" cy="-600" rx="71.2405" ry="18"/>
<text text-anchor="middle" x="3072" y="-596.3" font-family="Times,serif" font-size="14.00">hal/asm/irq.h</text>
</g>
<!-- hal__asm__irq__h&#45;&gt;hal__interrupt__h -->
<g id="edge37" class="edge"><title>hal__asm__irq__h&#45;&gt;hal__interrupt__h</title>
<path fill="none" stroke="black" d="M3072,-581.961C3072,-548.586 3072,-474.357 3072,-434.145"/>
<polygon fill="black" stroke="black" points="3075.5,-434 3072,-424.001 3068.5,-434.001 3075.5,-434"/>
</g>
<!-- hal__asm__pic8259__h -->
<g id="node44" class="node"><title>hal__asm__pic8259__h</title>
<ellipse fill="none" stroke="black" cx="4737" cy="-988" rx="96.2874" ry="18"/>
<text text-anchor="middle" x="4737" y="-984.3" font-family="Times,serif" font-size="14.00">hal/asm/pic8259.h</text>
</g>
<!-- hal__asm__pic8259__h&#45;&gt;hal__pic8259__h -->
<g id="edge44" class="edge"><title>hal__asm__pic8259__h&#45;&gt;hal__pic8259__h</title>
<path fill="none" stroke="black" d="M4737,-969.961C4737,-936.586 4737,-862.357 4737,-822.145"/>
<polygon fill="black" stroke="black" points="4740.5,-822 4737,-812.001 4733.5,-822.001 4740.5,-822"/>
</g>
<!-- hal__asm__boot__h&#45;&gt;hal__vm__h -->
<g id="edge25" class="edge"><title>hal__asm__boot__h&#45;&gt;hal__vm__h</title>
<path fill="none" stroke="black" d="M1775.32,-387.961C1793.81,-354.145 1835.24,-278.389 1857.02,-238.57"/>
<polygon fill="black" stroke="black" points="1860.13,-240.179 1861.85,-229.726 1853.98,-236.821 1860.13,-240.179"/>
</g>
<!-- hal__asm__boot__h&#45;&gt;hal__boot__h -->
<g id="edge28" class="edge"><title>hal__asm__boot__h&#45;&gt;hal__boot__h</title>
<path fill="none" stroke="black" d="M1809.12,-390.726C1915.13,-355.631 2187.88,-265.342 2298.42,-228.752"/>
<polygon fill="black" stroke="black" points="2299.58,-232.054 2307.97,-225.588 2297.38,-225.408 2299.58,-232.054"/>
</g>
<!-- hal__asm__descriptors__h -->
<g id="node46" class="node"><title>hal__asm__descriptors__h</title>
<ellipse fill="none" stroke="black" cx="2910" cy="-794" rx="111.186" ry="18"/>
<text text-anchor="middle" x="2910" y="-790.3" font-family="Times,serif" font-size="14.00">hal/asm/descriptors.h</text>
</g>
<!-- hal__asm__descriptors__h&#45;&gt;hal__descriptors__h -->
<g id="edge41" class="edge"><title>hal__asm__descriptors__h&#45;&gt;hal__descriptors__h</title>
<path fill="none" stroke="black" d="M2941.55,-776.692C2991.59,-749.524 3089.86,-690.731 3152,-618 3201.17,-560.446 3235,-476.399 3250.09,-433.837"/>
<polygon fill="black" stroke="black" points="3253.47,-434.788 3253.44,-424.193 3246.86,-432.491 3253.47,-434.788"/>
</g>
<!-- hal__asm__descriptors__h&#45;&gt;hal__types__h -->
<g id="edge49" class="edge"><title>hal__asm__descriptors__h&#45;&gt;hal__types__h</title>
<path fill="none" stroke="black" d="M2883.73,-776.464C2828.37,-741.612 2699.77,-660.658 2638.55,-622.121"/>
<polygon fill="black" stroke="black" points="2640.35,-619.119 2630.03,-616.754 2636.62,-625.043 2640.35,-619.119"/>
</g>
<!-- hal__asm__thread__h -->
<g id="node47" class="node"><title>hal__asm__thread__h</title>
<ellipse fill="none" stroke="black" cx="2154" cy="-406" rx="89.0632" ry="18"/>
<text text-anchor="middle" x="2154" y="-402.3" font-family="Times,serif" font-size="14.00">hal/asm/thread.h</text>
</g>
<!-- hal__asm__thread__h&#45;&gt;hal__thread__h -->
<g id="edge32" class="edge"><title>hal__asm__thread__h&#45;&gt;hal__thread__h</title>
<path fill="none" stroke="black" d="M2154,-387.961C2154,-354.586 2154,-280.357 2154,-240.145"/>
<polygon fill="black" stroke="black" points="2157.5,-240 2154,-230.001 2150.5,-240.001 2157.5,-240"/>
</g>
<!-- hal__asm__vm__h -->
<g id="node48" class="node"><title>hal__asm__vm__h</title>
<ellipse fill="none" stroke="black" cx="1974" cy="-406" rx="72.192" ry="18"/>
<text text-anchor="middle" x="1974" y="-402.3" font-family="Times,serif" font-size="14.00">hal/asm/vm.h</text>
</g>
<!-- hal__asm__vm__h&#45;&gt;hal__vm__h -->
<g id="edge26" class="edge"><title>hal__asm__vm__h&#45;&gt;hal__vm__h</title>
<path fill="none" stroke="black" d="M1964.86,-387.961C1946.72,-354.145 1906.08,-278.389 1884.72,-238.57"/>
<polygon fill="black" stroke="black" points="1887.78,-236.884 1879.97,-229.726 1881.62,-240.193 1887.78,-236.884"/>
</g>
<!-- hal__asm__x86__h -->
<g id="node49" class="node"><title>hal__asm__x86__h</title>
<ellipse fill="none" stroke="black" cx="2087" cy="-600" rx="75.0904" ry="18"/>
<text text-anchor="middle" x="2087" y="-596.3" font-family="Times,serif" font-size="14.00">hal/asm/x86.h</text>
</g>
<!-- hal__asm__x86__h&#45;&gt;hal__x86__h -->
<g id="edge22" class="edge"><title>hal__asm__x86__h&#45;&gt;hal__x86__h</title>
<path fill="none" stroke="black" d="M2106.83,-582.297C2147.82,-547.784 2241.88,-468.578 2288.21,-429.561"/>
<polygon fill="black" stroke="black" points="2290.62,-432.105 2296.02,-422.986 2286.11,-426.75 2290.62,-432.105"/>
</g>
<!-- hal__asm__x86__h&#45;&gt;hal__asm__vm__h -->
<g id="edge59" class="edge"><title>hal__asm__x86__h&#45;&gt;hal__asm__vm__h</title>
<path fill="none" stroke="black" d="M2076.97,-581.961C2057.08,-548.159 2012.52,-472.451 1989.08,-432.619"/>
<polygon fill="black" stroke="black" points="1992.09,-430.843 1984.01,-424.001 1986.06,-434.394 1992.09,-430.843"/>
</g>
<!-- hal__asm__serial__h -->
<g id="node50" class="node"><title>hal__asm__serial__h</title>
<ellipse fill="none" stroke="black" cx="4538" cy="-988" rx="84.2388" ry="18"/>
<text text-anchor="middle" x="4538" y="-984.3" font-family="Times,serif" font-size="14.00">hal/asm/serial.h</text>
</g>
<!-- hal__asm__serial__h&#45;&gt;hal__serial__h -->
<g id="edge43" class="edge"><title>hal__asm__serial__h&#45;&gt;hal__serial__h</title>
<path fill="none" stroke="black" d="M4538,-969.961C4538,-936.586 4538,-862.357 4538,-822.145"/>
<polygon fill="black" stroke="black" points="4541.5,-822 4538,-812.001 4534.5,-822.001 4541.5,-822"/>
</g>
<!-- jinue__memory__h -->
<g id="node51" class="node"><title>jinue__memory__h</title>
<polygon fill="none" stroke="black" points="1278.25,-424 1151.75,-424 1151.75,-388 1278.25,-388 1278.25,-424"/>
<text text-anchor="middle" x="1215" y="-402.3" font-family="Times,serif" font-size="14.00">jinue/memory.h</text>
</g>
<!-- jinue__syscall__h -->
<g id="node52" class="node"><title>jinue__syscall__h</title>
<polygon fill="none" stroke="black" points="864.25,-618 745.75,-618 745.75,-582 864.25,-582 864.25,-618"/>
<text text-anchor="middle" x="805" y="-596.3" font-family="Times,serif" font-size="14.00">jinue/syscall.h</text>
</g>
<!-- jinue__types__h -->
<g id="node53" class="node"><title>jinue__types__h</title>
<polygon fill="none" stroke="black" points="1059.25,-424 950.75,-424 950.75,-388 1059.25,-388 1059.25,-424"/>
<text text-anchor="middle" x="1005" y="-402.3" font-family="Times,serif" font-size="14.00">jinue/types.h</text>
</g>
<!-- jinue__vm__h -->
<g id="node54" class="node"><title>jinue__vm__h</title>
<polygon fill="none" stroke="black" points="1628,-230 1536,-230 1536,-194 1628,-194 1628,-230"/>
<text text-anchor="middle" x="1582" y="-208.3" font-family="Times,serif" font-size="14.00">jinue/vm.h</text>
</g>
<!-- jinue__console__h -->
<g id="node55" class="node"><title>jinue__console__h</title>
<polygon fill="none" stroke="black" points="3325,-812 3201,-812 3201,-776 3325,-776 3325,-812"/>
<text text-anchor="middle" x="3263" y="-790.3" font-family="Times,serif" font-size="14.00">jinue/console.h</text>
</g>
<!-- jinue__elf__h -->
<g id="node56" class="node"><title>jinue__elf__h</title>
<polygon fill="none" stroke="black" points="2347.25,-618 2260.75,-618 2260.75,-582 2347.25,-582 2347.25,-618"/>
<text text-anchor="middle" x="2304" y="-596.3" font-family="Times,serif" font-size="14.00">jinue/elf.h</text>
</g>
<!-- jinue__errno__h -->
<g id="node57" class="node"><title>jinue__errno__h</title>
<polygon fill="none" stroke="black" points="5028.25,-812 4919.75,-812 4919.75,-776 5028.25,-776 5028.25,-812"/>
<text text-anchor="middle" x="4974" y="-790.3" font-family="Times,serif" font-size="14.00">jinue/errno.h</text>
</g>
<!-- jinue__ipc__h -->
<g id="node58" class="node"><title>jinue__ipc__h</title>
<polygon fill="none" stroke="black" points="384,-424 292,-424 292,-388 384,-388 384,-424"/>
<text text-anchor="middle" x="338" y="-402.3" font-family="Times,serif" font-size="14.00">jinue/ipc.h</text>
</g>
<!-- jinue__list__h -->
<g id="node59" class="node"><title>jinue__list__h</title>
<polygon fill="none" stroke="black" points="624,-424 532,-424 532,-388 624,-388 624,-424"/>
<text text-anchor="middle" x="578" y="-402.3" font-family="Times,serif" font-size="14.00">jinue/list.h</text>
</g>
<!-- jinue__common__console__h -->
<g id="node60" class="node"><title>jinue__common__console__h</title>
<polygon fill="none" stroke="black" points="3395.44,-980.544 3395.44,-995.456 3317.86,-1006 3208.14,-1006 3130.56,-995.456 3130.56,-980.544 3208.14,-970 3317.86,-970 3395.44,-980.544"/>
<text text-anchor="middle" x="3263" y="-984.3" font-family="Times,serif" font-size="14.00">jinue&#45;common/console.h</text>
</g>
<!-- jinue__common__console__h&#45;&gt;console__h -->
<g id="edge7" class="edge"><title>jinue__common__console__h&#45;&gt;console__h</title>
<path fill="none" stroke="black" d="M3248,-969.961C3217.91,-935.774 3150.09,-858.721 3115.36,-819.272"/>
<polygon fill="black" stroke="black" points="3117.72,-816.648 3108.48,-811.454 3112.46,-821.273 3117.72,-816.648"/>
</g>
<!-- jinue__common__console__h&#45;&gt;jinue__console__h -->
<g id="edge65" class="edge"><title>jinue__common__console__h&#45;&gt;jinue__console__h</title>
<path fill="none" stroke="black" d="M3263,-969.961C3263,-936.586 3263,-862.357 3263,-822.145"/>
<polygon fill="black" stroke="black" points="3266.5,-822 3263,-812.001 3259.5,-822.001 3266.5,-822"/>
</g>
<!-- jinue__common__elf__h -->
<g id="node61" class="node"><title>jinue__common__elf__h</title>
<polygon fill="none" stroke="black" points="2410.4,-786.544 2410.4,-801.456 2348.07,-812 2259.93,-812 2197.6,-801.456 2197.6,-786.544 2259.93,-776 2348.07,-776 2410.4,-786.544"/>
<text text-anchor="middle" x="2304" y="-790.3" font-family="Times,serif" font-size="14.00">jinue&#45;common/elf.h</text>
</g>
<!-- jinue__common__elf__h&#45;&gt;elf__h -->
<g id="edge4" class="edge"><title>jinue__common__elf__h&#45;&gt;elf__h</title>
<path fill="none" stroke="black" d="M2261.51,-775.954C2199.23,-749.395 2081.99,-693.268 2003,-618 1914.82,-533.977 1930.87,-482.48 1854,-388 1804.89,-327.642 1737.3,-265.613 1701.52,-234.126"/>
<polygon fill="black" stroke="black" points="1703.38,-231.108 1693.55,-227.158 1698.78,-236.377 1703.38,-231.108"/>
</g>
<!-- jinue__common__elf__h&#45;&gt;hal__types__h -->
<g id="edge48" class="edge"><title>jinue__common__elf__h&#45;&gt;hal__types__h</title>
<path fill="none" stroke="black" d="M2330.71,-775.961C2385.73,-740.869 2511.55,-660.609 2571.74,-622.218"/>
<polygon fill="black" stroke="black" points="2573.92,-624.977 2580.47,-616.649 2570.15,-619.076 2573.92,-624.977"/>
</g>
<!-- jinue__common__elf__h&#45;&gt;jinue__elf__h -->
<g id="edge66" class="edge"><title>jinue__common__elf__h&#45;&gt;jinue__elf__h</title>
<path fill="none" stroke="black" d="M2304,-775.961C2304,-742.586 2304,-668.357 2304,-628.145"/>
<polygon fill="black" stroke="black" points="2307.5,-628 2304,-618.001 2300.5,-628.001 2307.5,-628"/>
</g>
<!-- jinue__common__errno__h -->
<g id="node62" class="node"><title>jinue__common__errno__h</title>
<polygon fill="none" stroke="black" points="5096.11,-980.544 5096.11,-995.456 5024.58,-1006 4923.42,-1006 4851.89,-995.456 4851.89,-980.544 4923.42,-970 5024.58,-970 5096.11,-980.544"/>
<text text-anchor="middle" x="4974" y="-984.3" font-family="Times,serif" font-size="14.00">jinue&#45;common/errno.h</text>
</g>
<!-- jinue__common__errno__h&#45;&gt;jinue__errno__h -->
<g id="edge67" class="edge"><title>jinue__common__errno__h&#45;&gt;jinue__errno__h</title>
<path fill="none" stroke="black" d="M4974,-969.961C4974,-936.586 4974,-862.357 4974,-822.145"/>
<polygon fill="black" stroke="black" points="4977.5,-822 4974,-812.001 4970.5,-822.001 4977.5,-822"/>
</g>
<!-- jinue__common__ipc__h -->
<g id="node63" class="node"><title>jinue__common__ipc__h</title>
<polygon fill="none" stroke="black" points="448.173,-592.544 448.173,-607.456 383.635,-618 292.365,-618 227.827,-607.456 227.827,-592.544 292.365,-582 383.635,-582 448.173,-592.544"/>
<text text-anchor="middle" x="338" y="-596.3" font-family="Times,serif" font-size="14.00">jinue&#45;common/ipc.h</text>
</g>
<!-- jinue__common__ipc__h&#45;&gt;types__h -->
<g id="edge9" class="edge"><title>jinue__common__ipc__h&#45;&gt;types__h</title>
<path fill="none" stroke="black" d="M385.673,-582.297C491.39,-545.257 744.03,-456.741 844.125,-421.672"/>
<polygon fill="black" stroke="black" points="845.326,-424.96 853.606,-418.35 843.011,-418.353 845.326,-424.96"/>
</g>
<!-- jinue__common__ipc__h&#45;&gt;jinue__ipc__h -->
<g id="edge68" class="edge"><title>jinue__common__ipc__h&#45;&gt;jinue__ipc__h</title>
<path fill="none" stroke="black" d="M338,-581.961C338,-548.586 338,-474.357 338,-434.145"/>
<polygon fill="black" stroke="black" points="341.5,-434 338,-424.001 334.5,-434.001 341.5,-434"/>
</g>
<!-- jinue__common__list__h -->
<g id="node64" class="node"><title>jinue__common__list__h</title>
<polygon fill="none" stroke="black" points="689.228,-592.544 689.228,-607.456 624.072,-618 531.928,-618 466.772,-607.456 466.772,-592.544 531.928,-582 624.072,-582 689.228,-592.544"/>
<text text-anchor="middle" x="578" y="-596.3" font-family="Times,serif" font-size="14.00">jinue&#45;common/list.h</text>
</g>
<!-- jinue__common__list__h&#45;&gt;types__h -->
<g id="edge10" class="edge"><title>jinue__common__list__h&#45;&gt;types__h</title>
<path fill="none" stroke="black" d="M605.333,-581.961C662.188,-546.519 792.946,-465.007 853.781,-427.085"/>
<polygon fill="black" stroke="black" points="855.943,-429.861 862.577,-421.601 852.24,-423.921 855.943,-429.861"/>
</g>
<!-- jinue__common__list__h&#45;&gt;jinue__list__h -->
<g id="edge69" class="edge"><title>jinue__common__list__h&#45;&gt;jinue__list__h</title>
<path fill="none" stroke="black" d="M578,-581.961C578,-548.586 578,-474.357 578,-434.145"/>
<polygon fill="black" stroke="black" points="581.5,-434 578,-424.001 574.5,-434.001 581.5,-434"/>
</g>
<!-- jinue__common__syscall__h -->
<g id="node65" class="node"><title>jinue__common__syscall__h</title>
<polygon fill="none" stroke="black" points="890.164,-786.544 890.164,-801.456 814.502,-812 707.498,-812 631.836,-801.456 631.836,-786.544 707.498,-776 814.502,-776 890.164,-786.544"/>
<text text-anchor="middle" x="761" y="-790.3" font-family="Times,serif" font-size="14.00">jinue&#45;common/syscall.h</text>
</g>
<!-- jinue__common__syscall__h&#45;&gt;syscall__h -->
<g id="edge1" class="edge"><title>jinue__common__syscall__h&#45;&gt;syscall__h</title>
<path fill="none" stroke="black" d="M887.025,-786.059C1187.83,-768.106 1939.88,-714.665 2171,-618 2276.15,-574.022 2374.45,-476.502 2416.51,-431.111"/>
<polygon fill="black" stroke="black" points="2419.29,-433.258 2423.46,-423.522 2414.13,-428.528 2419.29,-433.258"/>
</g>
<!-- jinue__common__syscall__h&#45;&gt;types__h -->
<g id="edge11" class="edge"><title>jinue__common__syscall__h&#45;&gt;types__h</title>
<path fill="none" stroke="black" d="M753.829,-775.964C739.473,-739.261 710.66,-650.502 736,-582 760.292,-516.333 821.45,-458.679 857.732,-428.761"/>
<polygon fill="black" stroke="black" points="860.377,-431.123 865.946,-422.111 855.972,-425.683 860.377,-431.123"/>
</g>
<!-- jinue__common__syscall__h&#45;&gt;jinue__syscall__h -->
<g id="edge62" class="edge"><title>jinue__common__syscall__h&#45;&gt;jinue__syscall__h</title>
<path fill="none" stroke="black" d="M764.905,-775.961C772.57,-742.515 789.637,-668.04 798.838,-627.888"/>
<polygon fill="black" stroke="black" points="802.282,-628.53 801.104,-618.001 795.459,-626.966 802.282,-628.53"/>
</g>
<!-- jinue__common__syscall__h&#45;&gt;jinue__common__ipc__h -->
<g id="edge71" class="edge"><title>jinue__common__syscall__h&#45;&gt;jinue__common__ipc__h</title>
<path fill="none" stroke="black" d="M723.462,-775.961C646.169,-740.878 469.422,-660.653 384.815,-622.249"/>
<polygon fill="black" stroke="black" points="386.007,-618.947 375.454,-618.001 383.114,-625.321 386.007,-618.947"/>
</g>
<!-- jinue__common__types__h -->
<g id="node66" class="node"><title>jinue__common__types__h</title>
<polygon fill="none" stroke="black" points="1127.11,-592.544 1127.11,-607.456 1055.58,-618 954.42,-618 882.888,-607.456 882.888,-592.544 954.42,-582 1055.58,-582 1127.11,-592.544"/>
<text text-anchor="middle" x="1005" y="-596.3" font-family="Times,serif" font-size="14.00">jinue&#45;common/types.h</text>
</g>
<!-- jinue__common__types__h&#45;&gt;types__h -->
<g id="edge12" class="edge"><title>jinue__common__types__h&#45;&gt;types__h</title>
<path fill="none" stroke="black" d="M994.44,-581.961C973.436,-548.074 926.329,-472.069 901.692,-432.318"/>
<polygon fill="black" stroke="black" points="904.61,-430.382 896.367,-423.726 898.66,-434.07 904.61,-430.382"/>
</g>
<!-- jinue__common__types__h&#45;&gt;jinue__memory__h -->
<g id="edge61" class="edge"><title>jinue__common__types__h&#45;&gt;jinue__memory__h</title>
<path fill="none" stroke="black" d="M1023.64,-581.961C1061.15,-547.661 1145.86,-470.21 1188.88,-430.881"/>
<polygon fill="black" stroke="black" points="1191.39,-433.331 1196.41,-424.001 1186.66,-428.165 1191.39,-433.331"/>
</g>
<!-- jinue__common__types__h&#45;&gt;jinue__types__h -->
<g id="edge63" class="edge"><title>jinue__common__types__h&#45;&gt;jinue__types__h</title>
<path fill="none" stroke="black" d="M1005,-581.961C1005,-548.586 1005,-474.357 1005,-434.145"/>
<polygon fill="black" stroke="black" points="1008.5,-434 1005,-424.001 1001.5,-434.001 1008.5,-434"/>
</g>
<!-- jinue__common__vm__h -->
<g id="node67" class="node"><title>jinue__common__vm__h</title>
<polygon fill="none" stroke="black" points="1668.17,-398.544 1668.17,-413.456 1603.63,-424 1512.37,-424 1447.83,-413.456 1447.83,-398.544 1512.37,-388 1603.63,-388 1668.17,-398.544"/>
<text text-anchor="middle" x="1558" y="-402.3" font-family="Times,serif" font-size="14.00">jinue&#45;common/vm.h</text>
</g>
<!-- jinue__common__vm__h&#45;&gt;slab__h -->
<g id="edge17" class="edge"><title>jinue__common__vm__h&#45;&gt;slab__h</title>
<path fill="none" stroke="black" d="M1576.28,-387.961C1613.56,-353.215 1698.35,-274.188 1740,-235.366"/>
<polygon fill="black" stroke="black" points="1742.57,-237.762 1747.49,-228.384 1737.79,-232.642 1742.57,-237.762"/>
</g>
<!-- jinue__common__vm__h&#45;&gt;hal__vm__h -->
<g id="edge24" class="edge"><title>jinue__common__vm__h&#45;&gt;hal__vm__h</title>
<path fill="none" stroke="black" d="M1585.78,-387.961C1643.53,-352.534 1776.33,-271.075 1838.18,-233.132"/>
<polygon fill="black" stroke="black" points="1840.08,-236.072 1846.77,-227.86 1836.42,-230.106 1840.08,-236.072"/>
</g>
<!-- jinue__common__vm__h&#45;&gt;hal__vm_private__h -->
<g id="edge50" class="edge"><title>jinue__common__vm__h&#45;&gt;hal__vm_private__h</title>
<path fill="none" stroke="black" d="M1554.43,-387.69C1548.07,-356.36 1534.75,-288.11 1527,-230 1518.23,-164.211 1512.38,-86.3282 1509.7,-46.0914"/>
<polygon fill="black" stroke="black" points="1513.18,-45.7622 1509.04,-36.0119 1506.2,-46.2189 1513.18,-45.7622"/>
</g>
<!-- jinue__common__vm__h&#45;&gt;jinue__vm__h -->
<g id="edge64" class="edge"><title>jinue__common__vm__h&#45;&gt;jinue__vm__h</title>
<path fill="none" stroke="black" d="M1560.13,-387.961C1564.3,-354.586 1573.58,-280.357 1578.61,-240.145"/>
<polygon fill="black" stroke="black" points="1582.11,-240.357 1579.87,-230.001 1575.16,-239.489 1582.11,-240.357"/>
</g>
<!-- jinue__common__asm__e820__h -->
<g id="node68" class="node"><title>jinue__common__asm__e820__h</title>
<polygon fill="none" stroke="black" points="1432.27,-592.544 1432.27,-607.456 1348.34,-618 1229.66,-618 1145.73,-607.456 1145.73,-592.544 1229.66,-582 1348.34,-582 1432.27,-592.544"/>
<text text-anchor="middle" x="1289" y="-596.3" font-family="Times,serif" font-size="14.00">jinue&#45;common/asm/e820.h</text>
</g>
<!-- jinue__common__asm__e820__h&#45;&gt;jinue__memory__h -->
<g id="edge60" class="edge"><title>jinue__common__asm__e820__h&#45;&gt;jinue__memory__h</title>
<path fill="none" stroke="black" d="M1282.43,-581.961C1269.49,-548.372 1240.59,-473.405 1225.17,-433.378"/>
<polygon fill="black" stroke="black" points="1228.41,-432.073 1221.55,-424.001 1221.88,-434.59 1228.41,-432.073"/>
</g>
<!-- jinue__common__asm__ipc__h -->
<g id="node69" class="node"><title>jinue__common__asm__ipc__h</title>
<polygon fill="none" stroke="black" points="472.051,-786.544 472.051,-801.456 393.526,-812 282.474,-812 203.949,-801.456 203.949,-786.544 282.474,-776 393.526,-776 472.051,-786.544"/>
<text text-anchor="middle" x="338" y="-790.3" font-family="Times,serif" font-size="14.00">jinue&#45;common/asm/ipc.h</text>
</g>
<!-- jinue__common__asm__ipc__h&#45;&gt;jinue__common__ipc__h -->
<g id="edge70" class="edge"><title>jinue__common__asm__ipc__h&#45;&gt;jinue__common__ipc__h</title>
<path fill="none" stroke="black" d="M338,-775.961C338,-742.586 338,-668.357 338,-628.145"/>
<polygon fill="black" stroke="black" points="341.5,-628 338,-618.001 334.5,-628.001 341.5,-628"/>
</g>
<!-- jinue__common__asm__syscall__h -->
<g id="node70" class="node"><title>jinue__common__asm__syscall__h</title>
<polygon fill="none" stroke="black" points="914.042,-980.544 914.042,-995.456 824.392,-1006 697.608,-1006 607.958,-995.456 607.958,-980.544 697.608,-970 824.392,-970 914.042,-980.544"/>
<text text-anchor="middle" x="761" y="-984.3" font-family="Times,serif" font-size="14.00">jinue&#45;common/asm/syscall.h</text>
</g>
<!-- jinue__common__asm__syscall__h&#45;&gt;jinue__common__syscall__h -->
<g id="edge72" class="edge"><title>jinue__common__asm__syscall__h&#45;&gt;jinue__common__syscall__h</title>
<path fill="none" stroke="black" d="M761,-969.961C761,-936.586 761,-862.357 761,-822.145"/>
<polygon fill="black" stroke="black" points="764.5,-822 761,-812.001 757.5,-822.001 764.5,-822"/>
</g>
<!-- jinue__common__asm__types__h -->
<g id="node71" class="node"><title>jinue__common__asm__types__h</title>
<polygon fill="none" stroke="black" points="1677.99,-786.544 1677.99,-801.456 1592.47,-812 1471.53,-812 1386.01,-801.456 1386.01,-786.544 1471.53,-776 1592.47,-776 1677.99,-786.544"/>
<text text-anchor="middle" x="1532" y="-790.3" font-family="Times,serif" font-size="14.00">jinue&#45;common/asm/types.h</text>
</g>
<!-- jinue__common__asm__types__h&#45;&gt;hal__asm__mem__h -->
<g id="edge55" class="edge"><title>jinue__common__asm__types__h&#45;&gt;hal__asm__mem__h</title>
<path fill="none" stroke="black" d="M1532,-775.961C1532,-742.586 1532,-668.357 1532,-628.145"/>
<polygon fill="black" stroke="black" points="1535.5,-628 1532,-618.001 1528.5,-628.001 1535.5,-628"/>
</g>
<!-- jinue__common__asm__types__h&#45;&gt;jinue__common__types__h -->
<g id="edge73" class="edge"><title>jinue__common__asm__types__h&#45;&gt;jinue__common__types__h</title>
<path fill="none" stroke="black" d="M1485.23,-775.961C1388.25,-740.629 1165.6,-659.511 1061.1,-621.438"/>
<polygon fill="black" stroke="black" points="1062.26,-618.135 1051.66,-618.001 1059.86,-624.712 1062.26,-618.135"/>
</g>
<!-- jinue__common__asm__vm__h -->
<g id="node72" class="node"><title>jinue__common__asm__vm__h</title>
<polygon fill="none" stroke="black" points="1900.05,-592.544 1900.05,-607.456 1821.53,-618 1710.47,-618 1631.95,-607.456 1631.95,-592.544 1710.47,-582 1821.53,-582 1900.05,-592.544"/>
<text text-anchor="middle" x="1766" y="-596.3" font-family="Times,serif" font-size="14.00">jinue&#45;common/asm/vm.h</text>
</g>
<!-- jinue__common__asm__types__h&#45;&gt;jinue__common__asm__vm__h -->
<g id="edge75" class="edge"><title>jinue__common__asm__types__h&#45;&gt;jinue__common__asm__vm__h</title>
<path fill="none" stroke="black" d="M1552.77,-775.961C1594.74,-741.519 1689.75,-663.567 1737.49,-624.394"/>
<polygon fill="black" stroke="black" points="1739.77,-627.05 1745.28,-618.001 1735.33,-621.638 1739.77,-627.05"/>
</g>
<!-- jinue__common__asm__vm__h&#45;&gt;hal__asm__boot__h -->
<g id="edge56" class="edge"><title>jinue__common__asm__vm__h&#45;&gt;hal__asm__boot__h</title>
<path fill="none" stroke="black" d="M1766,-581.961C1766,-548.586 1766,-474.357 1766,-434.145"/>
<polygon fill="black" stroke="black" points="1769.5,-434 1766,-424.001 1762.5,-434.001 1769.5,-434"/>
</g>
<!-- jinue__common__asm__vm__h&#45;&gt;hal__asm__thread__h -->
<g id="edge58" class="edge"><title>jinue__common__asm__vm__h&#45;&gt;hal__asm__thread__h</title>
<path fill="none" stroke="black" d="M1800.43,-581.961C1871.75,-546.668 2035.39,-465.692 2112.44,-427.565"/>
<polygon fill="black" stroke="black" points="2114.43,-430.487 2121.84,-422.915 2111.32,-424.213 2114.43,-430.487"/>
</g>
<!-- jinue__common__asm__vm__h&#45;&gt;jinue__common__vm__h -->
<g id="edge74" class="edge"><title>jinue__common__asm__vm__h&#45;&gt;jinue__common__vm__h</title>
<path fill="none" stroke="black" d="M1747.54,-581.961C1710.38,-547.661 1626.48,-470.21 1583.87,-430.881"/>
<polygon fill="black" stroke="black" points="1586.14,-428.212 1576.42,-424.001 1581.39,-433.355 1586.14,-428.212"/>
</g>
</g>
</svg>
